G04 DipTrace 3.1.0.1*
G04 tas5806mROUTE.TopPaste.gbr*
%MOIN*%
G04 #@! TF.FileFunction,Paste,Top*
G04 #@! TF.Part,Single*
%ADD44R,0.177008X0.106142*%
%ADD46R,0.00378X0.051024*%
%ADD48O,0.051969X0.061969*%
%ADD50C,0.086457*%
%ADD52R,0.086457X0.220315*%
%ADD54O,0.061969X0.051969*%
%ADD56R,0.039213X0.054961*%
%ADD58R,0.023465X0.023465*%
%ADD60R,0.04315X0.035276*%
%ADD62C,0.051024*%
%ADD64R,0.051024X0.051024*%
%FSLAX26Y26*%
G04*
G70*
G90*
G75*
G01*
G04 TopPaste*
%LPD*%
D64*
X1295591Y1638110D3*
D62*
Y1834961D3*
D60*
X862520Y1555433D3*
Y1480630D3*
D58*
X1270000Y890079D3*
X1329055D3*
X1142047Y1472756D3*
X1201102D3*
X1145984Y890079D3*
X1205039D3*
X1079055Y1531811D3*
Y1472756D3*
D64*
X1295591Y724724D3*
D62*
Y527874D3*
D58*
X1270000Y1472756D3*
X1329055D3*
X1401890Y1437323D3*
X1460945D3*
X1567244Y1354646D3*
Y1295591D3*
X1401890Y925512D3*
X1460945D3*
X1567244Y1008189D3*
Y1067244D3*
D56*
X1783780Y1618425D3*
X1894016D3*
X1783780Y1535748D3*
X1894016D3*
X1783780Y744409D3*
X1894016D3*
X1783780Y827087D3*
X1894016D3*
D58*
X2073150Y1716850D3*
X2014094D3*
X2073150Y1236535D3*
X2014094D3*
X2073150Y645984D3*
X2014094D3*
X2073150Y1126299D3*
X2014094D3*
D54*
X472756Y1531390D3*
Y1431390D3*
Y1631390D3*
Y1131417D3*
Y1031417D3*
Y1231417D3*
Y831417D3*
Y931417D3*
Y1331417D3*
Y731417D3*
D52*
X1705039Y1803465D3*
X1894016D3*
X1705039Y1350709D3*
X1894016D3*
X1705039Y559370D3*
X1894016D3*
X1705039Y1012126D3*
X1894016D3*
D50*
X2189291Y1378268D3*
Y1575118D3*
D58*
X779843Y933386D3*
X838898D3*
X779843Y870394D3*
X838898D3*
X787717Y1413701D3*
Y1472756D3*
X779843Y807402D3*
X838898D3*
D50*
X2189291Y787717D3*
Y984567D3*
D48*
X882205Y472756D3*
X982205D3*
X782205D3*
D46*
X1437323Y1295591D3*
X1417638D3*
X1397953D3*
X1378268D3*
X1358583D3*
X1338898D3*
X1319213D3*
X1299528D3*
X1279843D3*
X1260157D3*
X1240472D3*
X1220787D3*
X1201102D3*
X1181417D3*
X1161732D3*
X1142047D3*
X1122362D3*
X1102677D3*
X1082992D3*
Y1067244D3*
X1102677D3*
X1122362D3*
X1142047D3*
X1161732D3*
X1181417D3*
X1201102D3*
X1220787D3*
X1240472D3*
X1260157D3*
X1279843D3*
X1299528D3*
X1319213D3*
X1338898D3*
X1358583D3*
X1378268D3*
X1397953D3*
X1417638D3*
X1437323D3*
D44*
X1260157Y1181417D3*
M02*
