G04 DipTrace 3.1.0.1*
G04 tas5806mROUTE.TopDimension.gbr*
%MOIN*%
G04 #@! TF.FileFunction,Drawing,Top*
G04 #@! TF.Part,Single*
%ADD13C,0.001378*%
%ADD67C,0.006176*%
%FSLAX26Y26*%
G04*
G70*
G90*
G75*
G01*
G04 TopDimension*
%LPD*%
X2205039Y394016D2*
D13*
X177480D1*
X551496D2*
X177480D1*
X197165D2*
D3*
Y453071D2*
Y433386D1*
G36*
Y394016D2*
X189291Y433386D1*
X205039D1*
X197165Y394016D1*
G37*
Y334961D2*
D13*
Y354646D1*
G36*
Y394016D2*
X205039Y354646D1*
X189291D1*
X197165Y394016D1*
G37*
Y460180D2*
D13*
Y394016D1*
X2205039Y1823150D2*
X2571181D1*
X2205039Y1968819D2*
X2571181D1*
X2551496D2*
Y1823150D1*
Y2027874D2*
Y2008189D1*
G36*
Y1968819D2*
X2543622Y2008189D1*
X2559370D1*
X2551496Y1968819D1*
G37*
Y1764094D2*
D13*
Y1783780D1*
G36*
Y1823150D2*
X2559370Y1783780D1*
X2543622D1*
X2551496Y1823150D1*
G37*
X1063307Y1268040D2*
D13*
X-310709D1*
X2205039Y394016D2*
X-310709D1*
X-291024Y831028D2*
Y1228670D1*
G36*
Y1268040D2*
X-283150Y1228670D1*
X-298898D1*
X-291024Y1268040D1*
G37*
Y831028D2*
D13*
Y433386D1*
G36*
Y394016D2*
X-298898Y433386D1*
X-283150D1*
X-291024Y394016D1*
G37*
X1063307Y1094794D2*
D13*
X-440630D1*
X551496Y394016D2*
X-440630D1*
X-420945Y744405D2*
Y1055424D1*
G36*
Y1094794D2*
X-413071Y1055424D1*
X-428819D1*
X-420945Y1094794D1*
G37*
Y744405D2*
D13*
Y433386D1*
G36*
Y394016D2*
X-428819Y433386D1*
X-413071D1*
X-420945Y394016D1*
G37*
X472756Y1631390D2*
D13*
X-877638D1*
X2205039Y394016D2*
X-877638D1*
X-857953Y1012703D2*
Y1592020D1*
G36*
Y1631390D2*
X-850079Y1592020D1*
X-865827D1*
X-857953Y1631390D1*
G37*
Y1012703D2*
D13*
Y433386D1*
G36*
Y394016D2*
X-865827Y433386D1*
X-850079D1*
X-857953Y394016D1*
G37*
X472756Y731417D2*
D13*
X-881575D1*
X551496Y394016D2*
X-881575D1*
X-861890Y562717D2*
Y692047D1*
G36*
Y731417D2*
X-854016Y692047D1*
X-869764D1*
X-861890Y731417D1*
G37*
Y562717D2*
D13*
Y433386D1*
G36*
Y394016D2*
X-869764Y433386D1*
X-854016D1*
X-861890Y394016D1*
G37*
X782205Y472756D2*
D13*
X-70551D1*
X551496Y394016D2*
X-70551D1*
X-50866Y472756D2*
Y394016D1*
Y531811D2*
Y512126D1*
G36*
Y472756D2*
X-58740Y512126D1*
X-42992D1*
X-50866Y472756D1*
G37*
Y334961D2*
D13*
Y354646D1*
G36*
Y394016D2*
X-42992Y354646D1*
X-58740D1*
X-50866Y394016D1*
G37*
Y538921D2*
D13*
Y472756D1*
X1677468Y1929449D2*
X12126D1*
X2205039Y394016D2*
X12126D1*
X31811Y1161732D2*
Y1890079D1*
G36*
Y1929449D2*
X39685Y1890079D1*
X23937D1*
X31811Y1929449D1*
G37*
Y1161732D2*
D13*
Y433386D1*
G36*
Y394016D2*
X23937Y433386D1*
X39685D1*
X31811Y394016D1*
G37*
X551496D2*
D13*
Y-176850D1*
X2362520Y551496D2*
Y-176850D1*
X1457008Y-157165D2*
X590866D1*
G36*
X551496D2*
X590866Y-149291D1*
Y-165039D1*
X551496Y-157165D1*
G37*
X1457008D2*
D13*
X2323150D1*
G36*
X2362520D2*
X2323150Y-165039D1*
Y-149291D1*
X2362520Y-157165D1*
G37*
X551496Y1811339D2*
D13*
Y1724724D1*
X394016Y1811339D2*
Y1724724D1*
X472756Y1744409D2*
X512126D1*
G36*
X551496D2*
X512126Y1736535D1*
Y1752283D1*
X551496Y1744409D1*
G37*
X472756D2*
D13*
X433386D1*
G36*
X394016D2*
X433386Y1752283D1*
Y1736535D1*
X394016Y1744409D1*
G37*
X551496Y1811339D2*
D13*
X657795D1*
X551496Y1968819D2*
X657795D1*
X638110Y1890079D2*
Y1850709D1*
G36*
Y1811339D2*
X630236Y1850709D1*
X645984D1*
X638110Y1811339D1*
G37*
Y1890079D2*
D13*
Y1929449D1*
G36*
Y1968819D2*
X645984Y1929449D1*
X630236D1*
X638110Y1968819D1*
G37*
X551496Y551496D2*
D13*
Y614488D1*
X394016Y551496D2*
Y614488D1*
X472756Y594803D2*
X512126D1*
G36*
X551496D2*
X512126Y586929D1*
Y602677D1*
X551496Y594803D1*
G37*
X472756D2*
D13*
X433386D1*
G36*
X394016D2*
X433386Y602677D1*
Y586929D1*
X394016Y594803D1*
G37*
X551496Y551496D2*
D13*
X303465D1*
X551496Y394016D2*
X303465D1*
X323150Y472756D2*
Y512126D1*
G36*
Y551496D2*
X331024Y512126D1*
X315276D1*
X323150Y551496D1*
G37*
Y472756D2*
D13*
Y433386D1*
G36*
Y394016D2*
X315276Y433386D1*
X331024D1*
X323150Y394016D1*
G37*
X2205039Y1823150D2*
D13*
Y2106614D1*
X2362520Y1811339D2*
Y2106614D1*
X2283780Y2086929D2*
X2244409D1*
G36*
X2205039D2*
X2244409Y2094803D1*
Y2079055D1*
X2205039Y2086929D1*
G37*
X2283780D2*
D13*
X2323150D1*
G36*
X2362520D2*
X2323150Y2079055D1*
Y2094803D1*
X2362520Y2086929D1*
G37*
X394016Y1811339D2*
D13*
Y2323150D1*
X2362520Y1811339D2*
Y2323150D1*
X1378268Y2303465D2*
X433386D1*
G36*
X394016D2*
X433386Y2311339D1*
Y2295591D1*
X394016Y2303465D1*
G37*
X1378268D2*
D13*
X2323150D1*
G36*
X2362520D2*
X2323150Y2295591D1*
Y2311339D1*
X2362520Y2303465D1*
G37*
X1043622Y1051496D2*
D13*
X984567D1*
X1043622Y1008189D2*
X984567D1*
X1004252Y1051496D2*
Y1008189D1*
Y1110551D2*
Y1090866D1*
G36*
Y1051496D2*
X996378Y1090866D1*
X1012126D1*
X1004252Y1051496D1*
G37*
Y949134D2*
D13*
Y968819D1*
G36*
Y1008189D2*
X1012126Y968819D1*
X996378D1*
X1004252Y1008189D1*
G37*
Y1138605D2*
D13*
Y1051496D1*
X838898Y1307402D2*
Y1378268D1*
X897953Y1307402D2*
Y1378268D1*
X838898Y1358583D2*
X897953D1*
X779843D2*
X799528D1*
G36*
X838898D2*
X799528Y1350709D1*
Y1366457D1*
X838898Y1358583D1*
G37*
X957008D2*
D13*
X937323D1*
G36*
X897953D2*
X937323Y1366457D1*
Y1350709D1*
X897953Y1358583D1*
G37*
X1002262D2*
D13*
X897953D1*
X144807Y454145D2*
D67*
X146708Y448397D1*
X152456Y444551D1*
X162007Y442649D1*
X167755D1*
X177305Y444551D1*
X183053Y448397D1*
X184955Y454145D1*
Y457948D1*
X183053Y463696D1*
X177305Y467499D1*
X167755Y469444D1*
X162007D1*
X152456Y467499D1*
X146708Y463696D1*
X144807Y457948D1*
Y454145D1*
X152456Y467499D2*
X177305Y444551D1*
X2603855Y1930119D2*
Y1909117D1*
X2588556Y1920569D1*
Y1914820D1*
X2586655Y1911018D1*
X2584753Y1909117D1*
X2579005Y1907171D1*
X2575203D1*
X2569455Y1909117D1*
X2565608Y1912919D1*
X2563707Y1918667D1*
Y1924415D1*
X2565608Y1930119D1*
X2567554Y1932020D1*
X2571356Y1933966D1*
X2567554Y1892919D2*
X2565608Y1894820D1*
X2563707Y1892919D1*
X2565608Y1890973D1*
X2567554Y1892919D1*
X2563707Y1870972D2*
X2603855Y1851827D1*
Y1878622D1*
X-333832Y775419D2*
X-335733D1*
X-339580Y777320D1*
X-341481Y779221D1*
X-343382Y783068D1*
Y790717D1*
X-341481Y794520D1*
X-339580Y796421D1*
X-335733Y798367D1*
X-331930D1*
X-328084Y796421D1*
X-322380Y792619D1*
X-303234Y773473D1*
Y800268D1*
X-333832Y814565D2*
X-335733D1*
X-339580Y816466D1*
X-341481Y818367D1*
X-343382Y822214D1*
Y829863D1*
X-341481Y833666D1*
X-339580Y835567D1*
X-335733Y837513D1*
X-331930D1*
X-328084Y835567D1*
X-322380Y831765D1*
X-303234Y812619D1*
Y839414D1*
X-307081Y853667D2*
X-305136Y851765D1*
X-303234Y853667D1*
X-305136Y855612D1*
X-307081Y853667D1*
X-333832Y869909D2*
X-335733D1*
X-339580Y871810D1*
X-341481Y873712D1*
X-343382Y877558D1*
Y885208D1*
X-341481Y889010D1*
X-339580Y890912D1*
X-335733Y892857D1*
X-331930D1*
X-328084Y890912D1*
X-322380Y887109D1*
X-303234Y867964D1*
Y894758D1*
X-465654Y695473D2*
X-467600Y699319D1*
X-473303Y705067D1*
X-433156D1*
Y725068D2*
X-473303Y744213D1*
Y717419D1*
X-437002Y758466D2*
X-435057Y756565D1*
X-433156Y758466D1*
X-435057Y760412D1*
X-437002Y758466D1*
X-473303Y782314D2*
X-471402Y776610D1*
X-467600Y774664D1*
X-463753D1*
X-459950Y776610D1*
X-458005Y780412D1*
X-456104Y788062D1*
X-454202Y793810D1*
X-450356Y797612D1*
X-446553Y799513D1*
X-440805D1*
X-437002Y797612D1*
X-435057Y795711D1*
X-433156Y789963D1*
Y782314D1*
X-435057Y776610D1*
X-437002Y774664D1*
X-440805Y772763D1*
X-446553D1*
X-450356Y774664D1*
X-454202Y778511D1*
X-456104Y784215D1*
X-458005Y791864D1*
X-459950Y795711D1*
X-463753Y797612D1*
X-467600D1*
X-471402Y795711D1*
X-473303Y789963D1*
Y782314D1*
X-910311Y947071D2*
Y968074D1*
X-895013Y956622D1*
Y962370D1*
X-893111Y966172D1*
X-891210Y968074D1*
X-885462Y970019D1*
X-881660D1*
X-875912Y968074D1*
X-872065Y964271D1*
X-870164Y958523D1*
Y952775D1*
X-872065Y947071D1*
X-874010Y945170D1*
X-877813Y943224D1*
X-902662Y982370D2*
X-904607Y986217D1*
X-910311Y991965D1*
X-870164D1*
X-874010Y1006218D2*
X-872065Y1004317D1*
X-870164Y1006218D1*
X-872065Y1008163D1*
X-874010Y1006218D1*
X-870164Y1039660D2*
X-910311D1*
X-883561Y1020515D1*
Y1049211D1*
X-910311Y1065409D2*
Y1086411D1*
X-895013Y1074959D1*
Y1080708D1*
X-893111Y1084510D1*
X-891210Y1086411D1*
X-885462Y1088357D1*
X-881660D1*
X-875912Y1086411D1*
X-872065Y1082609D1*
X-870164Y1076861D1*
Y1071113D1*
X-872065Y1065409D1*
X-874010Y1063508D1*
X-877813Y1061562D1*
X-914248Y514735D2*
X-912347Y509031D1*
X-908544Y507085D1*
X-904698D1*
X-900895Y509031D1*
X-898950Y512833D1*
X-897048Y520483D1*
X-895147Y526231D1*
X-891300Y530033D1*
X-887498Y531934D1*
X-881750D1*
X-877947Y530033D1*
X-876002Y528132D1*
X-874101Y522384D1*
Y514735D1*
X-876002Y509031D1*
X-877947Y507085D1*
X-881750Y505184D1*
X-887498D1*
X-891300Y507085D1*
X-895147Y510932D1*
X-897048Y516636D1*
X-898950Y524285D1*
X-900895Y528132D1*
X-904698Y530033D1*
X-908544D1*
X-912347Y528132D1*
X-914248Y522384D1*
Y514735D1*
X-877947Y546187D2*
X-876002Y544286D1*
X-874101Y546187D1*
X-876002Y548133D1*
X-877947Y546187D1*
X-914248Y583432D2*
Y564331D1*
X-897048Y562430D1*
X-898950Y564331D1*
X-900895Y570079D1*
Y575783D1*
X-898950Y581531D1*
X-895147Y585377D1*
X-889399Y587279D1*
X-885597D1*
X-879849Y585377D1*
X-876002Y581531D1*
X-874101Y575783D1*
Y570079D1*
X-876002Y564331D1*
X-877947Y562430D1*
X-881750Y560484D1*
X-874101Y607279D2*
X-914248Y626425D1*
Y599630D1*
X-93674Y523335D2*
X-95575D1*
X-99422Y525236D1*
X-101323Y527138D1*
X-103225Y530984D1*
Y538634D1*
X-101323Y542436D1*
X-99422Y544337D1*
X-95575Y546283D1*
X-91773D1*
X-87926Y544337D1*
X-82222Y540535D1*
X-63077Y521390D1*
Y548184D1*
X-20548Y1136647D2*
Y1157650D1*
X-5249Y1146198D1*
Y1151946D1*
X-3348Y1155748D1*
X-1446Y1157650D1*
X4302Y1159595D1*
X8104D1*
X13852Y1157650D1*
X17699Y1153847D1*
X19600Y1148099D1*
Y1142351D1*
X17699Y1136647D1*
X15754Y1134746D1*
X11951Y1132800D1*
X-7194Y1196840D2*
X-1446Y1194894D1*
X2400Y1191092D1*
X4302Y1185344D1*
Y1183443D1*
X2400Y1177694D1*
X-1446Y1173892D1*
X-7194Y1171946D1*
X-9096D1*
X-14844Y1173892D1*
X-18646Y1177694D1*
X-20548Y1183443D1*
Y1185344D1*
X-18646Y1191092D1*
X-14844Y1194894D1*
X-7194Y1196840D1*
X2400D1*
X11951Y1194894D1*
X17699Y1191092D1*
X19600Y1185344D1*
Y1181541D1*
X17699Y1175793D1*
X13852Y1173892D1*
X1446293Y-144955D2*
Y-104807D1*
X1427147Y-131557D1*
X1455843D1*
X1491143Y-110511D2*
X1489241Y-106708D1*
X1483493Y-104807D1*
X1479691D1*
X1473943Y-106708D1*
X1470096Y-112456D1*
X1468195Y-122007D1*
Y-131557D1*
X1470096Y-139207D1*
X1473943Y-143053D1*
X1479691Y-144955D1*
X1481592D1*
X1487296Y-143053D1*
X1491143Y-139207D1*
X1493044Y-133459D1*
Y-131557D1*
X1491143Y-125809D1*
X1487296Y-122007D1*
X1481592Y-120105D1*
X1479691D1*
X1473943Y-122007D1*
X1470096Y-125809D1*
X1468195Y-131557D1*
X480641Y1756620D2*
Y1796768D1*
X461496Y1770018D1*
X490192D1*
X650321Y1882193D2*
X690469D1*
X663718Y1901339D1*
Y1872643D1*
X480641Y607014D2*
Y647162D1*
X461496Y620411D1*
X490192D1*
X310939Y480641D2*
X270791D1*
X297542Y461496D1*
Y490192D1*
X2291665Y2099140D2*
Y2139288D1*
X2272519Y2112537D1*
X2301215D1*
X1371333Y2355823D2*
X1352232D1*
X1350331Y2338623D1*
X1352232Y2340525D1*
X1357980Y2342470D1*
X1363684D1*
X1369432Y2340525D1*
X1373279Y2336722D1*
X1375180Y2330974D1*
Y2327171D1*
X1373279Y2321423D1*
X1369432Y2317577D1*
X1363684Y2315675D1*
X1357980D1*
X1352232Y2317577D1*
X1350331Y2319522D1*
X1348385Y2323325D1*
X1399027Y2355823D2*
X1393279Y2353922D1*
X1389433Y2348174D1*
X1387531Y2338623D1*
Y2332875D1*
X1389433Y2323325D1*
X1393279Y2317577D1*
X1399027Y2315675D1*
X1402830D1*
X1408578Y2317577D1*
X1412380Y2323325D1*
X1414326Y2332875D1*
Y2338623D1*
X1412380Y2348174D1*
X1408578Y2353922D1*
X1402830Y2355823D1*
X1399027D1*
X1412380Y2348174D2*
X1389433Y2323325D1*
X959543Y1100130D2*
X957597Y1103976D1*
X951893Y1109724D1*
X992041D1*
X988194Y1123977D2*
X990140Y1122076D1*
X992041Y1123977D1*
X990140Y1125923D1*
X988194Y1123977D1*
X959543Y1138274D2*
X957597Y1142121D1*
X951893Y1147869D1*
X992041D1*
X946586Y1403292D2*
X950433Y1405237D1*
X956181Y1410941D1*
Y1370793D1*
X970434Y1374640D2*
X968533Y1372695D1*
X970434Y1370793D1*
X972379Y1372695D1*
X970434Y1374640D1*
X1007679Y1410941D2*
X988577D1*
X986676Y1393741D1*
X988577Y1395643D1*
X994326Y1397588D1*
X1000029D1*
X1005777Y1395643D1*
X1009624Y1391840D1*
X1011525Y1386092D1*
Y1382289D1*
X1009624Y1376541D1*
X1005777Y1372695D1*
X1000029Y1370793D1*
X994326D1*
X988577Y1372695D1*
X986676Y1374640D1*
X984731Y1378443D1*
M02*
