G04 This is an RS-274x file exported by *
G04 gerbv version 2.6A *
G04 More information is available about gerbv at *
G04 http://gerbv.geda-project.org/ *
G04 --End of header info--*
%MOIN*%
%FSLAX34Y34*%
%IPPOS*%
G04 --Define apertures--*
%ADD10R,0.1770X0.1061*%
%ADD11R,0.0038X0.0510*%
%ADD12O,0.0520X0.0620*%
%ADD13C,0.0865*%
%ADD14R,0.0865X0.2203*%
%ADD15O,0.0620X0.0520*%
%ADD16R,0.0392X0.0550*%
%ADD17R,0.0235X0.0235*%
%ADD18R,0.0432X0.0353*%
%ADD19C,0.0510*%
%ADD20R,0.0510X0.0510*%
G04 --Start main section--*
G54D18*
G01X0008625Y0015554D03*
G01X0008625Y0014806D03*
G54D17*
G01X0012700Y0008901D03*
G01X0013291Y0008901D03*
G01X0011420Y0014728D03*
G01X0012011Y0014728D03*
G01X0011460Y0008901D03*
G01X0012050Y0008901D03*
G01X0010791Y0015318D03*
G01X0010791Y0014728D03*
G01X0012700Y0014728D03*
G01X0013291Y0014728D03*
G01X0014019Y0014373D03*
G01X0014609Y0014373D03*
G01X0015672Y0013546D03*
G01X0015672Y0012956D03*
G01X0014019Y0009255D03*
G01X0014609Y0009255D03*
G01X0015672Y0010082D03*
G01X0015672Y0010672D03*
G54D16*
G01X0017838Y0016184D03*
G01X0018940Y0016184D03*
G01X0017838Y0015357D03*
G01X0018940Y0015357D03*
G01X0017838Y0007444D03*
G01X0018940Y0007444D03*
G01X0017838Y0008271D03*
G01X0018940Y0008271D03*
G54D17*
G01X0020732Y0017169D03*
G01X0020141Y0017169D03*
G01X0020732Y0012365D03*
G01X0020141Y0012365D03*
G01X0020732Y0006460D03*
G01X0020141Y0006460D03*
G01X0020732Y0011263D03*
G01X0020141Y0011263D03*
G54D14*
G01X0017050Y0018035D03*
G01X0018940Y0018035D03*
G01X0017050Y0013507D03*
G01X0018940Y0013507D03*
G01X0017050Y0005594D03*
G01X0018940Y0005594D03*
G01X0017050Y0010121D03*
G01X0018940Y0010121D03*
G54D17*
G01X0007798Y0009334D03*
G01X0008389Y0009334D03*
G01X0007798Y0008704D03*
G01X0008389Y0008704D03*
G01X0007877Y0014137D03*
G01X0007877Y0014728D03*
G01X0007798Y0008074D03*
G01X0008389Y0008074D03*
G54D11*
G01X0014373Y0012956D03*
G01X0014176Y0012956D03*
G01X0013980Y0012956D03*
G01X0013783Y0012956D03*
G01X0013586Y0012956D03*
G01X0013389Y0012956D03*
G01X0013192Y0012956D03*
G01X0012995Y0012956D03*
G01X0012798Y0012956D03*
G01X0012602Y0012956D03*
G01X0012405Y0012956D03*
G01X0012208Y0012956D03*
G01X0012011Y0012956D03*
G01X0011814Y0012956D03*
G01X0011617Y0012956D03*
G01X0011420Y0012956D03*
G01X0011224Y0012956D03*
G01X0011027Y0012956D03*
G01X0010830Y0012956D03*
G01X0010830Y0010672D03*
G01X0011027Y0010672D03*
G01X0011224Y0010672D03*
G01X0011420Y0010672D03*
G01X0011617Y0010672D03*
G01X0011814Y0010672D03*
G01X0012011Y0010672D03*
G01X0012208Y0010672D03*
G01X0012405Y0010672D03*
G01X0012602Y0010672D03*
G01X0012798Y0010672D03*
G01X0012995Y0010672D03*
G01X0013192Y0010672D03*
G01X0013389Y0010672D03*
G01X0013586Y0010672D03*
G01X0013783Y0010672D03*
G01X0013980Y0010672D03*
G01X0014176Y0010672D03*
G01X0014373Y0010672D03*
G54D10*
G01X0012602Y0011814D03*
M02*
