G04 DipTrace 3.1.0.1*
G04 tas5806mROUTE.TopAssy.gbr*
%MOIN*%
G04 #@! TF.FileFunction,Drawing,Top*
G04 #@! TF.Part,Single*
%ADD10C,0.009843*%
%ADD28C,0.023622*%
%ADD67C,0.006176*%
%FSLAX26Y26*%
G04*
G70*
G90*
G75*
G01*
G04 TopAssy*
%LPD*%
X1681408Y1921562D2*
D10*
X1917647D1*
Y1685342D1*
X1681408D1*
Y1921562D1*
Y1468806D2*
X1917647D1*
Y1232586D1*
X1681408D1*
Y1468806D1*
Y677468D2*
X1917647D1*
Y441247D1*
X1681408D1*
Y677468D1*
Y1130224D2*
X1917647D1*
Y894003D1*
X1681408D1*
Y1130224D1*
D28*
X1390079Y1224729D3*
Y1181417D3*
Y1138106D3*
X1346772Y1224729D3*
Y1181417D3*
Y1138106D3*
X1303465Y1224729D3*
Y1181417D3*
Y1138106D3*
X1260157Y1224729D3*
Y1181417D3*
Y1138106D3*
X1216850Y1224729D3*
Y1181417D3*
Y1138106D3*
X1173543Y1224729D3*
Y1181417D3*
Y1138106D3*
X1130236Y1224729D3*
Y1181417D3*
Y1138106D3*
X1086929Y1224729D3*
Y1181417D3*
Y1138106D3*
X1433386Y1224729D3*
Y1181417D3*
Y1138106D3*
X2261904Y1416339D2*
D67*
Y1412537D1*
X2263805Y1408690D1*
X2269553Y1406789D1*
X2302096D1*
X2275301Y1401041D2*
Y1414438D1*
Y1428691D2*
X2302096D1*
X2286797D2*
X2281049Y1430636D1*
X2277202Y1434439D1*
X2275301Y1438285D1*
Y1444033D1*
Y1465935D2*
X2277202Y1462133D1*
X2281049Y1458286D1*
X2286797Y1456385D1*
X2290600D1*
X2296348Y1458286D1*
X2300150Y1462133D1*
X2302096Y1465935D1*
Y1471683D1*
X2300150Y1475530D1*
X2296348Y1479333D1*
X2290600Y1481278D1*
X2286797D1*
X2281049Y1479333D1*
X2277202Y1475530D1*
X2275301Y1471683D1*
Y1465935D1*
Y1493630D2*
X2302096D1*
X2282950D2*
X2277202Y1499378D1*
X2275301Y1503224D1*
Y1508928D1*
X2277202Y1512775D1*
X2282950Y1514676D1*
X2302096D1*
X2261904Y1532776D2*
X2294446D1*
X2300150Y1534677D1*
X2302096Y1538524D1*
Y1542326D1*
X2275301Y1527028D2*
Y1540425D1*
X2261904Y825788D2*
Y821986D1*
X2263805Y818139D1*
X2269553Y816238D1*
X2302096D1*
X2275301Y810490D2*
Y823887D1*
Y838140D2*
X2302096Y838139D1*
X2286797Y838140D2*
X2281049Y840085D1*
X2277202Y843888D1*
X2275301Y847734D1*
Y853482D1*
Y875384D2*
X2277202Y871582D1*
X2281049Y867735D1*
X2286797Y865834D1*
X2290600D1*
X2296348Y867735D1*
X2300150Y871582D1*
X2302096Y875384D1*
Y881132D1*
X2300150Y884979D1*
X2296348Y888782D1*
X2290600Y890727D1*
X2286797D1*
X2281049Y888782D1*
X2277202Y884979D1*
X2275301Y881132D1*
Y875384D1*
Y903078D2*
X2302096D1*
X2282950D2*
X2277202Y908826D1*
X2275301Y912673D1*
Y918377D1*
X2277202Y922224D1*
X2282950Y924125D1*
X2302096D1*
X2261904Y942225D2*
X2294446D1*
X2300150Y944126D1*
X2302096Y947973D1*
Y951775D1*
X2275301Y936476D2*
Y949874D1*
M02*
