G04 DipTrace 3.1.0.1*
G04 tas5806mROUTE.Top.gbr*
%MOIN*%
G04 #@! TF.FileFunction,Copper,L1,Top*
G04 #@! TF.Part,Single*
G04 #@! TA.AperFunction,Conductor*
%ADD10C,0.009843*%
%ADD14C,0.019685*%
%ADD15C,0.03937*%
G04 #@! TA.AperFunction,CopperBalancing*
%ADD16C,0.003937*%
%ADD17C,0.011811*%
G04 #@! TA.AperFunction,ComponentPad*
%ADD19R,0.059055X0.059055*%
%ADD20C,0.059055*%
%ADD21R,0.051181X0.043307*%
%ADD22R,0.031496X0.031496*%
%ADD23R,0.047244X0.062992*%
G04 #@! TA.AperFunction,ComponentPad*
%ADD24O,0.07X0.06*%
%ADD25R,0.094488X0.228346*%
G04 #@! TA.AperFunction,ComponentPad*
%ADD26C,0.094488*%
%ADD27O,0.06X0.07*%
%ADD29R,0.011811X0.059055*%
%ADD30R,0.185039X0.114173*%
G04 #@! TA.AperFunction,ViaPad*
%ADD31C,0.023622*%
%ADD32C,0.031496*%
%FSLAX26Y26*%
G04*
G70*
G90*
G75*
G01*
G04 Top*
%LPD*%
X2014094Y1716850D2*
D10*
X1980630D1*
X1894016Y1803465D1*
Y1618425D2*
Y1803465D1*
Y1618425D2*
Y1606614D1*
X2157795D1*
X2189291Y1575118D1*
X1894016Y1535748D2*
Y1350709D1*
X2189291Y1378268D2*
X1921575D1*
X1894016Y1350709D1*
X2014094Y1236535D2*
X2008189D1*
X1894016Y1350709D1*
X1260157Y1295591D2*
Y1358583D1*
X1248346Y1370394D1*
X1157795Y1405827D2*
X795591D1*
X787717Y1413701D1*
X472756Y1331417D2*
X610945D1*
X685354Y1405827D1*
X787717D1*
Y1413701D1*
X1279843Y1067244D2*
Y964882D1*
X1205039Y890079D1*
X1378268Y1295591D2*
Y1331024D1*
X1460945Y1413701D1*
Y1437323D1*
X1437323Y1295591D2*
X1567244D1*
X1378268Y1067244D2*
Y1031811D1*
X1460945Y949134D1*
Y925512D1*
X1437323Y1067244D2*
X1567244D1*
X1279843Y1295591D2*
Y1394016D1*
X1201102Y1472756D1*
X787717D2*
D14*
X642047D1*
X583413Y1531390D1*
X472756D1*
X787717Y1472756D2*
X854646D1*
D10*
X862520Y1480630D1*
D14*
X886142D1*
X984567Y1579055D1*
X1138110D1*
X1201102Y1516063D1*
Y1472756D1*
X787717D2*
D10*
X732598D1*
Y1307402D2*
D14*
Y1142047D1*
X878268Y996378D1*
Y937323D2*
X838898D1*
Y933386D1*
X878268Y937323D2*
Y909764D1*
X838898Y870394D1*
X878268Y909764D2*
Y874331D1*
D10*
X842835D1*
X838898Y870394D1*
Y768031D2*
D14*
Y807402D1*
X1142047Y1472756D2*
Y1508189D1*
D10*
X1138110Y1512126D1*
X1079055Y1531811D2*
D14*
X1106614D1*
X1118425Y1543622D1*
X862520Y1555433D2*
X831024D1*
X811339Y1575118D1*
X831024Y1555433D2*
X811339Y1535748D1*
Y1575118D2*
Y1535748D1*
X1145984Y890079D2*
X1106614D1*
X1270000D2*
Y852677D1*
D10*
X1271969Y850709D1*
X1122362Y1295591D2*
Y1232598D1*
X1130236Y1224724D1*
X1161732Y1067244D2*
Y1126299D1*
X1173543Y1138110D1*
X1181417Y1067244D2*
Y1130236D1*
X1173543Y1138110D1*
X1299528Y1067244D2*
Y1134173D1*
X1303465Y1138110D1*
X1299528Y1295591D2*
Y1228661D1*
X1303465Y1224724D1*
X1220787Y1295591D2*
Y1228661D1*
X1216850Y1224724D1*
X1299528Y1067244D2*
Y945197D1*
X1271969Y917638D1*
Y892047D1*
X1270000Y890079D1*
X1783780Y1618425D2*
X1756220D1*
X1736535Y1638110D1*
X1783780Y1535748D2*
X1760157D1*
X1744409Y1520000D1*
X1736535D1*
Y1559370D1*
Y1598740D1*
Y1638110D1*
X1756220Y1618425D2*
X1736535Y1598740D1*
X1760157Y1535748D2*
X1736535Y1559370D1*
X2073150Y1716850D2*
Y1754252D1*
X2075118Y1756220D1*
X2073150Y1716850D2*
X2114488D1*
X2073150Y1236535D2*
D14*
X2114488D1*
X2073150D2*
D10*
Y1183386D1*
X2075118Y1181417D1*
X1783780Y827087D2*
X1752283D1*
X1736535Y842835D1*
X1783780Y827087D2*
X1760157D1*
X1736535Y803465D1*
X1783780Y744409D2*
X1756220D1*
X1736535Y764094D1*
X1756220Y744409D2*
X1736535Y724724D1*
Y764094D1*
Y803465D1*
Y842835D1*
X2073150Y1126299D2*
Y1179449D1*
X2075118Y1181417D1*
X2073150Y1126299D2*
D14*
X2114488D1*
X2073150Y645984D2*
D10*
X2114488D1*
X2073150D2*
Y608583D1*
X2071181Y606614D1*
X472756Y1431390D2*
D15*
X565248D1*
D10*
X567244Y1433386D1*
X1299528Y1295591D2*
Y1417638D1*
X1271969Y1445197D1*
Y1470787D1*
X1270000Y1472756D1*
D14*
Y1510157D1*
D10*
X1268031Y1512126D1*
X1201102Y1295591D2*
Y1346772D1*
X1165669Y1382205D1*
X693228D1*
X582458Y1271434D1*
G02X567147Y1271434I-7656J7657D01*
G01*
X560804Y1277777D1*
G03X545493Y1277777I-7656J-7657D01*
G01*
G03X545493Y1262466I7657J-7656D01*
G01*
X551836Y1256123D1*
G02X551836Y1240812I-7657J-7656D01*
G01*
X543622Y1232598D1*
X473937D1*
X472756Y1231417D1*
X1358583Y1295591D2*
Y1394016D1*
X1401890Y1437323D1*
X1417638Y1295591D2*
Y1331024D1*
X1441260Y1354646D1*
X1567244D1*
X1358583Y1067244D2*
Y968819D1*
X1401890Y925512D1*
Y862520D1*
X1705039Y559370D1*
X1260157Y1067244D2*
Y976693D1*
X1212913Y929449D1*
X1004252D1*
X897953Y823150D1*
Y488504D1*
X882205Y472756D1*
X982205D2*
Y494803D1*
X921575Y555433D1*
X874331D2*
Y677480D1*
X779843Y771969D1*
Y807402D1*
X1319213Y1295591D2*
Y1462913D1*
X1329055Y1472756D1*
X1338898Y1295591D2*
Y1462913D1*
X1329055Y1472756D1*
X1338898Y1067244D2*
Y899921D1*
X1329055Y890079D1*
X1319213Y1067244D2*
Y899921D1*
X1329055Y890079D1*
X472756Y1631390D2*
X908610D1*
X917638Y1622362D1*
X957008D1*
X996378D1*
X1279843D1*
X1295591Y1638110D1*
X964882Y795591D2*
X1004252D1*
X1043622D1*
Y756220D1*
X1295591Y724724D2*
X1075118D1*
X1043622Y756220D1*
X917638Y1622362D2*
Y1661732D1*
X957008D1*
X996378D1*
Y1622362D1*
X964882Y795591D2*
Y756220D1*
X1004252D1*
X1043622D1*
X779843Y870394D2*
X511732D1*
X472756Y831417D1*
X1240472Y1067244D2*
Y1000315D1*
X1189291Y949134D1*
X996378D1*
X890079Y842835D1*
X795591D1*
X768031Y870394D1*
X779843D1*
X472756Y1131417D2*
X473937D1*
X523701Y1181181D1*
G02X539013Y1181181I7656J-7654D01*
G01*
X545354Y1174840D1*
G03X560667Y1174840I7656J7654D01*
G01*
X561556Y1175730D1*
G03X561556Y1191042I-7654J7656D01*
G01*
X555215Y1197383D1*
G02X555215Y1212696I7654J7656D01*
G01*
X705039Y1362520D1*
X1157795D1*
X1181417Y1338898D1*
Y1295591D1*
X472756Y931417D2*
X777874D1*
X779843Y933386D1*
X1220787Y1067244D2*
Y1008189D1*
X1181417Y968819D1*
X803465D1*
X768031Y933386D1*
X779843D1*
X1161732Y1295591D2*
Y1331024D1*
X1149921Y1342835D1*
X712913D1*
X590866Y1220787D1*
Y1149528D1*
X472756Y1031417D1*
Y731417D2*
X643228D1*
X779843Y594803D1*
Y475118D1*
X782205Y472756D1*
X1240472Y1295591D2*
Y1342835D1*
X1185354Y1397953D1*
Y1413701D1*
X1169606Y1429449D1*
X1098740D1*
X1079055Y1449134D1*
Y1472756D1*
D31*
X1248346Y1370394D3*
X1157795Y1405827D3*
X1086929Y1224724D3*
Y1181417D3*
Y1138110D3*
X1130236Y1224724D3*
Y1181417D3*
Y1138110D3*
X1173543Y1224724D3*
Y1181417D3*
Y1138110D3*
X1216850Y1224724D3*
Y1181417D3*
Y1138110D3*
X1260157Y1224724D3*
Y1181417D3*
Y1138110D3*
X1303465Y1224724D3*
Y1181417D3*
Y1138110D3*
X1346772Y1224724D3*
Y1181417D3*
Y1138110D3*
X1390079Y1224724D3*
Y1181417D3*
Y1138110D3*
X1433386Y1224724D3*
Y1181417D3*
Y1138110D3*
X1476693Y1224724D3*
Y1181417D3*
Y1138110D3*
D32*
X732598Y1472756D3*
Y1307402D3*
X878268Y937323D3*
D31*
X1043622Y1224724D3*
Y1181417D3*
Y1138110D3*
D32*
X917638Y1661732D3*
X957008D3*
X996378D3*
Y1622362D3*
X957008D3*
X917638D3*
X964882Y795591D3*
X1004252D3*
X1043622D3*
Y756220D3*
X1004252D3*
X964882D3*
X878268Y996378D3*
Y874331D3*
X838898Y768031D3*
D31*
X921575Y555433D3*
X874331D3*
X1043622Y1268031D3*
Y1094803D3*
Y1311339D3*
Y1051496D3*
Y1008189D3*
X1086929D3*
X1130236D3*
D32*
X1118425Y1543622D3*
X1138110Y1512126D3*
X811339Y1575118D3*
Y1535748D3*
X1106614Y890079D3*
X1271969Y850709D3*
X897953Y1307402D3*
Y1248346D3*
Y1189291D3*
Y1130236D3*
Y1071181D3*
X838898Y1307402D3*
Y1248346D3*
Y1189291D3*
Y1130236D3*
X779843Y1248346D3*
Y1189291D3*
X594803Y972756D3*
X653858D3*
X712913D3*
X1535748Y1181417D3*
X1594803D3*
X1653858D3*
X1712913D3*
X1771969D3*
X1831024D3*
X1890079D3*
X1949134D3*
X1535748Y1457008D3*
X1594803Y1496378D3*
X1653858Y1535748D3*
X1268031Y1512126D3*
X689291Y1890079D3*
X748346D3*
X807402D3*
X866457D3*
X925512D3*
X984567D3*
X1043622D3*
X1102677D3*
X1161732D3*
X1220787D3*
X1279843D3*
X1338898D3*
X1397953D3*
X1457008D3*
X1516063D3*
X1575118D3*
X689291Y1752283D3*
X748346D3*
X807402D3*
X866457D3*
X925512D3*
X984567D3*
X1043622D3*
X1102677D3*
X1161732D3*
X1220787D3*
X1279843D3*
X1338898D3*
X1397953D3*
X1457008D3*
X1736535Y1520000D3*
Y1559370D3*
Y1598740D3*
Y1638110D3*
X2075118Y1756220D3*
Y1181417D3*
X2114488Y1236535D3*
Y1716850D3*
X1736535Y842835D3*
Y803465D3*
Y764094D3*
Y724724D3*
X2114488Y1126299D3*
Y645984D3*
X2071181Y606614D3*
X594803Y1079055D3*
X653858D3*
X712913D3*
X1799528Y1752283D3*
X1535748Y905827D3*
X1594803Y866457D3*
X1653858Y827087D3*
X1004252Y630236D3*
X1122362D3*
X1063307D3*
X1240472D3*
X945197D3*
X1181417D3*
X1358583D3*
X1476693D3*
X1417638D3*
X567244Y1433386D3*
X1299528Y630236D3*
X1799528Y1850709D3*
X2283780Y689291D3*
Y787717D3*
Y886142D3*
Y984567D3*
Y1082992D3*
Y1181417D3*
Y1279843D3*
Y1378268D3*
Y1476693D3*
Y1575118D3*
Y1673543D3*
X1799528Y1295591D3*
Y1394016D3*
Y957008D3*
Y1055433D3*
Y500315D3*
Y598740D3*
X571181Y787717D3*
X669606D3*
X728661Y728661D3*
X787717Y669606D3*
X606614Y673543D3*
X665669Y614488D3*
X724724Y555433D3*
X1438667Y1360682D2*
D16*
X1580626D1*
X1434860Y1356877D2*
X1580626D1*
X1431054Y1353071D2*
X1580626D1*
X1427247Y1349265D2*
X1580626D1*
X1423441Y1345459D2*
X1580626D1*
X1419635Y1341654D2*
X1432965D1*
X1415828Y1337848D2*
X1429159D1*
X1414098Y1334042D2*
X1425353D1*
X1414098Y1330236D2*
X1421546D1*
X1414098Y1326430D2*
X1421177D1*
X1413709Y1325118D2*
X1421567D1*
X1421598Y1329364D1*
X1421789Y1329949D1*
X1422151Y1330448D1*
X1436165Y1344428D1*
X1436714Y1344707D1*
X1437323Y1344803D1*
X1581016D1*
X1581024Y1364480D1*
X1442083Y1364488D1*
X1413698Y1336112D1*
X1413701Y1325126D1*
X1383549Y1447297D2*
X1415272D1*
X1379741Y1443491D2*
X1415272D1*
X1375936Y1439685D2*
X1415272D1*
X1372129Y1435879D2*
X1415272D1*
X1368323Y1432073D2*
X1415272D1*
X1364517Y1428268D2*
X1415272D1*
X1360710Y1424462D2*
X1415272D1*
X1357012Y1420656D2*
X1415272D1*
X1357012Y1416850D2*
X1415272D1*
X1357012Y1413045D2*
X1415272D1*
X1357012Y1409239D2*
X1415272D1*
X1357012Y1405433D2*
X1414064D1*
X1357012Y1401627D2*
X1410259D1*
X1357012Y1397822D2*
X1406451D1*
X1357012Y1394016D2*
X1402646D1*
X1357012Y1390210D2*
X1398846D1*
X1357012Y1386404D2*
X1395041D1*
X1357012Y1382598D2*
X1391235D1*
X1357012Y1378793D2*
X1387428D1*
X1357012Y1374987D2*
X1383622D1*
X1357012Y1371181D2*
X1379815D1*
X1357012Y1367375D2*
X1376009D1*
X1357012Y1363570D2*
X1372203D1*
X1357012Y1359764D2*
X1368396D1*
X1357012Y1355958D2*
X1364591D1*
X1361710Y1352682D2*
X1415671Y1406643D1*
X1415669Y1451094D1*
X1386965Y1451102D1*
X1356614Y1420760D1*
Y1352685D1*
X1361697Y1352677D1*
X1655017Y1459108D2*
X1675114D1*
X1651050Y1455302D2*
X1675114D1*
X1647089Y1451496D2*
X1675114D1*
X1643122Y1447690D2*
X1675114D1*
X1639161Y1443885D2*
X1675114D1*
X1635194Y1440079D2*
X1675114D1*
X1631234Y1436273D2*
X1675114D1*
X1627266Y1432467D2*
X1675114D1*
X1623306Y1428661D2*
X1675114D1*
X1619339Y1424856D2*
X1675114D1*
X1615370Y1421050D2*
X1675114D1*
X1611409Y1417244D2*
X1675114D1*
X1607442Y1413438D2*
X1675114D1*
X1603482Y1409633D2*
X1675114D1*
X1599514Y1405827D2*
X1675114D1*
X1595554Y1402021D2*
X1675114D1*
X1591587Y1398215D2*
X1675114D1*
X1587626Y1394409D2*
X1675114D1*
X1583659Y1390604D2*
X1675114D1*
X1579692Y1386798D2*
X1675114D1*
X1575731Y1382992D2*
X1675114D1*
X1571764Y1379186D2*
X1675114D1*
X1567803Y1375381D2*
X1675114D1*
X1563836Y1371575D2*
X1675114D1*
X1561736Y1367769D2*
X1675114D1*
X1561736Y1363963D2*
X1675114D1*
X1561736Y1360157D2*
X1675114D1*
X1561736Y1356352D2*
X1675114D1*
X1561736Y1352546D2*
X1675114D1*
X1561736Y1348740D2*
X1675114D1*
X1561736Y1344934D2*
X1675114D1*
X1561736Y1341129D2*
X1675114D1*
X1586972Y1337323D2*
X1675114D1*
X1589756Y1333517D2*
X1675114D1*
X1592541Y1329711D2*
X1675114D1*
X1595316Y1325906D2*
X1675114D1*
X1598100Y1322100D2*
X1675114D1*
X1600883Y1318294D2*
X1675114D1*
X1603659Y1314488D2*
X1675114D1*
X1606442Y1310682D2*
X1675114D1*
X1609226Y1306877D2*
X1675114D1*
X1612003Y1303071D2*
X1675114D1*
X1614786Y1299265D2*
X1675114D1*
X1617570Y1295459D2*
X1675114D1*
X1620345Y1291654D2*
X1675114D1*
X1623129Y1287848D2*
X1675114D1*
X1625912Y1284042D2*
X1675114D1*
X1628689Y1280236D2*
X1675114D1*
X1631472Y1276430D2*
X1675114D1*
X1634256Y1272625D2*
X1675114D1*
X1637039Y1268819D2*
X1675114D1*
X1639815Y1265013D2*
X1675114D1*
X1642598Y1261207D2*
X1675114D1*
X1645382Y1257402D2*
X1675114D1*
X1648157Y1253596D2*
X1675114D1*
X1650942Y1249790D2*
X1675114D1*
X1653726Y1245984D2*
X1675114D1*
X1656501Y1242178D2*
X1675114D1*
X1584587Y1340052D2*
X1658791Y1238508D1*
X1675504Y1238504D1*
X1675512Y1462906D1*
X1658588Y1462913D1*
X1561336Y1369552D1*
X1561339Y1340874D1*
X1583301Y1340843D1*
X1583886Y1340652D1*
X1584385Y1340290D1*
X1584585Y1340054D1*
X1656424Y1911864D2*
X1679051D1*
X1653664Y1908058D2*
X1679051D1*
X1650903Y1904252D2*
X1679051D1*
X1648135Y1900446D2*
X1679051D1*
X1645374Y1896640D2*
X1679051D1*
X1642606Y1892835D2*
X1679051D1*
X1639845Y1889029D2*
X1679051D1*
X1637077Y1885223D2*
X1679051D1*
X1634318Y1881417D2*
X1679051D1*
X1631549Y1877612D2*
X1679051D1*
X1628789Y1873806D2*
X1679051D1*
X1626020Y1870000D2*
X1679051D1*
X1623260Y1866194D2*
X1679051D1*
X1620491Y1862388D2*
X1679051D1*
X1617731Y1858583D2*
X1679051D1*
X1614963Y1854777D2*
X1679051D1*
X1612202Y1850971D2*
X1679051D1*
X1609434Y1847165D2*
X1679051D1*
X1606673Y1843360D2*
X1679051D1*
X1603906Y1839554D2*
X1679051D1*
X1601144Y1835748D2*
X1679051D1*
X1598377Y1831942D2*
X1679051D1*
X1595615Y1828136D2*
X1679051D1*
X1592848Y1824331D2*
X1679051D1*
X1590087Y1820525D2*
X1679051D1*
X1587327Y1816719D2*
X1679051D1*
X1584559Y1812913D2*
X1679051D1*
X1581798Y1809108D2*
X1679051D1*
X1579030Y1805302D2*
X1679051D1*
X1576269Y1801496D2*
X1679051D1*
X1573501Y1797690D2*
X1679051D1*
X1570740Y1793885D2*
X1679051D1*
X1567972Y1790079D2*
X1679051D1*
X1565211Y1786273D2*
X1679051D1*
X1562444Y1782467D2*
X1679051D1*
X1559682Y1778661D2*
X1679051D1*
X1556915Y1774856D2*
X1679051D1*
X1554155Y1771050D2*
X1679051D1*
X1551386Y1767244D2*
X1679051D1*
X1548626Y1763438D2*
X1679051D1*
X1545857Y1759633D2*
X1679051D1*
X1543097Y1755827D2*
X1679051D1*
X1540328Y1752021D2*
X1679051D1*
X1537568Y1748215D2*
X1679051D1*
X1534801Y1744409D2*
X1679051D1*
X1532039Y1740604D2*
X1679051D1*
X1529280Y1736798D2*
X1679051D1*
X1526510Y1732992D2*
X1679051D1*
X1523751Y1729186D2*
X1679051D1*
X1520982Y1725381D2*
X1679051D1*
X1518222Y1721575D2*
X1679051D1*
X1515453Y1717769D2*
X1679051D1*
X1512693Y1713963D2*
X1679051D1*
X1509924Y1710157D2*
X1679051D1*
X1507164Y1706352D2*
X1679051D1*
X1504396Y1702546D2*
X1679051D1*
X1501635Y1698740D2*
X1679051D1*
X1498867Y1694934D2*
X1679051D1*
X1496106Y1691129D2*
X1679051D1*
X1493339Y1687323D2*
X1675875D1*
X1490577Y1683517D2*
X1671623D1*
X1487810Y1679711D2*
X1667379D1*
X1485049Y1675906D2*
X1663126D1*
X1482281Y1672100D2*
X1658874D1*
X1479520Y1668294D2*
X1654630D1*
X1476752Y1664488D2*
X1650377D1*
X1473992Y1660682D2*
X1646125D1*
X1471223Y1656877D2*
X1641873D1*
X1468463Y1653071D2*
X1637629D1*
X1465702Y1649265D2*
X1633375D1*
X1462934Y1645459D2*
X1629123D1*
X1460173Y1641654D2*
X1624879D1*
X1457406Y1637848D2*
X1620627D1*
X1454644Y1634042D2*
X1616374D1*
X1451877Y1630236D2*
X1612130D1*
X1449117Y1626430D2*
X1607878D1*
X1446348Y1622625D2*
X1603625D1*
X1443588Y1618819D2*
X1599381D1*
X1440819Y1615013D2*
X1595129D1*
X1438059Y1611207D2*
X1590877D1*
X1435290Y1607402D2*
X1586631D1*
X1432530Y1603596D2*
X1582379D1*
X1429761Y1599790D2*
X1578127D1*
X1427001Y1595984D2*
X1573882D1*
X1424234Y1592178D2*
X1569630D1*
X1421472Y1588373D2*
X1565378D1*
X1418705Y1584567D2*
X1561134D1*
X1415944Y1580761D2*
X1556881D1*
X1413176Y1576955D2*
X1552629D1*
X1410415Y1573150D2*
X1548385D1*
X1407647Y1569344D2*
X1544131D1*
X1404886Y1565538D2*
X1539879D1*
X1402126Y1561732D2*
X1535635D1*
X1399358Y1557927D2*
X1531383D1*
X1396597Y1554121D2*
X1527130D1*
X1393829Y1550315D2*
X1522886D1*
X1391068Y1546509D2*
X1518634D1*
X1388508Y1542703D2*
X1514382D1*
X1388508Y1538898D2*
X1510136D1*
X1388508Y1535092D2*
X1505885D1*
X1388508Y1531286D2*
X1501633D1*
X1388508Y1527480D2*
X1497387D1*
X1388508Y1523675D2*
X1493135D1*
X1388508Y1519869D2*
X1488883D1*
X1388508Y1516063D2*
X1484631D1*
X1388508Y1512257D2*
X1480386D1*
X1388508Y1508451D2*
X1476134D1*
X1388508Y1504646D2*
X1471882D1*
X1388508Y1500840D2*
X1467636D1*
X1388508Y1497034D2*
X1463385D1*
X1388508Y1493228D2*
X1459133D1*
X1388508Y1489423D2*
X1454888D1*
X1388508Y1485617D2*
X1450635D1*
X1388508Y1481811D2*
X1446383D1*
X1388508Y1478005D2*
X1442139D1*
X1388508Y1474199D2*
X1437886D1*
X1388508Y1470394D2*
X1433634D1*
X1388508Y1466588D2*
X1429390D1*
X1388508Y1462782D2*
X1425138D1*
X1388508Y1458976D2*
X1420885D1*
X1388508Y1455171D2*
X1416640D1*
X1388508Y1451365D2*
X1415272D1*
X1388508Y1447559D2*
X1415272D1*
X1388508Y1443753D2*
X1415272D1*
X1388508Y1439948D2*
X1415272D1*
X1388110Y1542984D2*
Y1439299D1*
X1415661Y1439291D1*
X1415693Y1453379D1*
X1415883Y1453965D1*
X1416247Y1454463D1*
X1679445Y1690168D1*
X1679449Y1915661D1*
X1658803Y1915669D1*
X1388113Y1542986D1*
X471185Y1671706D2*
X1320783D1*
X471185Y1667900D2*
X1320783D1*
X471185Y1664094D2*
X1320783D1*
X471185Y1660289D2*
X1320783D1*
X471185Y1656483D2*
X1320783D1*
X471185Y1652677D2*
X1320783D1*
X471185Y1648871D2*
X1320783D1*
X471185Y1645066D2*
X1320783D1*
X471185Y1641260D2*
X1320783D1*
X471185Y1637454D2*
X1320783D1*
X471185Y1633648D2*
X1320783D1*
X471185Y1629843D2*
X1320783D1*
X471185Y1626037D2*
X1320783D1*
X471185Y1622231D2*
X1320783D1*
X471185Y1618425D2*
X1320783D1*
X471185Y1614619D2*
X1320783D1*
X471185Y1610814D2*
X1320783D1*
X471185Y1607008D2*
X1320783D1*
X470795Y1604646D2*
X1321173D1*
X1321181Y1675504D1*
X470795Y1675512D1*
X470787Y1604654D1*
X939689Y809501D2*
X1160388D1*
X939689Y805696D2*
X1164196D1*
X939689Y801890D2*
X1168001D1*
X939689Y798084D2*
X1171808D1*
X939689Y794278D2*
X1175614D1*
X939689Y790472D2*
X1179420D1*
X939689Y786667D2*
X1183227D1*
X939689Y782861D2*
X1187033D1*
X939689Y779055D2*
X1190839D1*
X939689Y775249D2*
X1194646D1*
X939689Y771444D2*
X1198451D1*
X939689Y767638D2*
X1202259D1*
X939689Y763832D2*
X1206064D1*
X939689Y760026D2*
X1209870D1*
X939689Y756220D2*
X1213669D1*
X939689Y752415D2*
X1217475D1*
X939689Y748609D2*
X1320783D1*
X939689Y744803D2*
X1320783D1*
X939689Y740997D2*
X1320783D1*
X1054016Y737192D2*
X1320783D1*
X1057823Y733386D2*
X1320783D1*
X1061629Y729580D2*
X1320783D1*
X1065434Y725774D2*
X1320783D1*
X1069241Y721969D2*
X1320783D1*
X1073047Y718163D2*
X1320783D1*
X1076853Y714357D2*
X1320783D1*
X1080660Y710551D2*
X1320783D1*
X1084466Y706745D2*
X1320783D1*
X1088273Y702940D2*
X1320783D1*
X939291Y813299D2*
Y738512D1*
X1051651Y738497D1*
X1052249Y738354D1*
X1052774Y738033D1*
X1091682Y699133D1*
X1321173Y699134D1*
X1321181Y750307D1*
X1220633Y750322D1*
X1220034Y750465D1*
X1219509Y750786D1*
X1156980Y813306D1*
X939299Y813307D1*
X522266Y1935486D2*
X2234262D1*
X511393Y1931680D2*
X2184588D1*
X2225491D2*
X2245142D1*
X500520Y1927874D2*
X1643464D1*
X1766614D2*
X1832441D1*
X1955591D2*
X2169809D1*
X2240270D2*
X2256015D1*
X492662Y1924068D2*
X1643464D1*
X1766614D2*
X1832441D1*
X1955591D2*
X2159966D1*
X2250113D2*
X2263874D1*
X486602Y1920262D2*
X533313D1*
X569679D2*
X1642080D1*
X1766614D2*
X1832441D1*
X1955814D2*
X2152207D1*
X2257871D2*
X2269933D1*
X480543Y1916457D2*
X517472D1*
X585520D2*
X1639320D1*
X1766614D2*
X1832441D1*
X1957598D2*
X2145702D1*
X2264377D2*
X2275985D1*
X474491Y1912651D2*
X507322D1*
X595670D2*
X1636552D1*
X1766614D2*
X1832441D1*
X1959374D2*
X2140066D1*
X2270013D2*
X2282044D1*
X469839Y1908845D2*
X499395D1*
X603598D2*
X1633791D1*
X1766614D2*
X1832441D1*
X1961158D2*
X2135098D1*
X2274980D2*
X2286688D1*
X466041Y1905039D2*
X492782D1*
X610211D2*
X1631023D1*
X1766614D2*
X1832441D1*
X1962942D2*
X2130654D1*
X2279425D2*
X2290495D1*
X462234Y1901234D2*
X487076D1*
X615916D2*
X1628262D1*
X1766614D2*
X1832441D1*
X1964718D2*
X2126648D1*
X2283431D2*
X2294301D1*
X458428Y1897428D2*
X482039D1*
X620953D2*
X1625494D1*
X1766614D2*
X1832441D1*
X1966502D2*
X2123010D1*
X2287068D2*
X2298107D1*
X454622Y1893622D2*
X477549D1*
X625443D2*
X1622734D1*
X1766614D2*
X1832441D1*
X1968286D2*
X2119704D1*
X2290375D2*
X2301914D1*
X451254Y1889816D2*
X473496D1*
X629496D2*
X1619965D1*
X1766614D2*
X1832441D1*
X1970062D2*
X2116690D1*
X2293389D2*
X2305282D1*
X448862Y1886010D2*
X469829D1*
X633164D2*
X1617205D1*
X1766614D2*
X1832441D1*
X1971846D2*
X2113929D1*
X2296150D2*
X2307673D1*
X446471Y1882205D2*
X466491D1*
X636501D2*
X1614444D1*
X1766614D2*
X1832441D1*
X1973630D2*
X2111407D1*
X2298672D2*
X2310064D1*
X444080Y1878399D2*
X463446D1*
X639546D2*
X1293686D1*
X1297497D2*
X1611676D1*
X1766614D2*
X1832441D1*
X1975406D2*
X2109100D1*
X2300979D2*
X2312456D1*
X441688Y1874593D2*
X460663D1*
X642329D2*
X1277353D1*
X1313828D2*
X1608916D1*
X1766614D2*
X1832441D1*
X1977190D2*
X2107001D1*
X2303078D2*
X2314847D1*
X439297Y1870787D2*
X458117D1*
X644875D2*
X1270587D1*
X1320594D2*
X1606147D1*
X1766614D2*
X1832441D1*
X1978974D2*
X2105086D1*
X2304992D2*
X2317239D1*
X436905Y1866982D2*
X455788D1*
X647205D2*
X1265804D1*
X1325377D2*
X1603387D1*
X1766614D2*
X1832441D1*
X1980751D2*
X2103356D1*
X2306723D2*
X2319630D1*
X435521Y1863176D2*
X453665D1*
X649327D2*
X1262136D1*
X1329045D2*
X1600619D1*
X1766614D2*
X1832441D1*
X1982535D2*
X2101795D1*
X2308284D2*
X2321022D1*
X434183Y1859370D2*
X451735D1*
X651257D2*
X1259237D1*
X1331944D2*
X1597858D1*
X1766614D2*
X1832441D1*
X1984319D2*
X2100388D1*
X2309691D2*
X2322352D1*
X432853Y1855564D2*
X449982D1*
X653010D2*
X1256923D1*
X1334259D2*
X1595090D1*
X1766614D2*
X1832441D1*
X1986095D2*
X2099142D1*
X2310936D2*
X2323682D1*
X431523Y1851759D2*
X448406D1*
X654586D2*
X1255108D1*
X1336073D2*
X1592329D1*
X1766614D2*
X1832441D1*
X1987879D2*
X2098050D1*
X2312028D2*
X2325013D1*
X430192Y1847953D2*
X446983D1*
X656009D2*
X1253716D1*
X1337465D2*
X1589561D1*
X1766614D2*
X1832441D1*
X1989663D2*
X2097105D1*
X2312974D2*
X2326343D1*
X428862Y1844147D2*
X445722D1*
X657270D2*
X1252716D1*
X1338465D2*
X1586801D1*
X1766614D2*
X1832441D1*
X1991439D2*
X2096297D1*
X2313782D2*
X2327673D1*
X427524Y1840341D2*
X444615D1*
X658377D2*
X1252063D1*
X1339118D2*
X1584033D1*
X1766614D2*
X1832441D1*
X1993223D2*
X2095628D1*
X2314451D2*
X2329011D1*
X426963Y1836535D2*
X443646D1*
X659346D2*
X1251763D1*
X1339418D2*
X1581272D1*
X1766614D2*
X1832441D1*
X1995007D2*
X2095090D1*
X2314989D2*
X2329573D1*
X426532Y1832730D2*
X442831D1*
X660161D2*
X1251786D1*
X1339395D2*
X1578504D1*
X1766614D2*
X1832441D1*
X1996783D2*
X2094698D1*
X2315381D2*
X2330003D1*
X426109Y1828924D2*
X442146D1*
X660846D2*
X1252155D1*
X1339026D2*
X1575743D1*
X1766614D2*
X1832441D1*
X1998567D2*
X2094429D1*
X2315650D2*
X2330434D1*
X425679Y1825118D2*
X441600D1*
X661392D2*
X1252862D1*
X1338319D2*
X1572975D1*
X1766614D2*
X1832441D1*
X2000351D2*
X2094298D1*
X2315781D2*
X2330857D1*
X425248Y1821312D2*
X441185D1*
X661807D2*
X1253931D1*
X1337250D2*
X1570215D1*
X1766614D2*
X1832441D1*
X2002127D2*
X2094290D1*
X2315788D2*
X2331287D1*
X424817Y1817507D2*
X440908D1*
X662084D2*
X1255392D1*
X1335789D2*
X1567446D1*
X1766614D2*
X1832441D1*
X2003911D2*
X2094421D1*
X2315658D2*
X2331718D1*
X424395Y1813701D2*
X440762D1*
X662230D2*
X1257284D1*
X1333897D2*
X1564686D1*
X1766614D2*
X1832441D1*
X2005695D2*
X2094682D1*
X2315396D2*
X2332149D1*
X423964Y1809895D2*
X440747D1*
X662245D2*
X1259691D1*
X1331490D2*
X1561918D1*
X1766614D2*
X1832441D1*
X2007472D2*
X2095075D1*
X2315004D2*
X2332572D1*
X423941Y1806089D2*
X440862D1*
X662130D2*
X1262705D1*
X1328476D2*
X1559157D1*
X1766614D2*
X1832441D1*
X2009256D2*
X2095605D1*
X2314474D2*
X2332595D1*
X423941Y1802283D2*
X441108D1*
X661884D2*
X1266534D1*
X1324647D2*
X1556389D1*
X1766614D2*
X1832441D1*
X2011039D2*
X2096266D1*
X2313812D2*
X2332595D1*
X423941Y1798478D2*
X441485D1*
X661507D2*
X1271571D1*
X1319610D2*
X1553628D1*
X1766614D2*
X1832441D1*
X2012816D2*
X2097074D1*
X2313005D2*
X2332595D1*
X423941Y1794672D2*
X442000D1*
X660992D2*
X1278891D1*
X1312290D2*
X1550868D1*
X1766614D2*
X1832441D1*
X2014600D2*
X2098012D1*
X2312067D2*
X2332595D1*
X423941Y1790866D2*
X442654D1*
X660338D2*
X1548100D1*
X1766614D2*
X1832441D1*
X2016384D2*
X2099104D1*
X2310975D2*
X2332595D1*
X423941Y1787060D2*
X443438D1*
X659554D2*
X1545339D1*
X1766614D2*
X1832441D1*
X2018160D2*
X2100342D1*
X2309737D2*
X2332595D1*
X423941Y1783255D2*
X444369D1*
X658623D2*
X1542571D1*
X1766614D2*
X1832441D1*
X2019944D2*
X2101741D1*
X2308337D2*
X2332595D1*
X423941Y1779449D2*
X445445D1*
X657547D2*
X1539810D1*
X1766614D2*
X1832441D1*
X2021728D2*
X2103302D1*
X2306776D2*
X2332595D1*
X423941Y1775643D2*
X446668D1*
X656324D2*
X1537042D1*
X1766614D2*
X1832441D1*
X2023504D2*
X2105025D1*
X2305054D2*
X2332595D1*
X423941Y1771837D2*
X448044D1*
X654948D2*
X1534282D1*
X1766614D2*
X1832441D1*
X2025288D2*
X2106932D1*
X2303147D2*
X2332595D1*
X423941Y1768031D2*
X449590D1*
X653402D2*
X1531513D1*
X1766614D2*
X1832441D1*
X2027072D2*
X2109023D1*
X2301055D2*
X2332595D1*
X423941Y1764226D2*
X451297D1*
X651695D2*
X1528753D1*
X1766614D2*
X1832441D1*
X2028848D2*
X2111322D1*
X2298756D2*
X2332595D1*
X423941Y1760420D2*
X453181D1*
X649811D2*
X1525985D1*
X1766614D2*
X1832441D1*
X2030632D2*
X2113837D1*
X2296242D2*
X2332595D1*
X423941Y1756614D2*
X455257D1*
X647735D2*
X1523224D1*
X1766614D2*
X1832441D1*
X2032416D2*
X2116590D1*
X2293489D2*
X2332595D1*
X423941Y1752808D2*
X457533D1*
X645459D2*
X1520456D1*
X1766614D2*
X1832441D1*
X2034192D2*
X2119596D1*
X2290482D2*
X2332595D1*
X423941Y1749003D2*
X460024D1*
X642968D2*
X1517695D1*
X1766614D2*
X1832441D1*
X2035976D2*
X2122895D1*
X2287184D2*
X2332595D1*
X423941Y1745197D2*
X462747D1*
X640246D2*
X1514927D1*
X1766614D2*
X1832441D1*
X2103229D2*
X2126517D1*
X2283562D2*
X2332595D1*
X423941Y1741391D2*
X465730D1*
X637262D2*
X1512167D1*
X1766614D2*
X1832441D1*
X2103229D2*
X2130508D1*
X2279571D2*
X2332595D1*
X423941Y1737585D2*
X468998D1*
X633994D2*
X1509399D1*
X1766614D2*
X1832441D1*
X2103229D2*
X2134937D1*
X2275142D2*
X2332595D1*
X423941Y1733780D2*
X472581D1*
X630411D2*
X1506638D1*
X1766614D2*
X1832441D1*
X2103229D2*
X2139881D1*
X2270198D2*
X2332595D1*
X423941Y1729974D2*
X476534D1*
X626458D2*
X1503870D1*
X1766614D2*
X1832441D1*
X2103229D2*
X2145494D1*
X2264584D2*
X2332595D1*
X423941Y1726168D2*
X480909D1*
X622083D2*
X1501109D1*
X1766614D2*
X1832441D1*
X2103229D2*
X2151961D1*
X2258117D2*
X2332595D1*
X423941Y1722362D2*
X485800D1*
X617193D2*
X1498341D1*
X1766614D2*
X1832441D1*
X2103229D2*
X2159666D1*
X2250413D2*
X2332595D1*
X423941Y1718556D2*
X491336D1*
X611656D2*
X1495581D1*
X1766614D2*
X1832441D1*
X2103229D2*
X2169416D1*
X2240662D2*
X2332595D1*
X423941Y1714751D2*
X497703D1*
X605289D2*
X1492812D1*
X1766614D2*
X1832441D1*
X2103229D2*
X2183896D1*
X2226183D2*
X2332595D1*
X423941Y1710945D2*
X505254D1*
X597738D2*
X1490052D1*
X1766614D2*
X1832441D1*
X2103229D2*
X2332595D1*
X423941Y1707139D2*
X514720D1*
X588272D2*
X1487291D1*
X1766614D2*
X1832441D1*
X2103229D2*
X2332595D1*
X423941Y1703333D2*
X528392D1*
X574601D2*
X1484523D1*
X1766614D2*
X1832441D1*
X2103229D2*
X2332595D1*
X423941Y1699528D2*
X1481763D1*
X1766614D2*
X1832441D1*
X2103229D2*
X2332595D1*
X423941Y1695722D2*
X1478994D1*
X1766614D2*
X1832441D1*
X2103229D2*
X2332602D1*
X423941Y1691916D2*
X1476234D1*
X1766614D2*
X1832441D1*
X2103229D2*
X2332602D1*
X423941Y1688110D2*
X459409D1*
X1352244D2*
X1473466D1*
X1766614D2*
X1832441D1*
X2103229D2*
X2332602D1*
X423941Y1684304D2*
X456272D1*
X1355382D2*
X1470705D1*
X1766614D2*
X1832441D1*
X2071579D2*
X2332602D1*
X423941Y1680499D2*
X454819D1*
X1356835D2*
X1467937D1*
X1766614D2*
X1832441D1*
X2076331D2*
X2332602D1*
X423941Y1676693D2*
X454488D1*
X1357166D2*
X1465176D1*
X1766614D2*
X1832441D1*
X2081091D2*
X2332602D1*
X423941Y1672887D2*
X452927D1*
X1357166D2*
X1462408D1*
X1684383D2*
X1839454D1*
X2085850D2*
X2332602D1*
X423941Y1669081D2*
X444784D1*
X1357166D2*
X1459648D1*
X1680131D2*
X1841530D1*
X2090602D2*
X2332602D1*
X423941Y1665276D2*
X439394D1*
X1357166D2*
X1456879D1*
X1675886D2*
X1843598D1*
X2095362D2*
X2332602D1*
X423941Y1661470D2*
X435334D1*
X1357166D2*
X1454119D1*
X1671634D2*
X1745827D1*
X1821732D2*
X1845674D1*
X2100122D2*
X2332602D1*
X423941Y1657664D2*
X432150D1*
X1357166D2*
X1451351D1*
X1667382D2*
X1745827D1*
X1821732D2*
X1847751D1*
X2104874D2*
X2332602D1*
X423941Y1653858D2*
X429605D1*
X1357166D2*
X1448590D1*
X1663137D2*
X1745827D1*
X1821732D2*
X1849827D1*
X2109634D2*
X2332602D1*
X423941Y1650052D2*
X427583D1*
X1357166D2*
X1445822D1*
X1658885D2*
X1745827D1*
X1821732D2*
X1851903D1*
X2114394D2*
X2332602D1*
X423941Y1646247D2*
X426019D1*
X1357166D2*
X1443061D1*
X1654633D2*
X1745827D1*
X1821732D2*
X1853979D1*
X2119146D2*
X2332602D1*
X1357166Y1642441D2*
X1440293D1*
X1650388D2*
X1745827D1*
X1821732D2*
X1856055D1*
X2123905D2*
X2332602D1*
X1357166Y1638635D2*
X1437533D1*
X1646136D2*
X1745827D1*
X1821732D2*
X1856063D1*
X2128665D2*
X2332602D1*
X1357166Y1634829D2*
X1434765D1*
X1641883D2*
X1745827D1*
X1821732D2*
X1856063D1*
X2203015D2*
X2332602D1*
X1357166Y1631024D2*
X1432004D1*
X1637639D2*
X1745827D1*
X1821732D2*
X1856063D1*
X2214541D2*
X2332602D1*
X1357166Y1627218D2*
X1429244D1*
X1633387D2*
X1745827D1*
X1821732D2*
X1856063D1*
X2221762D2*
X2332602D1*
X1357166Y1623412D2*
X1426475D1*
X1629134D2*
X1745827D1*
X1821732D2*
X1856063D1*
X2227244D2*
X2332602D1*
X1357166Y1619606D2*
X1423715D1*
X1624890D2*
X1745827D1*
X1821732D2*
X1856063D1*
X2231681D2*
X2332602D1*
X423941Y1615801D2*
X426280D1*
X1357166D2*
X1420947D1*
X1620637D2*
X1745827D1*
X1821732D2*
X1856063D1*
X2235380D2*
X2332602D1*
X423941Y1611995D2*
X427936D1*
X1357166D2*
X1418186D1*
X1616385D2*
X1745827D1*
X1821732D2*
X1856063D1*
X2238502D2*
X2332602D1*
X423941Y1608189D2*
X430051D1*
X1357166D2*
X1415418D1*
X1612141D2*
X1745827D1*
X1821732D2*
X1856063D1*
X2241154D2*
X2332602D1*
X423941Y1604383D2*
X432704D1*
X1357166D2*
X1412657D1*
X1607888D2*
X1745827D1*
X1821732D2*
X1856063D1*
X2243415D2*
X2332602D1*
X423941Y1600577D2*
X436041D1*
X1357166D2*
X1409889D1*
X1603636D2*
X1745827D1*
X1821732D2*
X1856063D1*
X2245314D2*
X2332602D1*
X423941Y1596772D2*
X440309D1*
X1357166D2*
X1407129D1*
X1599391D2*
X1745827D1*
X1821732D2*
X1856063D1*
X2246906D2*
X2332602D1*
X423941Y1592966D2*
X446053D1*
X1357166D2*
X1404360D1*
X1595139D2*
X1745827D1*
X1821732D2*
X1856063D1*
X2248206D2*
X2332602D1*
X423941Y1589160D2*
X455234D1*
X1357166D2*
X1401600D1*
X1590887D2*
X1745827D1*
X1821732D2*
X1856063D1*
X2249236D2*
X2332602D1*
X423941Y1585354D2*
X822598D1*
X902441D2*
X956841D1*
X1165836D2*
X1265250D1*
X1357166D2*
X1398832D1*
X1586642D2*
X1745827D1*
X1821732D2*
X1856063D1*
X2250005D2*
X2332602D1*
X423941Y1581549D2*
X822598D1*
X902441D2*
X953035D1*
X1169642D2*
X1269057D1*
X1357166D2*
X1396071D1*
X1582390D2*
X1745827D1*
X1821732D2*
X1856063D1*
X2250528D2*
X2332602D1*
X423941Y1577743D2*
X822598D1*
X902441D2*
X949228D1*
X1173449D2*
X1272863D1*
X1357166D2*
X1393303D1*
X1578138D2*
X1745827D1*
X1821732D2*
X1856063D1*
X2250812D2*
X2332602D1*
X423941Y1573937D2*
X456403D1*
X489109D2*
X822598D1*
X902441D2*
X945422D1*
X1177255D2*
X1276669D1*
X1357166D2*
X1390542D1*
X1573893D2*
X1745827D1*
X1821732D2*
X1856063D1*
X2250851D2*
X2332602D1*
X423941Y1570131D2*
X446637D1*
X498875D2*
X822598D1*
X902441D2*
X941624D1*
X1181054D2*
X1280475D1*
X1357166D2*
X1387774D1*
X1569641D2*
X1745827D1*
X1821732D2*
X1856063D1*
X1939558D2*
X1963408D1*
X2250666D2*
X2332602D1*
X423941Y1566325D2*
X440716D1*
X504796D2*
X822598D1*
X902441D2*
X937817D1*
X1184860D2*
X1284282D1*
X1357166D2*
X1385014D1*
X1565389D2*
X1745827D1*
X1821732D2*
X1856063D1*
X1945587D2*
X1975334D1*
X2250228D2*
X2332602D1*
X423941Y1562520D2*
X436356D1*
X509156D2*
X822598D1*
X902441D2*
X934011D1*
X1188666D2*
X1288088D1*
X1357166D2*
X1382245D1*
X1561144D2*
X1745827D1*
X1821732D2*
X1856063D1*
X1951615D2*
X1987261D1*
X2249551D2*
X2332602D1*
X423941Y1558714D2*
X432958D1*
X512554D2*
X822598D1*
X902441D2*
X930205D1*
X1192472D2*
X1291894D1*
X1357166D2*
X1379485D1*
X1556892D2*
X1745827D1*
X1821732D2*
X1856063D1*
X1957636D2*
X1999179D1*
X2248629D2*
X2332602D1*
X423941Y1554908D2*
X430251D1*
X587319D2*
X822598D1*
X902441D2*
X926398D1*
X994446D2*
X1048976D1*
X1109134D2*
X1128232D1*
X1196279D2*
X1295701D1*
X1357166D2*
X1376717D1*
X1552639D2*
X1745827D1*
X1821732D2*
X1856063D1*
X1963665D2*
X2011106D1*
X2247429D2*
X2332602D1*
X423941Y1551102D2*
X428098D1*
X597108D2*
X822598D1*
X902441D2*
X922592D1*
X990639D2*
X1048976D1*
X1109134D2*
X1132038D1*
X1200085D2*
X1299499D1*
X1357166D2*
X1373987D1*
X1548395D2*
X1745827D1*
X1821732D2*
X1856063D1*
X1969686D2*
X2023032D1*
X2245953D2*
X2332602D1*
X423941Y1547297D2*
X426403D1*
X601529D2*
X822598D1*
X902441D2*
X918786D1*
X986833D2*
X1048976D1*
X1109134D2*
X1135844D1*
X1203891D2*
X1300945D1*
X1357166D2*
X1372303D1*
X1544143D2*
X1745827D1*
X1821732D2*
X1856063D1*
X1975714D2*
X2034958D1*
X2244176D2*
X2332602D1*
X605335Y1543491D2*
X822598D1*
X902441D2*
X914980D1*
X983027D2*
X1048976D1*
X1109134D2*
X1139650D1*
X1207698D2*
X1300945D1*
X1357166D2*
X1371811D1*
X1539890D2*
X1745827D1*
X1821732D2*
X1856063D1*
X1981743D2*
X2046885D1*
X2242054D2*
X2332602D1*
X609142Y1539685D2*
X822598D1*
X902441D2*
X911173D1*
X979220D2*
X1048976D1*
X1109134D2*
X1143457D1*
X1211504D2*
X1300945D1*
X1357166D2*
X1371811D1*
X1535646D2*
X1745827D1*
X1821732D2*
X1856063D1*
X1987763D2*
X2058803D1*
X2239563D2*
X2332602D1*
X612948Y1535879D2*
X822598D1*
X902441D2*
X907367D1*
X975414D2*
X1048976D1*
X1109134D2*
X1147263D1*
X1215310D2*
X1300945D1*
X1357166D2*
X1371811D1*
X1531393D2*
X1745827D1*
X1821732D2*
X1856063D1*
X1993792D2*
X2070730D1*
X2236625D2*
X2332602D1*
X616754Y1532073D2*
X822598D1*
X971608D2*
X1048976D1*
X1109134D2*
X1151069D1*
X1219078D2*
X1300945D1*
X1357166D2*
X1371811D1*
X1527141D2*
X1745827D1*
X1821732D2*
X1856063D1*
X1999821D2*
X2082656D1*
X2233165D2*
X2332602D1*
X620561Y1528268D2*
X822598D1*
X967802D2*
X1048976D1*
X1109134D2*
X1154876D1*
X1221908D2*
X1300945D1*
X1357166D2*
X1371811D1*
X1522889D2*
X1745827D1*
X1821732D2*
X1856063D1*
X2005841D2*
X2094582D1*
X2229028D2*
X2332602D1*
X624367Y1524462D2*
X822598D1*
X963995D2*
X1048976D1*
X1109134D2*
X1158682D1*
X1223746D2*
X1300945D1*
X1357166D2*
X1371811D1*
X1518644D2*
X1745827D1*
X1821732D2*
X1856063D1*
X2011870D2*
X2106509D1*
X2223992D2*
X2332602D1*
X628173Y1520656D2*
X822598D1*
X960189D2*
X1048976D1*
X1109134D2*
X1162488D1*
X1224830D2*
X1300945D1*
X1357166D2*
X1371811D1*
X1514392D2*
X1745827D1*
X1821732D2*
X1856063D1*
X2017898D2*
X2118428D1*
X2217563D2*
X2332602D1*
X631979Y1516850D2*
X888336D1*
X956383D2*
X1048976D1*
X1109134D2*
X1166294D1*
X1225260D2*
X1300945D1*
X1357166D2*
X1371811D1*
X1510140D2*
X1745827D1*
X1821732D2*
X1856063D1*
X2023919D2*
X2130354D1*
X2208344D2*
X2332602D1*
X423941Y1513045D2*
X427436D1*
X635778D2*
X822598D1*
X952576D2*
X1048976D1*
X1109134D2*
X1170101D1*
X1225276D2*
X1300945D1*
X1357166D2*
X1371811D1*
X1505895D2*
X1745827D1*
X1821732D2*
X1856063D1*
X2029948D2*
X2332602D1*
X423941Y1509239D2*
X429420D1*
X639584D2*
X822598D1*
X948770D2*
X1048976D1*
X1109134D2*
X1173907D1*
X1225276D2*
X1300945D1*
X1357166D2*
X1371811D1*
X1501643D2*
X1745827D1*
X1821732D2*
X1856063D1*
X2035976D2*
X2332602D1*
X423941Y1505433D2*
X431912D1*
X513600D2*
X575343D1*
X643391D2*
X822598D1*
X944972D2*
X1048976D1*
X1109134D2*
X1176929D1*
X1225276D2*
X1300945D1*
X1357166D2*
X1371811D1*
X1497391D2*
X1745827D1*
X1821732D2*
X1854456D1*
X2041997D2*
X2332602D1*
X423941Y1501627D2*
X435041D1*
X510470D2*
X579150D1*
X647197D2*
X725303D1*
X739893D2*
X757638D1*
X817795D2*
X822598D1*
X941165D2*
X1048976D1*
X1109134D2*
X1111971D1*
X1231181D2*
X1239921D1*
X1359134D2*
X1371811D1*
X1493146D2*
X1745827D1*
X1821732D2*
X1852172D1*
X2048026D2*
X2332602D1*
X423941Y1497822D2*
X439017D1*
X506495D2*
X582956D1*
X651003D2*
X716299D1*
X748898D2*
X757638D1*
X817795D2*
X822598D1*
X937359D2*
X1048976D1*
X1109134D2*
X1111971D1*
X1231181D2*
X1239921D1*
X1359134D2*
X1371811D1*
X1488894D2*
X1745827D1*
X1821732D2*
X1849888D1*
X2054047D2*
X2332602D1*
X423941Y1494016D2*
X444261D1*
X501251D2*
X586762D1*
X933553D2*
X1048976D1*
X1109134D2*
X1111971D1*
X1231181D2*
X1239921D1*
X1359134D2*
X1371811D1*
X1484642D2*
X1745827D1*
X1821732D2*
X1847604D1*
X2060075D2*
X2332602D1*
X423941Y1490210D2*
X452043D1*
X493469D2*
X590569D1*
X929746D2*
X1048976D1*
X1109134D2*
X1111971D1*
X1231181D2*
X1239921D1*
X1359134D2*
X1371811D1*
X1480397D2*
X1845321D1*
X2066104D2*
X2332602D1*
X423941Y1486404D2*
X594375D1*
X925940D2*
X1048976D1*
X1109134D2*
X1111971D1*
X1231181D2*
X1239921D1*
X1359134D2*
X1371811D1*
X1476145D2*
X1843037D1*
X2072125D2*
X2332602D1*
X423941Y1482598D2*
X598181D1*
X922134D2*
X1048976D1*
X1109134D2*
X1111971D1*
X1231181D2*
X1239921D1*
X1359134D2*
X1371811D1*
X1471892D2*
X1840753D1*
X2078153D2*
X2332602D1*
X423941Y1478793D2*
X601987D1*
X918328D2*
X1048976D1*
X1109134D2*
X1111971D1*
X1231181D2*
X1239921D1*
X1359134D2*
X1371811D1*
X1467648D2*
X1643464D1*
X1766614D2*
X1832441D1*
X2084182D2*
X2332602D1*
X423941Y1474987D2*
X461908D1*
X483603D2*
X605794D1*
X914521D2*
X1048976D1*
X1109134D2*
X1111971D1*
X1231181D2*
X1239921D1*
X1359134D2*
X1371811D1*
X1463396D2*
X1643464D1*
X1766614D2*
X1832441D1*
X2090203D2*
X2332602D1*
X423941Y1471181D2*
X448729D1*
X496783D2*
X609600D1*
X910715D2*
X1048976D1*
X1109134D2*
X1111971D1*
X1231181D2*
X1239921D1*
X1359134D2*
X1371811D1*
X1459143D2*
X1643464D1*
X1766614D2*
X1832441D1*
X2096231D2*
X2332602D1*
X423941Y1467375D2*
X442154D1*
X503358D2*
X613406D1*
X906909D2*
X1048976D1*
X1109134D2*
X1111971D1*
X1233550D2*
X1239921D1*
X1359134D2*
X1371811D1*
X1454899D2*
X1639873D1*
X1766614D2*
X1832441D1*
X2102260D2*
X2332602D1*
X423941Y1463570D2*
X437448D1*
X508064D2*
X617213D1*
X903102D2*
X1048976D1*
X1109134D2*
X1111971D1*
X1237356D2*
X1239921D1*
X1359134D2*
X1371811D1*
X1491024D2*
X1635913D1*
X1766614D2*
X1832441D1*
X2108280D2*
X2332602D1*
X423941Y1459764D2*
X433819D1*
X511693D2*
X621019D1*
X902441D2*
X1048976D1*
X1109134D2*
X1111971D1*
X1359134D2*
X1371811D1*
X1491024D2*
X1631946D1*
X1766614D2*
X1832441D1*
X2114309D2*
X2332602D1*
X423941Y1455958D2*
X430935D1*
X514577D2*
X624825D1*
X902441D2*
X1048976D1*
X1109134D2*
X1111971D1*
X1359134D2*
X1368927D1*
X1491024D2*
X1627978D1*
X1766614D2*
X1832441D1*
X2120338D2*
X2332602D1*
X423941Y1452152D2*
X428644D1*
X516868D2*
X629785D1*
X902441D2*
X1048976D1*
X1109134D2*
X1111971D1*
X1359134D2*
X1365121D1*
X1491024D2*
X1624018D1*
X1766614D2*
X1832441D1*
X2126358D2*
X2332602D1*
X423941Y1448346D2*
X426833D1*
X518683D2*
X715315D1*
X749882D2*
X757638D1*
X817795D2*
X822598D1*
X902441D2*
X1048976D1*
X1109134D2*
X1111971D1*
X1359134D2*
X1361307D1*
X1491024D2*
X1620050D1*
X1766614D2*
X1832441D1*
X2132387D2*
X2332602D1*
X520075Y1444541D2*
X722981D1*
X742216D2*
X757638D1*
X817795D2*
X1048976D1*
X1491024D2*
X1616090D1*
X1766614D2*
X1832441D1*
X2138416D2*
X2332602D1*
X521082Y1440735D2*
X757638D1*
X817795D2*
X1061779D1*
X1260186D2*
X1299960D1*
X1491024D2*
X1612122D1*
X1766614D2*
X1832441D1*
X2144436D2*
X2332602D1*
X521736Y1436929D2*
X757638D1*
X817795D2*
X1064286D1*
X1263992D2*
X1299960D1*
X1491024D2*
X1608162D1*
X1766614D2*
X1832441D1*
X2207059D2*
X2332602D1*
X522051Y1433123D2*
X757638D1*
X817795D2*
X1068000D1*
X1267799D2*
X1299960D1*
X1491024D2*
X1604194D1*
X1766614D2*
X1832441D1*
X2216779D2*
X2332602D1*
X522035Y1429318D2*
X757638D1*
X817795D2*
X1071806D1*
X1271605D2*
X1299960D1*
X1491024D2*
X1600234D1*
X1766614D2*
X1832441D1*
X2223407D2*
X2332602D1*
X521689Y1425512D2*
X757638D1*
X817795D2*
X1075613D1*
X1275411D2*
X1299960D1*
X1491024D2*
X1596266D1*
X1766614D2*
X1832441D1*
X2228559D2*
X2332602D1*
X521005Y1421706D2*
X674791D1*
X1279217D2*
X1299960D1*
X1491024D2*
X1592299D1*
X1766614D2*
X1832441D1*
X2232773D2*
X2332602D1*
X519967Y1417900D2*
X670362D1*
X1283024D2*
X1299960D1*
X1491024D2*
X1588339D1*
X1766614D2*
X1832441D1*
X2236295D2*
X2332602D1*
X423941Y1414094D2*
X426971D1*
X518537D2*
X666556D1*
X1286830D2*
X1299960D1*
X1491024D2*
X1584371D1*
X1766614D2*
X1832441D1*
X2239278D2*
X2332602D1*
X423941Y1410289D2*
X428821D1*
X516691D2*
X662750D1*
X1290636D2*
X1299960D1*
X1491024D2*
X1580411D1*
X1766614D2*
X1832441D1*
X2241816D2*
X2332602D1*
X423941Y1406483D2*
X431166D1*
X514346D2*
X658943D1*
X1294389D2*
X1299960D1*
X1478759D2*
X1576443D1*
X1766614D2*
X1832441D1*
X2243969D2*
X2332602D1*
X423941Y1402677D2*
X434103D1*
X511409D2*
X655145D1*
X1296988D2*
X1299960D1*
X1476637D2*
X1572483D1*
X1766614D2*
X1832441D1*
X2245784D2*
X2332602D1*
X423941Y1398871D2*
X437817D1*
X507695D2*
X651338D1*
X1473177D2*
X1568515D1*
X1766614D2*
X1832441D1*
X2247291D2*
X2332602D1*
X423941Y1395066D2*
X442646D1*
X502866D2*
X647532D1*
X1469370D2*
X1564555D1*
X1766614D2*
X1832441D1*
X2248513D2*
X2332602D1*
X423941Y1391260D2*
X449475D1*
X496037D2*
X643726D1*
X1465564D2*
X1560587D1*
X1766614D2*
X1832441D1*
X2249475D2*
X2332602D1*
X423941Y1387454D2*
X467022D1*
X478490D2*
X639920D1*
X1461765D2*
X1556620D1*
X1766614D2*
X1832441D1*
X2250174D2*
X2332602D1*
X423941Y1383648D2*
X636113D1*
X1457959D2*
X1537165D1*
X1766614D2*
X1832441D1*
X2250628D2*
X2332602D1*
X423941Y1379843D2*
X632307D1*
X1766614D2*
X1832441D1*
X2250843D2*
X2332602D1*
X423941Y1376037D2*
X628501D1*
X1766614D2*
X1832441D1*
X2250828D2*
X2332602D1*
X423941Y1372231D2*
X451089D1*
X494423D2*
X624694D1*
X1766614D2*
X1832441D1*
X2250566D2*
X2332602D1*
X423941Y1368425D2*
X443677D1*
X501835D2*
X620888D1*
X1766614D2*
X1832441D1*
X2250067D2*
X2332602D1*
X423941Y1364619D2*
X438586D1*
X506926D2*
X617082D1*
X1766614D2*
X1832441D1*
X2249321D2*
X2332602D1*
X423941Y1360814D2*
X434711D1*
X510801D2*
X613276D1*
X1766614D2*
X1832441D1*
X2248321D2*
X2332602D1*
X423941Y1357008D2*
X431650D1*
X513861D2*
X609469D1*
X1766614D2*
X1832441D1*
X2247052D2*
X2332602D1*
X423941Y1353202D2*
X429205D1*
X516307D2*
X605663D1*
X1766614D2*
X1832441D1*
X2245499D2*
X2332602D1*
X423941Y1349396D2*
X427275D1*
X1766614D2*
X1832441D1*
X2243623D2*
X2332602D1*
X1766614Y1345591D2*
X1832441D1*
X2241408D2*
X2332602D1*
X1766614Y1341785D2*
X1832441D1*
X2238802D2*
X2332602D1*
X1766614Y1337979D2*
X1832441D1*
X2235726D2*
X2332602D1*
X1766614Y1334173D2*
X1832441D1*
X2232096D2*
X2332602D1*
X1766614Y1330367D2*
X1832441D1*
X2227744D2*
X2332602D1*
X1766614Y1326562D2*
X1832441D1*
X2222392D2*
X2332602D1*
X758394Y1322756D2*
X1062756D1*
X1766614D2*
X1832441D1*
X2215402D2*
X2332602D1*
X760340Y1318950D2*
X1062756D1*
X1766614D2*
X1832441D1*
X2204668D2*
X2332602D1*
X423941Y1315144D2*
X426557D1*
X761647D2*
X1062756D1*
X1766614D2*
X1832441D1*
X2121799D2*
X2332602D1*
X423941Y1311339D2*
X428282D1*
X517229D2*
X595298D1*
X762416D2*
X1062756D1*
X1766614D2*
X1832441D1*
X2117423D2*
X2332602D1*
X423941Y1307533D2*
X430482D1*
X515030D2*
X591491D1*
X762677D2*
X1062756D1*
X1766614D2*
X1832441D1*
X2113048D2*
X2332602D1*
X423941Y1303727D2*
X433250D1*
X512262D2*
X587685D1*
X762447D2*
X1062756D1*
X1766614D2*
X1832441D1*
X2108665D2*
X2332602D1*
X423941Y1299921D2*
X436725D1*
X508786D2*
X583879D1*
X697063D2*
X703481D1*
X761716D2*
X1062756D1*
X1766614D2*
X1832441D1*
X2104290D2*
X2332602D1*
X423941Y1296115D2*
X441201D1*
X504311D2*
X538619D1*
X567680D2*
X580072D1*
X693257D2*
X704749D1*
X760447D2*
X1062756D1*
X1766614D2*
X1832441D1*
X2099914D2*
X2332602D1*
X423941Y1292310D2*
X447337D1*
X498175D2*
X533082D1*
X573217D2*
X576266D1*
X689451D2*
X706641D1*
X758556D2*
X1062756D1*
X1597323D2*
X1599377D1*
X1766614D2*
X1832441D1*
X2095539D2*
X2332602D1*
X423941Y1288504D2*
X457933D1*
X487579D2*
X529591D1*
X685644D2*
X708425D1*
X756772D2*
X1062756D1*
X1597323D2*
X1602164D1*
X1766614D2*
X1832441D1*
X2091164D2*
X2332602D1*
X423941Y1284698D2*
X527046D1*
X681838D2*
X708425D1*
X756772D2*
X1062756D1*
X1597323D2*
X1604940D1*
X1766614D2*
X1832441D1*
X2086781D2*
X2332602D1*
X423941Y1280892D2*
X525100D1*
X678032D2*
X708425D1*
X756772D2*
X1062756D1*
X1597323D2*
X1607724D1*
X1766614D2*
X1832441D1*
X2082405D2*
X2332602D1*
X423941Y1277087D2*
X524085D1*
X674225D2*
X708425D1*
X756772D2*
X1062756D1*
X1597323D2*
X1610507D1*
X1766614D2*
X1832441D1*
X2078030D2*
X2332602D1*
X423941Y1273281D2*
X454027D1*
X491485D2*
X523340D1*
X670427D2*
X708425D1*
X756772D2*
X1062756D1*
X1457559D2*
X1537165D1*
X1597323D2*
X1613291D1*
X1766614D2*
X1832441D1*
X2073655D2*
X2332602D1*
X423941Y1269475D2*
X445407D1*
X500105D2*
X523078D1*
X666620D2*
X708425D1*
X756772D2*
X1062756D1*
X1457559D2*
X1537165D1*
X1597323D2*
X1616067D1*
X1766614D2*
X1832441D1*
X2069279D2*
X2332602D1*
X423941Y1265669D2*
X439847D1*
X505665D2*
X523586D1*
X662814D2*
X708425D1*
X756772D2*
X1062756D1*
X1457559D2*
X1618850D1*
X1766614D2*
X1832441D1*
X2103229D2*
X2332602D1*
X423941Y1261864D2*
X435687D1*
X509825D2*
X524347D1*
X659008D2*
X708425D1*
X756772D2*
X1062756D1*
X1457559D2*
X1621634D1*
X1766614D2*
X1832441D1*
X2103229D2*
X2332602D1*
X423941Y1258058D2*
X432419D1*
X513093D2*
X525639D1*
X655202D2*
X708425D1*
X756772D2*
X1062756D1*
X1457559D2*
X1624410D1*
X1766614D2*
X1832441D1*
X2103229D2*
X2332602D1*
X423941Y1254252D2*
X429828D1*
X515684D2*
X527907D1*
X651395D2*
X708425D1*
X756772D2*
X1062756D1*
X1457559D2*
X1627193D1*
X1766614D2*
X1832441D1*
X2103229D2*
X2332602D1*
X423941Y1250446D2*
X427759D1*
X647589D2*
X708425D1*
X756772D2*
X1153307D1*
X1367008D2*
X1629977D1*
X1766614D2*
X1832441D1*
X2103229D2*
X2332602D1*
X423941Y1246640D2*
X426142D1*
X643783D2*
X708425D1*
X756772D2*
X1153307D1*
X1367008D2*
X1632753D1*
X1766614D2*
X1832441D1*
X2103229D2*
X2332602D1*
X639976Y1242835D2*
X708425D1*
X756772D2*
X1153307D1*
X1367008D2*
X1635537D1*
X1766614D2*
X1832441D1*
X2103229D2*
X2332602D1*
X636170Y1239029D2*
X708425D1*
X756772D2*
X1153307D1*
X1367008D2*
X1638320D1*
X1766614D2*
X1832441D1*
X2103229D2*
X2332602D1*
X632364Y1235223D2*
X708425D1*
X756772D2*
X1153307D1*
X1367008D2*
X1641096D1*
X1766614D2*
X1832441D1*
X2103229D2*
X2332602D1*
X628558Y1231417D2*
X708425D1*
X756772D2*
X1153307D1*
X1367008D2*
X1643464D1*
X1766614D2*
X1832441D1*
X2103229D2*
X2332602D1*
X624751Y1227612D2*
X708425D1*
X756772D2*
X1153307D1*
X1367008D2*
X1643464D1*
X1766614D2*
X1832441D1*
X2103229D2*
X2332602D1*
X620945Y1223806D2*
X708425D1*
X756772D2*
X1153307D1*
X1367008D2*
X1643464D1*
X1766614D2*
X1832441D1*
X2103229D2*
X2332602D1*
X617139Y1220000D2*
X708425D1*
X756772D2*
X1153307D1*
X1367008D2*
X1948006D1*
X2103229D2*
X2332602D1*
X423941Y1216194D2*
X426142D1*
X613340D2*
X708425D1*
X756772D2*
X1153307D1*
X1367008D2*
X1961332D1*
X2103229D2*
X2332602D1*
X423941Y1212388D2*
X427759D1*
X517752D2*
X533882D1*
X610118D2*
X708425D1*
X756772D2*
X1153307D1*
X1367008D2*
X1974650D1*
X2103229D2*
X2332602D1*
X423941Y1208583D2*
X429828D1*
X515684D2*
X533128D1*
X610118D2*
X708425D1*
X756772D2*
X1153307D1*
X1367008D2*
X1984016D1*
X2103229D2*
X2332602D1*
X423941Y1204777D2*
X432419D1*
X513093D2*
X532790D1*
X610118D2*
X708425D1*
X756772D2*
X1153307D1*
X1367008D2*
X2332602D1*
X423941Y1200971D2*
X435687D1*
X509825D2*
X519649D1*
X610118D2*
X708425D1*
X756772D2*
X1153307D1*
X1367008D2*
X2332602D1*
X423941Y1197165D2*
X439847D1*
X505665D2*
X513282D1*
X610118D2*
X708425D1*
X756772D2*
X1153307D1*
X1367008D2*
X2332602D1*
X423941Y1193360D2*
X445407D1*
X500105D2*
X508814D1*
X610118D2*
X708425D1*
X756772D2*
X1153307D1*
X1367008D2*
X2332602D1*
X423941Y1189554D2*
X454027D1*
X491485D2*
X505008D1*
X610118D2*
X708425D1*
X756772D2*
X1153307D1*
X1367008D2*
X2332602D1*
X423941Y1185748D2*
X501202D1*
X610118D2*
X708425D1*
X756772D2*
X1153307D1*
X1367008D2*
X2332602D1*
X423941Y1181942D2*
X497395D1*
X610118D2*
X708425D1*
X756772D2*
X1153307D1*
X1367008D2*
X2332602D1*
X423941Y1178136D2*
X493597D1*
X610118D2*
X708425D1*
X756772D2*
X1153307D1*
X1367008D2*
X2332602D1*
X423941Y1174331D2*
X457933D1*
X487579D2*
X489790D1*
X610118D2*
X708425D1*
X756772D2*
X1153307D1*
X1367008D2*
X2332602D1*
X423941Y1170525D2*
X447337D1*
X610118D2*
X708425D1*
X756772D2*
X1153307D1*
X1367008D2*
X2332602D1*
X423941Y1166719D2*
X441201D1*
X610118D2*
X708425D1*
X756772D2*
X1153307D1*
X1367008D2*
X2332602D1*
X423941Y1162913D2*
X436725D1*
X610118D2*
X708425D1*
X756772D2*
X1153307D1*
X1367008D2*
X2332602D1*
X423941Y1159108D2*
X433250D1*
X528687D2*
X534558D1*
X610118D2*
X708425D1*
X756772D2*
X1153307D1*
X1367008D2*
X2332602D1*
X423941Y1155302D2*
X430482D1*
X524888D2*
X540718D1*
X565304D2*
X569576D1*
X610118D2*
X708425D1*
X756772D2*
X1153307D1*
X1367008D2*
X1984016D1*
X2103229D2*
X2332602D1*
X423941Y1151496D2*
X428282D1*
X521082D2*
X565770D1*
X610118D2*
X708425D1*
X757172D2*
X1153307D1*
X1367008D2*
X1978325D1*
X2103229D2*
X2332602D1*
X423941Y1147690D2*
X426557D1*
X518960D2*
X561964D1*
X610026D2*
X708425D1*
X760978D2*
X1153307D1*
X1367008D2*
X1965000D1*
X2103229D2*
X2332602D1*
X520282Y1143885D2*
X558157D1*
X609257D2*
X708425D1*
X764784D2*
X1153307D1*
X1367008D2*
X1951681D1*
X2103229D2*
X2332602D1*
X521228Y1140079D2*
X554351D1*
X607581D2*
X708510D1*
X768591D2*
X1153307D1*
X1367008D2*
X1643464D1*
X1766614D2*
X1832441D1*
X2103229D2*
X2332602D1*
X521820Y1136273D2*
X550545D1*
X604674D2*
X709140D1*
X772397D2*
X1153307D1*
X1367008D2*
X1643464D1*
X1766614D2*
X1832441D1*
X2103229D2*
X2332602D1*
X522074Y1132467D2*
X546739D1*
X600868D2*
X710440D1*
X776203D2*
X1153307D1*
X1367008D2*
X1643464D1*
X1766614D2*
X1832441D1*
X2103229D2*
X2332602D1*
X521997Y1128661D2*
X542940D1*
X597062D2*
X712547D1*
X780009D2*
X1153307D1*
X1367008D2*
X1641865D1*
X1766614D2*
X1832441D1*
X2103229D2*
X2332602D1*
X521597Y1124856D2*
X539134D1*
X593255D2*
X715768D1*
X783816D2*
X1153307D1*
X1367008D2*
X1639081D1*
X1766614D2*
X1832441D1*
X2103229D2*
X2332602D1*
X520844Y1121050D2*
X535327D1*
X589449D2*
X719575D1*
X787622D2*
X1153307D1*
X1367008D2*
X1636306D1*
X1766614D2*
X1832441D1*
X2103229D2*
X2332602D1*
X519736Y1117244D2*
X531521D1*
X585643D2*
X723381D1*
X791428D2*
X1153307D1*
X1367008D2*
X1633522D1*
X1766614D2*
X1832441D1*
X2103229D2*
X2332602D1*
X423941Y1113438D2*
X427275D1*
X518237D2*
X527715D1*
X581844D2*
X727187D1*
X795227D2*
X1153307D1*
X1367008D2*
X1630738D1*
X1766614D2*
X1832441D1*
X2103229D2*
X2332602D1*
X423941Y1109633D2*
X429205D1*
X516307D2*
X523909D1*
X578038D2*
X730994D1*
X799033D2*
X1062756D1*
X1457559D2*
X1627962D1*
X1766614D2*
X1832441D1*
X2103229D2*
X2332602D1*
X423941Y1105827D2*
X431650D1*
X513861D2*
X520102D1*
X574232D2*
X734792D1*
X802839D2*
X1062756D1*
X1457559D2*
X1625179D1*
X1766614D2*
X1832441D1*
X2103229D2*
X2332602D1*
X423941Y1102021D2*
X434711D1*
X510801D2*
X516296D1*
X570425D2*
X738599D1*
X806646D2*
X1062756D1*
X1457559D2*
X1622395D1*
X1766614D2*
X1832441D1*
X2103229D2*
X2332602D1*
X423941Y1098215D2*
X438586D1*
X506926D2*
X512490D1*
X566619D2*
X742405D1*
X810452D2*
X1062756D1*
X1457559D2*
X1619619D1*
X1766614D2*
X1832441D1*
X2103229D2*
X2332602D1*
X423941Y1094409D2*
X443677D1*
X501835D2*
X508683D1*
X562813D2*
X746211D1*
X814258D2*
X1062756D1*
X1457559D2*
X1537165D1*
X1597323D2*
X1616836D1*
X1766614D2*
X1832441D1*
X2068072D2*
X2332602D1*
X423941Y1090604D2*
X451089D1*
X494423D2*
X504877D1*
X559006D2*
X750017D1*
X818065D2*
X1062756D1*
X1457559D2*
X1537165D1*
X1597323D2*
X1614052D1*
X1766614D2*
X1832441D1*
X2072448D2*
X2332602D1*
X423941Y1086798D2*
X501071D1*
X555200D2*
X753824D1*
X821871D2*
X1062756D1*
X1457559D2*
X1537165D1*
X1597323D2*
X1611276D1*
X1766614D2*
X1832441D1*
X2076823D2*
X2332602D1*
X423941Y1082992D2*
X497265D1*
X551394D2*
X757630D1*
X825677D2*
X1062756D1*
X1597323D2*
X1608493D1*
X1766614D2*
X1832441D1*
X2081198D2*
X2332602D1*
X423941Y1079186D2*
X493458D1*
X547588D2*
X761436D1*
X829483D2*
X1062756D1*
X1597323D2*
X1605709D1*
X1766614D2*
X1832441D1*
X2085573D2*
X2332602D1*
X423941Y1075381D2*
X489652D1*
X543781D2*
X765243D1*
X833290D2*
X1062756D1*
X1597323D2*
X1602933D1*
X1766614D2*
X1832441D1*
X2089956D2*
X2332602D1*
X423941Y1071575D2*
X449536D1*
X539975D2*
X769049D1*
X837096D2*
X1062756D1*
X1597323D2*
X1600145D1*
X1766614D2*
X1832441D1*
X2094332D2*
X2332602D1*
X423941Y1067769D2*
X442685D1*
X536169D2*
X772855D1*
X840902D2*
X1062756D1*
X1766614D2*
X1832441D1*
X2098707D2*
X2332602D1*
X423941Y1063963D2*
X437848D1*
X532362D2*
X776661D1*
X844709D2*
X1062756D1*
X1766614D2*
X1832441D1*
X2103082D2*
X2332602D1*
X423941Y1060157D2*
X434126D1*
X528556D2*
X780468D1*
X848515D2*
X1062756D1*
X1766614D2*
X1832441D1*
X2107458D2*
X2332602D1*
X423941Y1056352D2*
X431189D1*
X524757D2*
X784274D1*
X852313D2*
X1062756D1*
X1766614D2*
X1832441D1*
X2111833D2*
X2332602D1*
X423941Y1052546D2*
X428836D1*
X520951D2*
X788080D1*
X856120D2*
X1062756D1*
X1766614D2*
X1832441D1*
X2116216D2*
X2332602D1*
X423941Y1048740D2*
X426987D1*
X518529D2*
X791879D1*
X859926D2*
X1062756D1*
X1766614D2*
X1832441D1*
X2120591D2*
X2332602D1*
X519959Y1044934D2*
X795685D1*
X863732D2*
X1062756D1*
X1766614D2*
X1832441D1*
X2199631D2*
X2332602D1*
X520997Y1041129D2*
X799491D1*
X867539D2*
X1062756D1*
X1766614D2*
X1832441D1*
X2213003D2*
X2332602D1*
X521689Y1037323D2*
X803298D1*
X871345D2*
X1062756D1*
X1766614D2*
X1832441D1*
X2220670D2*
X2332602D1*
X522035Y1033517D2*
X807104D1*
X875151D2*
X1062756D1*
X1766614D2*
X1832441D1*
X2226383D2*
X2332602D1*
X522051Y1029711D2*
X810910D1*
X878957D2*
X1062756D1*
X1766614D2*
X1832441D1*
X2230981D2*
X2332602D1*
X521743Y1025906D2*
X814717D1*
X882764D2*
X1062756D1*
X1766614D2*
X1832441D1*
X2234788D2*
X2332602D1*
X521090Y1022100D2*
X818523D1*
X893483D2*
X1201535D1*
X1766614D2*
X1832441D1*
X2238002D2*
X2332602D1*
X520082Y1018294D2*
X822329D1*
X898681D2*
X1201535D1*
X1766614D2*
X1832441D1*
X2240732D2*
X2332602D1*
X423941Y1014488D2*
X426818D1*
X518690D2*
X826135D1*
X902180D2*
X1200020D1*
X1766614D2*
X1832441D1*
X2243054D2*
X2332602D1*
X423941Y1010682D2*
X428628D1*
X516883D2*
X829942D1*
X904671D2*
X1196214D1*
X1766614D2*
X1832441D1*
X2245015D2*
X2332602D1*
X423941Y1006877D2*
X430920D1*
X514592D2*
X833748D1*
X906424D2*
X1192408D1*
X1766614D2*
X1832441D1*
X2246652D2*
X2332602D1*
X423941Y1003071D2*
X433796D1*
X511716D2*
X837554D1*
X907585D2*
X1188609D1*
X1766614D2*
X1832441D1*
X2247998D2*
X2332602D1*
X423941Y999265D2*
X437417D1*
X508094D2*
X841361D1*
X908208D2*
X1184803D1*
X1766614D2*
X1832441D1*
X2249075D2*
X2332602D1*
X423941Y995459D2*
X442116D1*
X503396D2*
X845167D1*
X908331D2*
X1180997D1*
X1766614D2*
X1832441D1*
X2249890D2*
X2332602D1*
X423941Y991654D2*
X448675D1*
X496837D2*
X848566D1*
X907970D2*
X1177190D1*
X1766614D2*
X1832441D1*
X2250451D2*
X2332602D1*
X423941Y987848D2*
X461693D1*
X483819D2*
X849442D1*
X907093D2*
X1173384D1*
X1766614D2*
X1832441D1*
X2250782D2*
X2332602D1*
X423941Y984042D2*
X791940D1*
X1766614D2*
X1832441D1*
X2250866D2*
X2332602D1*
X423941Y980236D2*
X787819D1*
X1456906D2*
X1537165D1*
X1766614D2*
X1832441D1*
X2250713D2*
X2332602D1*
X423941Y976430D2*
X784013D1*
X1460712D2*
X1555528D1*
X1766614D2*
X1832441D1*
X2250320D2*
X2332602D1*
X423941Y972625D2*
X452120D1*
X493392D2*
X780206D1*
X1464518D2*
X1559495D1*
X1766614D2*
X1832441D1*
X2249690D2*
X2332602D1*
X423941Y968819D2*
X444307D1*
X501205D2*
X776400D1*
X1468324D2*
X1563455D1*
X1766614D2*
X1832441D1*
X2248806D2*
X2332602D1*
X423941Y965013D2*
X439048D1*
X506464D2*
X772594D1*
X1472131D2*
X1567423D1*
X1766614D2*
X1832441D1*
X2247660D2*
X2332602D1*
X423941Y961207D2*
X435064D1*
X510447D2*
X749764D1*
X1475822D2*
X1571383D1*
X1766614D2*
X1832441D1*
X2246230D2*
X2332602D1*
X423941Y957402D2*
X431935D1*
X513577D2*
X749764D1*
X1297549D2*
X1299960D1*
X1478290D2*
X1575351D1*
X1766614D2*
X1832441D1*
X2244507D2*
X2332602D1*
X423941Y953596D2*
X429436D1*
X516076D2*
X749764D1*
X1295342D2*
X1299960D1*
X1491024D2*
X1579319D1*
X1766614D2*
X1832441D1*
X2242446D2*
X2332602D1*
X423941Y949790D2*
X427452D1*
X1291813D2*
X1299960D1*
X1491024D2*
X1583279D1*
X1766614D2*
X1832441D1*
X2240024D2*
X2332602D1*
X423941Y945984D2*
X425911D1*
X1288006D2*
X1299960D1*
X1491024D2*
X1587247D1*
X1766614D2*
X1832441D1*
X2237164D2*
X2332602D1*
X1284200Y942178D2*
X1299960D1*
X1491024D2*
X1591207D1*
X1766614D2*
X1832441D1*
X2233803D2*
X2332602D1*
X1280394Y938373D2*
X1299960D1*
X1491024D2*
X1595175D1*
X1766614D2*
X1832441D1*
X2229797D2*
X2332602D1*
X1276588Y934567D2*
X1299960D1*
X1491024D2*
X1599135D1*
X1766614D2*
X1832441D1*
X2224945D2*
X2332602D1*
X1272789Y930761D2*
X1299960D1*
X1491024D2*
X1603102D1*
X1766614D2*
X1832441D1*
X2218809D2*
X2332602D1*
X1268983Y926955D2*
X1299960D1*
X1491024D2*
X1607062D1*
X1766614D2*
X1832441D1*
X2210274D2*
X2332602D1*
X1265176Y923150D2*
X1299960D1*
X1491024D2*
X1611030D1*
X1766614D2*
X1832441D1*
X2146097D2*
X2332602D1*
X1491024Y919344D2*
X1614998D1*
X1766614D2*
X1832441D1*
X2140076D2*
X2332602D1*
X423941Y915538D2*
X426388D1*
X1491024D2*
X1618958D1*
X1766614D2*
X1832441D1*
X2134048D2*
X2332602D1*
X423941Y911732D2*
X428082D1*
X517429D2*
X749764D1*
X1359134D2*
X1364068D1*
X1491024D2*
X1622926D1*
X1766614D2*
X1832441D1*
X2128019D2*
X2332602D1*
X423941Y907927D2*
X430235D1*
X515276D2*
X749764D1*
X1009794D2*
X1115905D1*
X1359134D2*
X1367874D1*
X1491024D2*
X1626886D1*
X1766614D2*
X1832441D1*
X2121998D2*
X2332602D1*
X423941Y904121D2*
X432934D1*
X512577D2*
X749764D1*
X1005987D2*
X1115905D1*
X1359134D2*
X1371680D1*
X1491024D2*
X1630854D1*
X1766614D2*
X1832441D1*
X2115970D2*
X2332602D1*
X423941Y900315D2*
X436326D1*
X509186D2*
X820630D1*
X1002181D2*
X1115905D1*
X1359134D2*
X1371811D1*
X1491024D2*
X1634814D1*
X1766614D2*
X1832441D1*
X2109941D2*
X2332602D1*
X423941Y896509D2*
X440678D1*
X504834D2*
X749764D1*
X998375D2*
X1115905D1*
X1359134D2*
X1371811D1*
X1491024D2*
X1638782D1*
X1766614D2*
X1832441D1*
X2103921D2*
X2332602D1*
X423941Y892703D2*
X446583D1*
X498929D2*
X749764D1*
X994569D2*
X1115905D1*
X1235118D2*
X1239921D1*
X1359134D2*
X1371811D1*
X1457974D2*
X1642742D1*
X1766614D2*
X1832441D1*
X2097892D2*
X2332602D1*
X423941Y888898D2*
X456295D1*
X489217D2*
X507699D1*
X990762D2*
X1115905D1*
X1235118D2*
X1239921D1*
X1359134D2*
X1371811D1*
X1462227D2*
X1643464D1*
X1766614D2*
X1832441D1*
X2091871D2*
X2332602D1*
X423941Y885092D2*
X499525D1*
X986956D2*
X1115905D1*
X1235118D2*
X1239921D1*
X1359134D2*
X1371811D1*
X1466471D2*
X1643464D1*
X1766614D2*
X1832441D1*
X2085843D2*
X2332602D1*
X423941Y881286D2*
X495557D1*
X983150D2*
X1115905D1*
X1235118D2*
X1239921D1*
X1359134D2*
X1371811D1*
X1470724D2*
X1840123D1*
X2079814D2*
X2332602D1*
X423941Y877480D2*
X491759D1*
X979343D2*
X1115905D1*
X1235118D2*
X1239921D1*
X1359134D2*
X1371811D1*
X1474976D2*
X1842406D1*
X2073793D2*
X2332602D1*
X423941Y873675D2*
X455326D1*
X975545D2*
X1115905D1*
X1235118D2*
X1239921D1*
X1359134D2*
X1371811D1*
X1479220D2*
X1844690D1*
X2067765D2*
X2332602D1*
X423941Y869869D2*
X446107D1*
X971739D2*
X1115905D1*
X1235118D2*
X1239921D1*
X1359134D2*
X1371811D1*
X1483473D2*
X1745827D1*
X1821732D2*
X1846974D1*
X2061736D2*
X2332602D1*
X423941Y866063D2*
X440339D1*
X967932D2*
X1115905D1*
X1235118D2*
X1239921D1*
X1359134D2*
X1371811D1*
X1487725D2*
X1745827D1*
X1821732D2*
X1849258D1*
X2055715D2*
X2332602D1*
X423941Y862257D2*
X436064D1*
X964126D2*
X1115905D1*
X1235118D2*
X1239921D1*
X1359134D2*
X1371811D1*
X1491970D2*
X1745827D1*
X1821732D2*
X1851541D1*
X2049687D2*
X2332602D1*
X423941Y858451D2*
X432727D1*
X960320D2*
X1300945D1*
X1357166D2*
X1371811D1*
X1496222D2*
X1745827D1*
X1821732D2*
X1853825D1*
X2043658D2*
X2332602D1*
X423941Y854646D2*
X430066D1*
X956513D2*
X1300945D1*
X1357166D2*
X1371811D1*
X1500474D2*
X1745827D1*
X1821732D2*
X1856063D1*
X2037637D2*
X2332602D1*
X423941Y850840D2*
X427952D1*
X519244D2*
X749764D1*
X952707D2*
X1300945D1*
X1357166D2*
X1371811D1*
X1504719D2*
X1745827D1*
X1821732D2*
X1856063D1*
X2031609D2*
X2332602D1*
X423941Y847034D2*
X426295D1*
X519221D2*
X749764D1*
X948901D2*
X1300945D1*
X1357166D2*
X1371811D1*
X1508971D2*
X1745827D1*
X1821732D2*
X1856063D1*
X2025580D2*
X2133645D1*
X2204668D2*
X2332602D1*
X520467Y843228D2*
X749764D1*
X945095D2*
X1300945D1*
X1357166D2*
X1371811D1*
X1513223D2*
X1745827D1*
X1821732D2*
X1856063D1*
X2019559D2*
X2121719D1*
X2215402D2*
X2332602D1*
X521351Y839423D2*
X771940D1*
X941288D2*
X1300945D1*
X1357166D2*
X1371811D1*
X1517468D2*
X1745827D1*
X1821732D2*
X1856063D1*
X2013531D2*
X2109792D1*
X2222392D2*
X2332602D1*
X521889Y835617D2*
X749764D1*
X937482D2*
X1300945D1*
X1357166D2*
X1371811D1*
X1521720D2*
X1745827D1*
X1821732D2*
X1856063D1*
X2007510D2*
X2097874D1*
X2227744D2*
X2332602D1*
X522082Y831811D2*
X749764D1*
X933676D2*
X1300945D1*
X1357166D2*
X1371811D1*
X1525972D2*
X1745827D1*
X1821732D2*
X1856063D1*
X2001481D2*
X2085947D1*
X2232096D2*
X2332602D1*
X521951Y828005D2*
X749764D1*
X1163860D2*
X1300945D1*
X1357166D2*
X1371811D1*
X1530217D2*
X1745827D1*
X1821732D2*
X1856063D1*
X1995453D2*
X2074021D1*
X2235726D2*
X2332602D1*
X521489Y824199D2*
X749764D1*
X1168973D2*
X1300945D1*
X1357166D2*
X1371811D1*
X1534469D2*
X1745827D1*
X1821732D2*
X1856063D1*
X1989432D2*
X2062094D1*
X2238802D2*
X2332602D1*
X520682Y820394D2*
X749764D1*
X1172780D2*
X1300945D1*
X1357166D2*
X1371811D1*
X1538722D2*
X1745827D1*
X1821732D2*
X1856063D1*
X1983404D2*
X2050168D1*
X2241408D2*
X2332602D1*
X423941Y816588D2*
X426003D1*
X519506D2*
X749764D1*
X918458D2*
X923053D1*
X1176586D2*
X1300945D1*
X1357166D2*
X1372057D1*
X1542966D2*
X1745827D1*
X1821732D2*
X1856063D1*
X1977375D2*
X2038249D1*
X2243623D2*
X2332602D1*
X423941Y812782D2*
X427575D1*
X517937D2*
X749764D1*
X917205D2*
X922992D1*
X1180392D2*
X1300945D1*
X1357166D2*
X1373380D1*
X1547218D2*
X1745827D1*
X1821732D2*
X1856063D1*
X1971354D2*
X2026323D1*
X2245499D2*
X2332602D1*
X423941Y808976D2*
X429590D1*
X515922D2*
X749764D1*
X917205D2*
X922992D1*
X1184199D2*
X1300945D1*
X1357166D2*
X1375955D1*
X1551471D2*
X1745827D1*
X1821732D2*
X1856063D1*
X1965326D2*
X2014397D1*
X2247052D2*
X2332602D1*
X423941Y805171D2*
X432127D1*
X513385D2*
X749764D1*
X917205D2*
X922992D1*
X1188005D2*
X1300814D1*
X1357166D2*
X1378724D1*
X1555715D2*
X1745827D1*
X1821732D2*
X1856063D1*
X1959297D2*
X2002470D1*
X2248321D2*
X2332602D1*
X423941Y801365D2*
X435311D1*
X510201D2*
X749764D1*
X917205D2*
X922992D1*
X1191811D2*
X1297008D1*
X1357166D2*
X1381484D1*
X1559968D2*
X1745827D1*
X1821732D2*
X1856063D1*
X1953276D2*
X1990544D1*
X2249321D2*
X2332602D1*
X423941Y797559D2*
X439363D1*
X506149D2*
X749764D1*
X917205D2*
X922992D1*
X1195617D2*
X1293201D1*
X1357166D2*
X1384252D1*
X1564220D2*
X1745827D1*
X1821732D2*
X1856063D1*
X1947248D2*
X1978625D1*
X2250067D2*
X2332602D1*
X423941Y793753D2*
X444738D1*
X500774D2*
X749764D1*
X917205D2*
X922992D1*
X1199424D2*
X1289395D1*
X1357166D2*
X1387013D1*
X1568464D2*
X1745827D1*
X1821732D2*
X1856063D1*
X1941219D2*
X1966699D1*
X2250566D2*
X2332602D1*
X423941Y789948D2*
X452842D1*
X492669D2*
X749764D1*
X917205D2*
X922992D1*
X1203230D2*
X1285589D1*
X1357166D2*
X1389781D1*
X1572717D2*
X1745827D1*
X1821732D2*
X1856063D1*
X1935198D2*
X1954773D1*
X2250828D2*
X2332602D1*
X423941Y786142D2*
X749764D1*
X917205D2*
X922992D1*
X1207036D2*
X1281783D1*
X1357166D2*
X1392542D1*
X1576969D2*
X1745827D1*
X1821732D2*
X1856063D1*
X2250843D2*
X2332602D1*
X423941Y782336D2*
X749764D1*
X917205D2*
X922992D1*
X1210835D2*
X1277984D1*
X1357166D2*
X1395310D1*
X1581214D2*
X1745827D1*
X1821732D2*
X1856063D1*
X2250628D2*
X2332602D1*
X423941Y778530D2*
X749764D1*
X917205D2*
X922992D1*
X1214641D2*
X1274178D1*
X1357166D2*
X1398070D1*
X1585466D2*
X1745827D1*
X1821732D2*
X1856063D1*
X2250174D2*
X2332602D1*
X423941Y774724D2*
X459948D1*
X485564D2*
X760590D1*
X917205D2*
X922992D1*
X1218447D2*
X1270371D1*
X1357166D2*
X1400839D1*
X1589718D2*
X1745827D1*
X1821732D2*
X1856063D1*
X2249475D2*
X2332602D1*
X423941Y770919D2*
X448121D1*
X497391D2*
X760621D1*
X917205D2*
X922992D1*
X1222254D2*
X1266565D1*
X1357166D2*
X1403599D1*
X1593970D2*
X1745827D1*
X1821732D2*
X1856063D1*
X2248513D2*
X2332602D1*
X423941Y767113D2*
X441747D1*
X503765D2*
X761229D1*
X917205D2*
X922992D1*
X1226060D2*
X1251732D1*
X1357166D2*
X1406367D1*
X1598215D2*
X1745827D1*
X1821732D2*
X1856063D1*
X2247291D2*
X2332602D1*
X423941Y763307D2*
X437141D1*
X508371D2*
X762697D1*
X917205D2*
X922992D1*
X1357166D2*
X1409128D1*
X1602467D2*
X1745827D1*
X1821732D2*
X1856063D1*
X2245784D2*
X2332602D1*
X423941Y759501D2*
X433573D1*
X511939D2*
X765296D1*
X917205D2*
X922992D1*
X1357166D2*
X1411888D1*
X1606720D2*
X1745827D1*
X1821732D2*
X1856063D1*
X2243969D2*
X2332602D1*
X423941Y755696D2*
X430743D1*
X514769D2*
X769049D1*
X917205D2*
X922992D1*
X1357166D2*
X1414657D1*
X1610964D2*
X1745827D1*
X1821732D2*
X1856063D1*
X2241816D2*
X2332602D1*
X423941Y751890D2*
X428490D1*
X517022D2*
X772855D1*
X917205D2*
X922992D1*
X1357166D2*
X1417417D1*
X1615216D2*
X1745827D1*
X1821732D2*
X1856063D1*
X2239278D2*
X2332602D1*
X423941Y748084D2*
X426710D1*
X652449D2*
X776661D1*
X917205D2*
X922992D1*
X1357166D2*
X1420185D1*
X1619469D2*
X1745827D1*
X1821732D2*
X1856063D1*
X2236295D2*
X2332602D1*
X657432Y744278D2*
X780468D1*
X917205D2*
X922992D1*
X1357166D2*
X1422946D1*
X1623713D2*
X1745827D1*
X1821732D2*
X1856063D1*
X2232773D2*
X2332602D1*
X661238Y740472D2*
X784274D1*
X917205D2*
X922992D1*
X1357166D2*
X1425714D1*
X1627966D2*
X1745827D1*
X1821732D2*
X1856063D1*
X2228559D2*
X2332602D1*
X665044Y736667D2*
X788080D1*
X917205D2*
X922992D1*
X1357166D2*
X1428475D1*
X1632218D2*
X1745827D1*
X1821732D2*
X1856063D1*
X2223407D2*
X2332602D1*
X668850Y732861D2*
X791887D1*
X917205D2*
X923484D1*
X1357166D2*
X1431243D1*
X1636462D2*
X1745827D1*
X1821732D2*
X1856063D1*
X2216779D2*
X2332602D1*
X672657Y729055D2*
X795693D1*
X917205D2*
X925168D1*
X1357166D2*
X1434003D1*
X1640715D2*
X1745827D1*
X1821732D2*
X1856063D1*
X2207059D2*
X2332602D1*
X676463Y725249D2*
X799499D1*
X917205D2*
X928751D1*
X1357166D2*
X1436771D1*
X1644967D2*
X1745827D1*
X1821732D2*
X1856063D1*
X2129972D2*
X2332602D1*
X680269Y721444D2*
X803305D1*
X917205D2*
X1046485D1*
X1357166D2*
X1439532D1*
X1649212D2*
X1745827D1*
X1821732D2*
X1856063D1*
X2125220D2*
X2332602D1*
X684068Y717638D2*
X807112D1*
X917205D2*
X1050291D1*
X1357166D2*
X1442300D1*
X1653464D2*
X1745827D1*
X1821732D2*
X1854556D1*
X2120461D2*
X2332602D1*
X423941Y713832D2*
X427098D1*
X687874D2*
X810918D1*
X917205D2*
X1054097D1*
X1357166D2*
X1445061D1*
X1657716D2*
X1745827D1*
X1821732D2*
X1852480D1*
X2115701D2*
X2332602D1*
X423941Y710026D2*
X428982D1*
X516530D2*
X637559D1*
X691680D2*
X814724D1*
X917205D2*
X1057904D1*
X1357166D2*
X1447829D1*
X1661961D2*
X1745827D1*
X1821732D2*
X1850403D1*
X2110949D2*
X2332602D1*
X423941Y706220D2*
X431366D1*
X514146D2*
X641365D1*
X695487D2*
X818531D1*
X917205D2*
X1061710D1*
X1357166D2*
X1450589D1*
X1666213D2*
X1745827D1*
X1821732D2*
X1848327D1*
X2106189D2*
X2332602D1*
X423941Y702415D2*
X434357D1*
X511155D2*
X645164D1*
X699293D2*
X822329D1*
X917205D2*
X1065516D1*
X1357166D2*
X1453358D1*
X1670465D2*
X1745827D1*
X1821732D2*
X1846251D1*
X2101429D2*
X2332602D1*
X423941Y698609D2*
X438140D1*
X507372D2*
X648970D1*
X703099D2*
X826135D1*
X917205D2*
X1069323D1*
X1357166D2*
X1456118D1*
X1674710D2*
X1844175D1*
X2096677D2*
X2332602D1*
X423941Y694803D2*
X443077D1*
X502435D2*
X652776D1*
X706906D2*
X829942D1*
X917205D2*
X1073121D1*
X1356966D2*
X1458886D1*
X1678962D2*
X1842099D1*
X2091917D2*
X2332602D1*
X423941Y690997D2*
X450136D1*
X495376D2*
X656583D1*
X710712D2*
X833748D1*
X917205D2*
X1076927D1*
X1355728D2*
X1461647D1*
X1683214D2*
X1840023D1*
X2087158D2*
X2332602D1*
X423941Y687192D2*
X660389D1*
X714518D2*
X837554D1*
X917205D2*
X1080734D1*
X1352967D2*
X1464415D1*
X1766614D2*
X1832441D1*
X2082405D2*
X2332602D1*
X423941Y683386D2*
X664195D1*
X718324D2*
X841361D1*
X917205D2*
X1088385D1*
X1345316D2*
X1467176D1*
X1766614D2*
X1832441D1*
X2077646D2*
X2332602D1*
X423941Y679580D2*
X668002D1*
X722131D2*
X845167D1*
X917205D2*
X1469944D1*
X1766614D2*
X1832441D1*
X2072886D2*
X2332602D1*
X423941Y675774D2*
X671808D1*
X725937D2*
X848973D1*
X917205D2*
X1472704D1*
X1766614D2*
X1832441D1*
X2068134D2*
X2332602D1*
X423941Y671969D2*
X675614D1*
X729743D2*
X852779D1*
X917205D2*
X1475465D1*
X1766614D2*
X1832441D1*
X2103229D2*
X2332602D1*
X423941Y668163D2*
X679420D1*
X733550D2*
X855079D1*
X917205D2*
X1478233D1*
X1766614D2*
X1832441D1*
X2103229D2*
X2332602D1*
X423941Y664357D2*
X683227D1*
X737356D2*
X855079D1*
X917205D2*
X1480994D1*
X1766614D2*
X1832441D1*
X2103229D2*
X2332602D1*
X423941Y660551D2*
X534136D1*
X568857D2*
X687033D1*
X741154D2*
X855079D1*
X917205D2*
X1483762D1*
X1766614D2*
X1832441D1*
X2103229D2*
X2332602D1*
X423941Y656745D2*
X517880D1*
X585112D2*
X690839D1*
X744961D2*
X855079D1*
X917205D2*
X1486522D1*
X1766614D2*
X1832441D1*
X2103229D2*
X2332602D1*
X423941Y652940D2*
X507630D1*
X595362D2*
X694646D1*
X748767D2*
X855079D1*
X917205D2*
X1489291D1*
X1766614D2*
X1832441D1*
X2103229D2*
X2332602D1*
X423941Y649134D2*
X499648D1*
X603344D2*
X698452D1*
X752573D2*
X855079D1*
X917205D2*
X1492051D1*
X1766614D2*
X1832441D1*
X2103229D2*
X2190432D1*
X2219647D2*
X2332602D1*
X423941Y645328D2*
X492997D1*
X609995D2*
X702250D1*
X756380D2*
X855079D1*
X917205D2*
X1494819D1*
X1766614D2*
X1832441D1*
X2103229D2*
X2172700D1*
X2237379D2*
X2332602D1*
X423941Y641522D2*
X487261D1*
X615732D2*
X706057D1*
X760186D2*
X855079D1*
X917205D2*
X1497580D1*
X1766614D2*
X1832441D1*
X2103229D2*
X2162104D1*
X2247975D2*
X2332602D1*
X423941Y637717D2*
X482201D1*
X620791D2*
X709863D1*
X763992D2*
X855079D1*
X917205D2*
X1500348D1*
X1766614D2*
X1832441D1*
X2103229D2*
X2153945D1*
X2256134D2*
X2332602D1*
X423941Y633911D2*
X477695D1*
X625297D2*
X713669D1*
X767799D2*
X855079D1*
X917205D2*
X1503109D1*
X1766614D2*
X1832441D1*
X2103229D2*
X2147178D1*
X2262900D2*
X2332602D1*
X423941Y630105D2*
X473635D1*
X629357D2*
X717476D1*
X771605D2*
X855079D1*
X917205D2*
X1505877D1*
X1766614D2*
X1832441D1*
X2103229D2*
X2141357D1*
X2268721D2*
X2332602D1*
X423941Y626299D2*
X469952D1*
X633041D2*
X721282D1*
X775411D2*
X855079D1*
X917205D2*
X1508637D1*
X1766614D2*
X1832441D1*
X2103229D2*
X2136244D1*
X2273835D2*
X2332602D1*
X423941Y622493D2*
X466599D1*
X636393D2*
X725088D1*
X779217D2*
X855079D1*
X917205D2*
X1511405D1*
X1766614D2*
X1832441D1*
X2103229D2*
X2131684D1*
X2278395D2*
X2332602D1*
X423941Y618688D2*
X463546D1*
X639446D2*
X728894D1*
X783024D2*
X855079D1*
X917205D2*
X1514166D1*
X1766614D2*
X1832441D1*
X2103229D2*
X2127578D1*
X2282501D2*
X2332602D1*
X423941Y614882D2*
X460755D1*
X642237D2*
X732701D1*
X786830D2*
X855079D1*
X917205D2*
X1516934D1*
X1766614D2*
X1832441D1*
X2036469D2*
X2123856D1*
X2286222D2*
X2332602D1*
X423941Y611076D2*
X458194D1*
X644798D2*
X736507D1*
X790636D2*
X855079D1*
X917205D2*
X1519695D1*
X1766614D2*
X1832441D1*
X2034685D2*
X2120481D1*
X2289598D2*
X2332602D1*
X423941Y607270D2*
X455864D1*
X647128D2*
X740313D1*
X794389D2*
X855079D1*
X917205D2*
X1522463D1*
X1766614D2*
X1832441D1*
X2032908D2*
X2117389D1*
X2292689D2*
X2332602D1*
X423941Y603465D2*
X453734D1*
X649258D2*
X744120D1*
X796988D2*
X855079D1*
X917205D2*
X1525223D1*
X1766614D2*
X1832441D1*
X2031124D2*
X2114575D1*
X2295504D2*
X2332602D1*
X423941Y599659D2*
X451797D1*
X651195D2*
X747926D1*
X798456D2*
X855079D1*
X917205D2*
X1527992D1*
X1766614D2*
X1832441D1*
X2029340D2*
X2111991D1*
X2298087D2*
X2332602D1*
X423941Y595853D2*
X450044D1*
X652949D2*
X751732D1*
X799064D2*
X855079D1*
X917205D2*
X1530752D1*
X1766614D2*
X1832441D1*
X2027564D2*
X2109638D1*
X2300440D2*
X2332602D1*
X423941Y592047D2*
X448452D1*
X654540D2*
X755538D1*
X799095D2*
X855079D1*
X917205D2*
X1533513D1*
X1766614D2*
X1832441D1*
X2025780D2*
X2107493D1*
X2302586D2*
X2332602D1*
X423941Y588241D2*
X447029D1*
X655963D2*
X759337D1*
X799095D2*
X855079D1*
X917205D2*
X1536281D1*
X1766614D2*
X1832441D1*
X2023996D2*
X2105532D1*
X2304546D2*
X2332602D1*
X423941Y584436D2*
X445768D1*
X657224D2*
X760590D1*
X799095D2*
X855079D1*
X917205D2*
X1539041D1*
X1766614D2*
X1832441D1*
X2022220D2*
X2103756D1*
X2306323D2*
X2332602D1*
X423941Y580630D2*
X444653D1*
X658339D2*
X760590D1*
X799095D2*
X855079D1*
X927270D2*
X1541810D1*
X1766614D2*
X1832441D1*
X2020436D2*
X2102157D1*
X2307922D2*
X2332602D1*
X423941Y576824D2*
X443677D1*
X659315D2*
X760590D1*
X799095D2*
X855079D1*
X936298D2*
X1544570D1*
X1766614D2*
X1832441D1*
X2018652D2*
X2100711D1*
X2309368D2*
X2332602D1*
X423941Y573018D2*
X442854D1*
X660138D2*
X760590D1*
X799095D2*
X855079D1*
X940773D2*
X1547338D1*
X1766614D2*
X1832441D1*
X2016876D2*
X2099435D1*
X2310644D2*
X2332602D1*
X423941Y569213D2*
X442170D1*
X660823D2*
X760590D1*
X799095D2*
X852187D1*
X943718D2*
X1281767D1*
X1309414D2*
X1550099D1*
X1766614D2*
X1832441D1*
X2015092D2*
X2098304D1*
X2311775D2*
X2332602D1*
X423941Y565407D2*
X441616D1*
X661376D2*
X760590D1*
X799095D2*
X850196D1*
X945710D2*
X1273278D1*
X1317903D2*
X1552867D1*
X1766614D2*
X1832441D1*
X2013308D2*
X2097320D1*
X2312759D2*
X2332602D1*
X423941Y561601D2*
X441201D1*
X661791D2*
X760590D1*
X799095D2*
X848942D1*
X946963D2*
X1267780D1*
X1323401D2*
X1555628D1*
X1766614D2*
X1832441D1*
X2011532D2*
X2096474D1*
X2313605D2*
X2332602D1*
X423941Y557795D2*
X440916D1*
X662076D2*
X760590D1*
X799095D2*
X848296D1*
X947609D2*
X1263674D1*
X1327507D2*
X1558396D1*
X1766614D2*
X1832441D1*
X2009748D2*
X2095774D1*
X2314304D2*
X2332602D1*
X423941Y553990D2*
X440762D1*
X662230D2*
X760590D1*
X799095D2*
X848227D1*
X950085D2*
X1260452D1*
X1330729D2*
X1561156D1*
X1766614D2*
X1832441D1*
X2007964D2*
X2095205D1*
X2314873D2*
X2332602D1*
X424271Y550184D2*
X440739D1*
X662253D2*
X760590D1*
X799095D2*
X848727D1*
X953891D2*
X1257891D1*
X1333290D2*
X1563925D1*
X1766614D2*
X1832441D1*
X2006187D2*
X2094782D1*
X2315296D2*
X2332264D1*
X424702Y546378D2*
X440855D1*
X662138D2*
X760590D1*
X799095D2*
X849834D1*
X957690D2*
X1255869D1*
X1335312D2*
X1566685D1*
X1766614D2*
X1832441D1*
X2004403D2*
X2094482D1*
X2315596D2*
X2331833D1*
X425133Y542572D2*
X441093D1*
X661899D2*
X760590D1*
X799095D2*
X851634D1*
X961496D2*
X1254293D1*
X1336888D2*
X1569453D1*
X1766614D2*
X1832441D1*
X2002619D2*
X2094313D1*
X2315765D2*
X2331410D1*
X425556Y538766D2*
X441470D1*
X661522D2*
X760590D1*
X799095D2*
X854310D1*
X965303D2*
X1253116D1*
X1338065D2*
X1572214D1*
X1766614D2*
X1832441D1*
X2000843D2*
X2094283D1*
X2315796D2*
X2330980D1*
X425986Y534961D2*
X441977D1*
X661015D2*
X760590D1*
X799095D2*
X858324D1*
X969109D2*
X1252317D1*
X1338865D2*
X1574982D1*
X1766614D2*
X1832441D1*
X1999059D2*
X2094383D1*
X2315696D2*
X2330549D1*
X426417Y531155D2*
X442623D1*
X660369D2*
X760590D1*
X799095D2*
X865359D1*
X972915D2*
X1251855D1*
X1339326D2*
X1577743D1*
X1766614D2*
X1832441D1*
X1997275D2*
X2094606D1*
X2315473D2*
X2330119D1*
X426847Y527349D2*
X443408D1*
X659585D2*
X760590D1*
X799095D2*
X878701D1*
X917205D2*
X922592D1*
X976721D2*
X1251732D1*
X1339449D2*
X1580511D1*
X1766614D2*
X1832441D1*
X1995499D2*
X2094967D1*
X2315112D2*
X2329696D1*
X427270Y523543D2*
X444330D1*
X658662D2*
X760590D1*
X799095D2*
X878701D1*
X917205D2*
X926398D1*
X980528D2*
X1251947D1*
X1339234D2*
X1583271D1*
X1766614D2*
X1832441D1*
X1993715D2*
X2095467D1*
X2314612D2*
X2329265D1*
X428493Y519738D2*
X445399D1*
X657593D2*
X760590D1*
X799095D2*
X868850D1*
X917205D2*
X930205D1*
X995561D2*
X1252501D1*
X1338680D2*
X1586039D1*
X1766614D2*
X1832441D1*
X1991931D2*
X2096097D1*
X2313981D2*
X2328042D1*
X429823Y515932D2*
X446622D1*
X656370D2*
X760060D1*
X804347D2*
X860061D1*
X917205D2*
X934011D1*
X1004350D2*
X1253408D1*
X1337773D2*
X1588800D1*
X1766614D2*
X1832441D1*
X1990155D2*
X2096866D1*
X2313213D2*
X2326712D1*
X431154Y512126D2*
X447998D1*
X654994D2*
X754439D1*
X809968D2*
X854440D1*
X917205D2*
X937817D1*
X1009971D2*
X1254685D1*
X1336496D2*
X1591568D1*
X1766614D2*
X1832441D1*
X1988371D2*
X2097774D1*
X2312305D2*
X2325382D1*
X432484Y508320D2*
X449528D1*
X653464D2*
X750248D1*
X814166D2*
X850250D1*
X917205D2*
X941624D1*
X1014161D2*
X1256377D1*
X1334805D2*
X1594329D1*
X1766614D2*
X1832441D1*
X1986587D2*
X2098827D1*
X2311252D2*
X2324052D1*
X433822Y504514D2*
X451235D1*
X651757D2*
X746965D1*
X817449D2*
X846959D1*
X917451D2*
X945430D1*
X1017445D2*
X1258545D1*
X1332636D2*
X1597089D1*
X1766614D2*
X1832441D1*
X1984811D2*
X2100034D1*
X2310044D2*
X2322721D1*
X435152Y500709D2*
X453112D1*
X649881D2*
X744343D1*
X820064D2*
X844344D1*
X920065D2*
X944346D1*
X1020067D2*
X1261267D1*
X1329914D2*
X1599857D1*
X1766614D2*
X1832441D1*
X1983027D2*
X2101388D1*
X2308691D2*
X2321383D1*
X436482Y496903D2*
X455180D1*
X647812D2*
X742266D1*
X822148D2*
X842268D1*
X922142D2*
X942262D1*
X1022143D2*
X1264704D1*
X1326477D2*
X1602618D1*
X1766614D2*
X1832441D1*
X1981243D2*
X2102910D1*
X2307169D2*
X2320053D1*
X438635Y493097D2*
X457448D1*
X645544D2*
X740636D1*
X823770D2*
X840638D1*
X923772D2*
X940639D1*
X1023773D2*
X1269126D1*
X1322055D2*
X1605386D1*
X1766614D2*
X1832441D1*
X1979467D2*
X2104594D1*
X2305485D2*
X2317900D1*
X441027Y489291D2*
X459932D1*
X643060D2*
X739414D1*
X824993D2*
X839415D1*
X924994D2*
X939417D1*
X1024996D2*
X1275185D1*
X1315996D2*
X1608147D1*
X1766614D2*
X1832441D1*
X1977683D2*
X2106455D1*
X2303624D2*
X2315509D1*
X443418Y485486D2*
X462654D1*
X640338D2*
X738560D1*
X825854D2*
X838562D1*
X925848D2*
X938555D1*
X1025849D2*
X1285581D1*
X1305600D2*
X1610915D1*
X1766614D2*
X1832441D1*
X1975899D2*
X2108500D1*
X2301578D2*
X2313117D1*
X445810Y481680D2*
X465622D1*
X637370D2*
X738053D1*
X826361D2*
X838046D1*
X926363D2*
X938048D1*
X1026357D2*
X1613675D1*
X1766614D2*
X1832441D1*
X1974122D2*
X2110753D1*
X2299325D2*
X2310726D1*
X448201Y477874D2*
X468875D1*
X634117D2*
X737876D1*
X826538D2*
X837877D1*
X926532D2*
X937871D1*
X1026534D2*
X1616444D1*
X1766614D2*
X1832441D1*
X1972338D2*
X2113214D1*
X2296865D2*
X2308334D1*
X450593Y474068D2*
X472451D1*
X630541D2*
X737876D1*
X826538D2*
X837877D1*
X926532D2*
X937871D1*
X1026534D2*
X1619204D1*
X1766614D2*
X1832441D1*
X1970554D2*
X2115905D1*
X2294173D2*
X2305943D1*
X453568Y470262D2*
X476388D1*
X626604D2*
X737876D1*
X826538D2*
X837877D1*
X926532D2*
X937871D1*
X1026534D2*
X1621972D1*
X1766614D2*
X1832441D1*
X1968778D2*
X2118850D1*
X2291228D2*
X2302967D1*
X457375Y466457D2*
X480748D1*
X622245D2*
X737891D1*
X826515D2*
X837893D1*
X926517D2*
X937894D1*
X1026518D2*
X1624733D1*
X1766614D2*
X1832441D1*
X1966994D2*
X2122072D1*
X2288006D2*
X2299161D1*
X461181Y462651D2*
X485623D1*
X617369D2*
X738168D1*
X826238D2*
X838169D1*
X926240D2*
X938171D1*
X1026242D2*
X1627501D1*
X1766614D2*
X1832441D1*
X1965210D2*
X2125609D1*
X2284469D2*
X2295354D1*
X464987Y458845D2*
X491128D1*
X611864D2*
X738791D1*
X825623D2*
X838785D1*
X925625D2*
X938786D1*
X1025619D2*
X1630262D1*
X1766614D2*
X1832441D1*
X1963434D2*
X2129508D1*
X2280571D2*
X2291548D1*
X468794Y455039D2*
X497464D1*
X605528D2*
X739752D1*
X824654D2*
X839753D1*
X924656D2*
X939755D1*
X1024658D2*
X1633030D1*
X1766614D2*
X1832441D1*
X1961650D2*
X2133822D1*
X2276257D2*
X2287742D1*
X472823Y451234D2*
X504969D1*
X598023D2*
X741098D1*
X823309D2*
X841099D1*
X923310D2*
X941101D1*
X1023312D2*
X1635790D1*
X1766614D2*
X1832441D1*
X1959866D2*
X2138635D1*
X2271443D2*
X2283720D1*
X478874Y447428D2*
X514351D1*
X588642D2*
X742858D1*
X821548D2*
X842860D1*
X921549D2*
X942862D1*
X1021551D2*
X1638559D1*
X1766614D2*
X1832441D1*
X1958090D2*
X2144072D1*
X2266007D2*
X2277661D1*
X484934Y443622D2*
X527776D1*
X575216D2*
X745096D1*
X819310D2*
X845098D1*
X919312D2*
X945099D1*
X1019313D2*
X1641319D1*
X1766614D2*
X1832441D1*
X1956306D2*
X2150308D1*
X2259771D2*
X2271602D1*
X490993Y439816D2*
X747903D1*
X816511D2*
X847904D1*
X916505D2*
X947898D1*
X1016507D2*
X1643464D1*
X1766614D2*
X1832441D1*
X1955591D2*
X2157667D1*
X2252412D2*
X2265542D1*
X497514Y436010D2*
X751432D1*
X812974D2*
X851434D1*
X912976D2*
X951435D1*
X1012977D2*
X1643464D1*
X1766614D2*
X1832441D1*
X1955591D2*
X2166794D1*
X2243284D2*
X2259014D1*
X508394Y432205D2*
X755992D1*
X808414D2*
X855994D1*
X908416D2*
X955995D1*
X1008417D2*
X1643464D1*
X1766614D2*
X1832441D1*
X1955591D2*
X2179566D1*
X2230512D2*
X2248141D1*
X519267Y428399D2*
X762282D1*
X802132D2*
X862276D1*
X902134D2*
X962277D1*
X1002127D2*
X2237261D1*
X544227Y424593D2*
X773601D1*
X790813D2*
X873603D1*
X890807D2*
X973596D1*
X990808D2*
X2212301D1*
X1339053Y1834567D2*
X1338941Y1831814D1*
X1338655Y1829073D1*
X1338195Y1826356D1*
X1337564Y1823674D1*
X1336765Y1821037D1*
X1335800Y1818456D1*
X1334673Y1815942D1*
X1333389Y1813503D1*
X1331954Y1811152D1*
X1330372Y1808895D1*
X1328651Y1806744D1*
X1326796Y1804706D1*
X1324817Y1802789D1*
X1322719Y1801002D1*
X1320513Y1799351D1*
X1318207Y1797844D1*
X1315809Y1796485D1*
X1313331Y1795281D1*
X1310781Y1794237D1*
X1308170Y1793356D1*
X1305509Y1792643D1*
X1302807Y1792099D1*
X1300077Y1791728D1*
X1297329Y1791531D1*
X1294573Y1791508D1*
X1291822Y1791660D1*
X1289086Y1791986D1*
X1286376Y1792484D1*
X1283703Y1793153D1*
X1281078Y1793991D1*
X1278511Y1794992D1*
X1276013Y1796155D1*
X1273593Y1797473D1*
X1271262Y1798943D1*
X1269029Y1800557D1*
X1266902Y1802309D1*
X1264891Y1804192D1*
X1263003Y1806199D1*
X1261246Y1808322D1*
X1259627Y1810551D1*
X1258153Y1812879D1*
X1256829Y1815296D1*
X1255661Y1817791D1*
X1254653Y1820356D1*
X1253810Y1822979D1*
X1253135Y1825651D1*
X1252630Y1828360D1*
X1252298Y1831095D1*
X1252140Y1833846D1*
X1252157Y1836601D1*
X1252348Y1839350D1*
X1252713Y1842081D1*
X1253251Y1844784D1*
X1253958Y1847447D1*
X1254833Y1850060D1*
X1255872Y1852612D1*
X1257070Y1855093D1*
X1258423Y1857494D1*
X1259925Y1859803D1*
X1261571Y1862013D1*
X1263354Y1864114D1*
X1265266Y1866099D1*
X1267300Y1867957D1*
X1269447Y1869684D1*
X1271700Y1871270D1*
X1274049Y1872711D1*
X1276484Y1874000D1*
X1278996Y1875133D1*
X1281575Y1876103D1*
X1284210Y1876909D1*
X1286891Y1877546D1*
X1289607Y1878011D1*
X1292346Y1878304D1*
X1295099Y1878422D1*
X1297854Y1878366D1*
X1300600Y1878136D1*
X1303326Y1877731D1*
X1306020Y1877155D1*
X1308673Y1876410D1*
X1311273Y1875497D1*
X1313810Y1874422D1*
X1316274Y1873189D1*
X1318654Y1871801D1*
X1320942Y1870266D1*
X1323128Y1868588D1*
X1325204Y1866776D1*
X1327160Y1864836D1*
X1328990Y1862775D1*
X1330685Y1860603D1*
X1332239Y1858328D1*
X1333646Y1855959D1*
X1334900Y1853505D1*
X1335997Y1850977D1*
X1336930Y1848385D1*
X1337698Y1845738D1*
X1338296Y1843049D1*
X1338723Y1840326D1*
X1338976Y1837583D1*
X1339053Y1834567D1*
X902047Y1588740D2*
Y1530165D1*
X960624Y1588742D1*
X902051Y1588740D1*
X891723Y1519842D2*
X822992D1*
Y1588739D1*
X488312Y1588740D1*
X485704Y1588178D1*
X481806Y1587640D1*
X477874Y1587453D1*
X465906Y1587492D1*
X461986Y1587833D1*
X458111Y1588524D1*
X454314Y1589559D1*
X450625Y1590930D1*
X447073Y1592626D1*
X443687Y1594632D1*
X440494Y1596933D1*
X437520Y1599511D1*
X434789Y1602345D1*
X432322Y1605411D1*
X430139Y1608686D1*
X428259Y1612143D1*
X426695Y1615755D1*
X425460Y1619492D1*
X424565Y1623325D1*
X424017Y1627222D1*
X423820Y1631153D1*
X423975Y1635085D1*
X424481Y1638988D1*
X425335Y1642830D1*
X426529Y1646581D1*
X428053Y1650209D1*
X429897Y1653686D1*
X432044Y1656985D1*
X434477Y1660078D1*
X437178Y1662941D1*
X440124Y1665550D1*
X443292Y1667886D1*
X446656Y1669929D1*
X450189Y1671662D1*
X453864Y1673073D1*
X454885Y1673388D1*
X454925Y1678574D1*
X455267Y1680734D1*
X455943Y1682814D1*
X456936Y1684762D1*
X458221Y1686532D1*
X459767Y1688078D1*
X461537Y1689364D1*
X463485Y1690357D1*
X465565Y1691032D1*
X467725Y1691374D1*
X472756Y1691417D1*
X1343928Y1691374D1*
X1346088Y1691032D1*
X1348168Y1690356D1*
X1350117Y1689364D1*
X1351886Y1688078D1*
X1353432Y1686532D1*
X1354718Y1684762D1*
X1355711Y1682814D1*
X1356387Y1680734D1*
X1356729Y1678574D1*
X1356772Y1673543D1*
Y1502445D1*
X1358740Y1502441D1*
Y1445377D1*
X1372200Y1458839D1*
X1372205Y1543620D1*
X1372376Y1545800D1*
X1372886Y1547927D1*
X1373723Y1549947D1*
X1374865Y1551812D1*
X1643858Y1922164D1*
Y1931575D1*
X1766221D1*
Y1675354D1*
X1686750D1*
X1454097Y1467012D1*
X1490630Y1467008D1*
Y1407638D1*
X1478796D1*
X1478368Y1406484D1*
X1477748Y1405139D1*
X1477024Y1403847D1*
X1476202Y1402616D1*
X1475285Y1401453D1*
X1472888Y1398974D1*
X1454309Y1380395D1*
X1537555Y1380394D1*
X1537559Y1384330D1*
X1553761D1*
X1643858Y1470822D1*
Y1478819D1*
X1766221D1*
Y1222598D1*
X1643858D1*
Y1231987D1*
X1596931Y1296201D1*
X1596929Y1265905D1*
X1537559D1*
Y1276740D1*
X1457169Y1276732D1*
X1457165Y1252126D1*
X1366607D1*
X1366614Y1110707D1*
X1457165Y1110709D1*
Y1086110D1*
X1537555Y1086102D1*
X1537559Y1096929D1*
X1596929D1*
Y1066625D1*
X1643863Y1130855D1*
X1643858Y1140236D1*
X1766221D1*
Y884016D1*
X1643858D1*
Y892005D1*
X1553760Y978507D1*
X1537559Y978504D1*
Y982433D1*
X1454309Y982441D1*
X1474280Y962469D1*
X1475285Y961381D1*
X1476202Y960219D1*
X1477024Y958987D1*
X1477748Y957695D1*
X1478370Y956345D1*
X1480473Y955197D1*
X1490630D1*
Y895826D1*
X1454098D1*
X1686741Y687484D1*
X1766221Y687480D1*
Y431260D1*
X1643858D1*
Y440664D1*
X1374865Y811022D1*
X1373723Y812887D1*
X1372886Y814908D1*
X1372376Y817034D1*
X1372205Y819219D1*
Y903989D1*
X1358741Y917455D1*
X1358740Y860394D1*
X1356779D1*
X1356772Y697165D1*
X1356600Y694985D1*
X1356090Y692859D1*
X1355253Y690838D1*
X1354110Y688973D1*
X1352690Y687310D1*
X1351027Y685890D1*
X1349162Y684747D1*
X1347141Y683910D1*
X1345015Y683400D1*
X1342835Y683228D1*
X1339059D1*
X1339055Y681260D1*
X1252126D1*
Y683236D1*
X1090866Y683228D1*
X1088686Y683400D1*
X1086559Y683910D1*
X1084539Y684747D1*
X1082674Y685890D1*
X1081008Y687313D1*
X1045718Y722604D1*
X937323Y722598D1*
X935143Y722770D1*
X933016Y723280D1*
X930996Y724117D1*
X929131Y725260D1*
X927468Y726680D1*
X926047Y728343D1*
X924905Y730208D1*
X924068Y732229D1*
X923557Y734355D1*
X923386Y736540D1*
X923429Y816369D1*
X923771Y818529D1*
X924447Y820609D1*
X925439Y822558D1*
X926725Y824327D1*
X928271Y825873D1*
X930041Y827159D1*
X931989Y828152D1*
X934069Y828828D1*
X936229Y829170D1*
X941260Y829213D1*
X1158889Y829170D1*
X1161049Y828828D1*
X1163129Y828152D1*
X1165077Y827159D1*
X1166847Y825873D1*
X1170434Y822347D1*
X1226563Y766218D1*
X1252122Y766221D1*
X1252126Y768189D1*
X1264222D1*
X1301343Y805305D1*
X1301338Y860390D1*
X1240315Y860394D1*
X1240284Y898653D1*
X1234721Y893091D1*
X1234725Y860394D1*
X1116299D1*
Y910589D1*
X1012057Y910590D1*
X916807Y815334D1*
X916811Y580739D1*
X918359Y580979D1*
X920319Y581150D1*
X922287Y581171D1*
X924251Y581042D1*
X926199Y580762D1*
X928120Y580335D1*
X930003Y579763D1*
X931837Y579048D1*
X933610Y578195D1*
X935314Y577209D1*
X936937Y576096D1*
X938470Y574863D1*
X939905Y573515D1*
X941232Y572063D1*
X942445Y570513D1*
X943536Y568875D1*
X944498Y567158D1*
X945327Y565373D1*
X946017Y563530D1*
X946564Y561639D1*
X946965Y559712D1*
X947217Y557761D1*
X947289Y556387D1*
X981980Y521697D1*
X985782Y521547D1*
X989687Y521051D1*
X993531Y520208D1*
X997284Y519024D1*
X1000917Y517509D1*
X1004399Y515675D1*
X1007703Y513537D1*
X1010803Y511112D1*
X1013673Y508419D1*
X1016291Y505480D1*
X1018635Y502318D1*
X1020687Y498960D1*
X1022430Y495431D1*
X1023850Y491761D1*
X1024936Y487978D1*
X1025679Y484113D1*
X1026074Y480197D1*
X1026142Y475787D1*
X1026098Y465788D1*
X1025745Y461868D1*
X1025044Y457995D1*
X1023999Y454201D1*
X1022618Y450516D1*
X1020913Y446968D1*
X1018898Y443588D1*
X1016588Y440401D1*
X1014002Y437434D1*
X1011161Y434711D1*
X1008088Y432252D1*
X1004807Y430078D1*
X1001344Y428207D1*
X997729Y426653D1*
X993988Y425428D1*
X990153Y424544D1*
X986254Y424006D1*
X982323Y423819D1*
X978391Y423985D1*
X974489Y424502D1*
X970650Y425366D1*
X966903Y426570D1*
X963278Y428104D1*
X959806Y429957D1*
X956514Y432113D1*
X953427Y434555D1*
X950572Y437263D1*
X947970Y440216D1*
X945643Y443390D1*
X943609Y446760D1*
X941885Y450298D1*
X940485Y453976D1*
X939419Y457765D1*
X938696Y461633D1*
X938323Y465551D1*
X938268Y471693D1*
X938302Y479487D1*
X938633Y483409D1*
X939314Y487285D1*
X940338Y491085D1*
X941699Y494778D1*
X943385Y498334D1*
X945382Y501726D1*
X946700Y503628D1*
X920636Y529702D1*
X918719Y529844D1*
X916810Y530131D1*
X916811Y504829D1*
X918635Y502318D1*
X920687Y498960D1*
X922430Y495431D1*
X923850Y491761D1*
X924936Y487978D1*
X925679Y484113D1*
X926074Y480197D1*
X926142Y475787D1*
X926098Y465788D1*
X925745Y461868D1*
X925044Y457995D1*
X923999Y454201D1*
X922618Y450516D1*
X920913Y446968D1*
X918898Y443588D1*
X916588Y440401D1*
X914002Y437434D1*
X911161Y434711D1*
X908088Y432252D1*
X904807Y430078D1*
X901344Y428207D1*
X897729Y426653D1*
X893988Y425428D1*
X890153Y424544D1*
X886254Y424006D1*
X882323Y423819D1*
X878391Y423985D1*
X874489Y424502D1*
X870650Y425366D1*
X866903Y426570D1*
X863278Y428104D1*
X859806Y429957D1*
X856514Y432113D1*
X853427Y434555D1*
X850572Y437263D1*
X847970Y440216D1*
X845643Y443390D1*
X843609Y446760D1*
X841885Y450298D1*
X840485Y453976D1*
X839419Y457765D1*
X838696Y461633D1*
X838323Y465551D1*
X838268Y471693D1*
X838302Y479487D1*
X838633Y483409D1*
X839314Y487285D1*
X840338Y491085D1*
X841699Y494778D1*
X843385Y498334D1*
X845382Y501726D1*
X847675Y504925D1*
X850245Y507906D1*
X853071Y510645D1*
X856131Y513120D1*
X859400Y515311D1*
X862852Y517201D1*
X866459Y518775D1*
X870193Y520019D1*
X874023Y520924D1*
X877919Y521483D1*
X879092Y521572D1*
X879094Y530127D1*
X877367Y529865D1*
X875405Y529707D1*
X873437Y529701D1*
X871474Y529844D1*
X869528Y530137D1*
X867610Y530578D1*
X865731Y531163D1*
X863903Y531891D1*
X862135Y532756D1*
X860439Y533754D1*
X858824Y534878D1*
X857299Y536123D1*
X855874Y537480D1*
X854557Y538942D1*
X853355Y540501D1*
X852276Y542146D1*
X851325Y543870D1*
X850509Y545661D1*
X849832Y547509D1*
X849299Y549403D1*
X848911Y551332D1*
X848672Y553286D1*
X848583Y555252D1*
X848645Y557219D1*
X848856Y559176D1*
X849216Y561110D1*
X849723Y563012D1*
X850374Y564869D1*
X851165Y566672D1*
X852091Y568408D1*
X853147Y570069D1*
X854327Y571644D1*
X855476Y572957D1*
X855472Y669676D1*
X766508Y758634D1*
X765503Y759721D1*
X764586Y760884D1*
X763763Y762115D1*
X763040Y763407D1*
X762420Y764752D1*
X761907Y766141D1*
X761505Y767566D1*
X761216Y769018D1*
X761042Y770489D1*
X760984Y773937D1*
Y777713D1*
X750157Y777717D1*
Y837087D1*
X774664D1*
X771049Y840706D1*
X750158Y840708D1*
Y851543D1*
X519546Y851535D1*
X517711Y849702D1*
X518732Y847273D1*
X519987Y843543D1*
X520902Y839715D1*
X521472Y835821D1*
X521690Y831891D1*
X521649Y829449D1*
X521297Y825530D1*
X520595Y821657D1*
X519550Y817863D1*
X518169Y814177D1*
X516464Y810630D1*
X514449Y807249D1*
X512139Y804063D1*
X509553Y801096D1*
X506712Y798372D1*
X503639Y795913D1*
X500358Y793740D1*
X496896Y791868D1*
X493280Y790314D1*
X489539Y789090D1*
X485704Y788205D1*
X481806Y787667D1*
X477874Y787480D1*
X465906Y787519D1*
X461986Y787861D1*
X458111Y788552D1*
X454314Y789587D1*
X450625Y790958D1*
X447073Y792653D1*
X443687Y794659D1*
X440494Y796961D1*
X437520Y799539D1*
X434789Y802372D1*
X432322Y805439D1*
X430139Y808714D1*
X428259Y812171D1*
X426695Y815783D1*
X425460Y819520D1*
X424565Y823352D1*
X424017Y827250D1*
X423820Y831180D1*
X423975Y835113D1*
X424481Y839016D1*
X425335Y842858D1*
X426529Y846608D1*
X428053Y850237D1*
X429897Y853714D1*
X432044Y857012D1*
X434477Y860105D1*
X437178Y862968D1*
X440124Y865578D1*
X443292Y867914D1*
X446656Y869956D1*
X450189Y871690D1*
X453864Y873100D1*
X457649Y874176D1*
X461516Y874909D1*
X465433Y875293D1*
X469724Y875354D1*
X479369Y875325D1*
X483291Y875004D1*
X487170Y874334D1*
X488652Y873983D1*
X498397Y883729D1*
X499485Y884734D1*
X500648Y885650D1*
X501879Y886473D1*
X503171Y887197D1*
X504515Y887817D1*
X505905Y888329D1*
X507330Y888731D1*
X508782Y889020D1*
X510253Y889194D1*
X513701Y889252D1*
X750160D1*
X750158Y900078D1*
X821016D1*
X821024Y903697D1*
X750158Y903701D1*
Y912567D1*
X517439Y912559D1*
X516464Y910630D1*
X514449Y907249D1*
X512139Y904063D1*
X509553Y901096D1*
X506712Y898372D1*
X503639Y895913D1*
X500358Y893740D1*
X496896Y891868D1*
X493280Y890314D1*
X489539Y889090D1*
X485704Y888205D1*
X481806Y887667D1*
X477874Y887480D1*
X465906Y887519D1*
X461986Y887861D1*
X458111Y888552D1*
X454314Y889587D1*
X450625Y890958D1*
X447073Y892653D1*
X443687Y894659D1*
X440494Y896961D1*
X437520Y899539D1*
X434789Y902372D1*
X432322Y905439D1*
X430139Y908714D1*
X428259Y912171D1*
X426695Y915783D1*
X425460Y919520D1*
X424565Y923352D1*
X424017Y927250D1*
X423820Y931180D1*
X423975Y935113D1*
X424481Y939016D1*
X425335Y942858D1*
X426529Y946608D1*
X428053Y950237D1*
X429897Y953714D1*
X432044Y957012D1*
X434477Y960105D1*
X437178Y962968D1*
X440124Y965578D1*
X443292Y967914D1*
X446656Y969956D1*
X450189Y971690D1*
X453864Y973100D1*
X457649Y974176D1*
X461516Y974909D1*
X465433Y975293D1*
X469724Y975354D1*
X479369Y975325D1*
X483291Y975004D1*
X487170Y974334D1*
X490972Y973319D1*
X494669Y971969D1*
X498230Y970293D1*
X501626Y968304D1*
X504831Y966020D1*
X507819Y963459D1*
X510566Y960640D1*
X513049Y957587D1*
X515250Y954323D1*
X517149Y950876D1*
X517432Y950270D1*
X750153Y950276D1*
X750158Y963071D1*
X771050D1*
X790130Y982154D1*
X791217Y983159D1*
X792380Y984076D1*
X793611Y984898D1*
X794903Y985622D1*
X796248Y986242D1*
X797637Y986754D1*
X799062Y987156D1*
X800514Y987445D1*
X801985Y987619D1*
X805433Y987677D1*
X849886D1*
X849323Y989789D1*
X848902Y992111D1*
X715784Y1125232D1*
X714516Y1126604D1*
X713360Y1128070D1*
X712323Y1129622D1*
X711411Y1131252D1*
X710629Y1132947D1*
X709983Y1134699D1*
X709476Y1136496D1*
X709112Y1138327D1*
X708892Y1140182D1*
X708819Y1144016D1*
Y1289631D1*
X707375Y1291750D1*
X706393Y1293455D1*
X705527Y1295222D1*
X704779Y1297043D1*
X704154Y1298909D1*
X703654Y1300813D1*
X703281Y1302745D1*
X703037Y1304698D1*
X702950Y1306195D1*
X609722Y1212974D1*
X609725Y1149528D1*
X609666Y1148048D1*
X609492Y1146577D1*
X609203Y1145125D1*
X608802Y1143700D1*
X608289Y1142311D1*
X607669Y1140966D1*
X606946Y1139674D1*
X606123Y1138443D1*
X605206Y1137280D1*
X602809Y1134801D1*
X517710Y1049702D1*
X518732Y1047273D1*
X519987Y1043543D1*
X520902Y1039715D1*
X521472Y1035821D1*
X521690Y1031891D1*
X521649Y1029449D1*
X521297Y1025530D1*
X520595Y1021657D1*
X519550Y1017863D1*
X518169Y1014177D1*
X516464Y1010630D1*
X514449Y1007249D1*
X512139Y1004063D1*
X509553Y1001096D1*
X506712Y998372D1*
X503639Y995913D1*
X500358Y993740D1*
X496896Y991868D1*
X493280Y990314D1*
X489539Y989090D1*
X485704Y988205D1*
X481806Y987667D1*
X477874Y987480D1*
X465906Y987519D1*
X461986Y987861D1*
X458111Y988552D1*
X454314Y989587D1*
X450625Y990958D1*
X447073Y992653D1*
X443687Y994659D1*
X440494Y996961D1*
X437520Y999539D1*
X434789Y1002372D1*
X432322Y1005439D1*
X430139Y1008714D1*
X428259Y1012171D1*
X426695Y1015783D1*
X425460Y1019520D1*
X424565Y1023352D1*
X424017Y1027250D1*
X423820Y1031180D1*
X423975Y1035113D1*
X424481Y1039016D1*
X425335Y1042858D1*
X426529Y1046608D1*
X428053Y1050237D1*
X429897Y1053714D1*
X432044Y1057012D1*
X434477Y1060105D1*
X437178Y1062968D1*
X440124Y1065578D1*
X443292Y1067914D1*
X446656Y1069956D1*
X450189Y1071690D1*
X453864Y1073100D1*
X457649Y1074176D1*
X461516Y1074909D1*
X465433Y1075293D1*
X469724Y1075354D1*
X479369Y1075325D1*
X483291Y1075004D1*
X487170Y1074334D1*
X488652Y1073983D1*
X572008Y1157402D1*
Y1159778D1*
X567633Y1156813D1*
X566370Y1156039D1*
X565051Y1155367D1*
X563683Y1154800D1*
X562275Y1154343D1*
X558903Y1153612D1*
X555228Y1152940D1*
X553752Y1152824D1*
X552271D1*
X550795Y1152940D1*
X547400Y1153556D1*
X543747Y1154342D1*
X542339Y1154800D1*
X540971Y1155367D1*
X539652Y1156039D1*
X536751Y1157907D1*
X533678Y1160031D1*
X532548Y1160997D1*
X530076Y1160887D1*
X518076Y1148887D1*
X519401Y1145422D1*
X520487Y1141639D1*
X521231Y1137774D1*
X521625Y1133858D1*
X521693Y1131417D1*
X521517Y1127486D1*
X520989Y1123585D1*
X520115Y1119748D1*
X518901Y1116004D1*
X517356Y1112384D1*
X515494Y1108917D1*
X513330Y1105630D1*
X510879Y1102550D1*
X508163Y1099702D1*
X505203Y1097108D1*
X502023Y1094790D1*
X498648Y1092765D1*
X495105Y1091051D1*
X491423Y1089660D1*
X487632Y1088605D1*
X483761Y1087893D1*
X479842Y1087530D1*
X473819Y1087480D1*
X465906Y1087519D1*
X461986Y1087861D1*
X458111Y1088552D1*
X454314Y1089587D1*
X450625Y1090958D1*
X447073Y1092653D1*
X443687Y1094659D1*
X440494Y1096961D1*
X437520Y1099539D1*
X434789Y1102372D1*
X432322Y1105439D1*
X430139Y1108714D1*
X428259Y1112171D1*
X426695Y1115783D1*
X425460Y1119520D1*
X424565Y1123352D1*
X424017Y1127250D1*
X423820Y1131180D1*
X423975Y1135113D1*
X424481Y1139016D1*
X425335Y1142858D1*
X426529Y1146608D1*
X428053Y1150237D1*
X429897Y1153714D1*
X432044Y1157012D1*
X434477Y1160105D1*
X437178Y1162968D1*
X440124Y1165578D1*
X443292Y1167914D1*
X446656Y1169956D1*
X450189Y1171690D1*
X453864Y1173100D1*
X457649Y1174176D1*
X461516Y1174909D1*
X465433Y1175293D1*
X469724Y1175354D1*
X479369Y1175325D1*
X483291Y1175004D1*
X487170Y1174334D1*
X489577Y1173725D1*
X510898Y1195028D1*
X512024Y1195990D1*
X514859Y1197954D1*
X517998Y1199982D1*
X519318Y1200654D1*
X520686Y1201221D1*
X522094Y1201679D1*
X525464Y1202409D1*
X529141Y1203081D1*
X530617Y1203197D1*
X532104Y1203196D1*
X533199Y1204300D1*
Y1205780D1*
X533316Y1207257D1*
X533931Y1210650D1*
X534373Y1212870D1*
X533780Y1213740D1*
X517978D1*
X516464Y1210630D1*
X514449Y1207249D1*
X512139Y1204063D1*
X509553Y1201096D1*
X506712Y1198372D1*
X503639Y1195913D1*
X500358Y1193740D1*
X496896Y1191868D1*
X493280Y1190314D1*
X489539Y1189090D1*
X485704Y1188205D1*
X481806Y1187667D1*
X477874Y1187480D1*
X465906Y1187519D1*
X461986Y1187861D1*
X458111Y1188552D1*
X454314Y1189587D1*
X450625Y1190958D1*
X447073Y1192653D1*
X443687Y1194659D1*
X440494Y1196961D1*
X437520Y1199539D1*
X434789Y1202372D1*
X432322Y1205439D1*
X430139Y1208714D1*
X428259Y1212171D1*
X426695Y1215783D1*
X425460Y1219520D1*
X424565Y1223352D1*
X424017Y1227250D1*
X423820Y1231180D1*
X423975Y1235113D1*
X424481Y1239016D1*
X425335Y1242858D1*
X426529Y1246608D1*
X428053Y1250237D1*
X429897Y1253714D1*
X432044Y1257012D1*
X434477Y1260105D1*
X437178Y1262968D1*
X440124Y1265578D1*
X443292Y1267914D1*
X446656Y1269956D1*
X450189Y1271690D1*
X453864Y1273100D1*
X457649Y1274176D1*
X461516Y1274909D1*
X465433Y1275293D1*
X469724Y1275354D1*
X479369Y1275325D1*
X483291Y1275004D1*
X487170Y1274334D1*
X490972Y1273319D1*
X494669Y1271969D1*
X498230Y1270293D1*
X501626Y1268304D1*
X504831Y1266020D1*
X507819Y1263459D1*
X510566Y1260640D1*
X513049Y1257587D1*
X515250Y1254323D1*
X516846Y1251456D1*
X530185Y1251457D1*
X527466Y1255502D1*
X526692Y1256765D1*
X526020Y1258084D1*
X525454Y1259452D1*
X524996Y1260861D1*
X524267Y1264230D1*
X523595Y1267905D1*
X523479Y1269381D1*
Y1270862D1*
X523595Y1272338D1*
X524211Y1275731D1*
X524996Y1279383D1*
X525454Y1280791D1*
X526021Y1282159D1*
X526693Y1283479D1*
X528559Y1286377D1*
X530683Y1289451D1*
X531644Y1290577D1*
X532691Y1291624D1*
X533817Y1292586D1*
X536654Y1294551D1*
X539792Y1296578D1*
X541112Y1297250D1*
X542480Y1297817D1*
X543888Y1298274D1*
X547258Y1299004D1*
X550933Y1299675D1*
X552409Y1299791D1*
X553890D1*
X555366Y1299675D1*
X558758Y1299060D1*
X562411Y1298274D1*
X563819Y1297816D1*
X565187Y1297250D1*
X566506Y1296578D1*
X569405Y1294711D1*
X572479Y1292588D1*
X573609Y1291622D1*
X576083Y1291729D1*
X596913Y1312559D1*
X517433D1*
X516464Y1310630D1*
X514449Y1307249D1*
X512139Y1304063D1*
X509553Y1301096D1*
X506712Y1298372D1*
X503639Y1295913D1*
X500358Y1293740D1*
X496896Y1291868D1*
X493280Y1290314D1*
X489539Y1289090D1*
X485704Y1288205D1*
X481806Y1287667D1*
X477874Y1287480D1*
X465906Y1287519D1*
X461986Y1287861D1*
X458111Y1288552D1*
X454314Y1289587D1*
X450625Y1290958D1*
X447073Y1292653D1*
X443687Y1294659D1*
X440494Y1296961D1*
X437520Y1299539D1*
X434789Y1302372D1*
X432322Y1305439D1*
X430139Y1308714D1*
X428259Y1312171D1*
X426695Y1315783D1*
X425460Y1319520D1*
X424565Y1323352D1*
X424017Y1327250D1*
X423820Y1331180D1*
X423975Y1335113D1*
X424481Y1339016D1*
X425335Y1342858D1*
X426529Y1346608D1*
X428053Y1350237D1*
X429897Y1353714D1*
X432044Y1357012D1*
X434477Y1360105D1*
X437178Y1362968D1*
X440124Y1365578D1*
X443292Y1367914D1*
X446656Y1369956D1*
X450189Y1371690D1*
X453864Y1373100D1*
X457649Y1374176D1*
X461516Y1374909D1*
X465433Y1375293D1*
X469724Y1375354D1*
X479369Y1375325D1*
X483291Y1375004D1*
X487170Y1374334D1*
X490972Y1373319D1*
X494669Y1371969D1*
X498230Y1370293D1*
X501626Y1368304D1*
X504831Y1366020D1*
X507819Y1363459D1*
X510566Y1360640D1*
X513049Y1357587D1*
X515250Y1354323D1*
X517149Y1350876D1*
X517432Y1350270D1*
X603131Y1350276D1*
X672019Y1419162D1*
X673107Y1420167D1*
X674270Y1421084D1*
X675501Y1421906D1*
X676793Y1422630D1*
X678138Y1423250D1*
X679527Y1423762D1*
X680952Y1424164D1*
X682404Y1424453D1*
X683875Y1424627D1*
X687323Y1424685D1*
X758027D1*
X758032Y1448984D1*
X750369Y1448976D1*
X748770Y1447862D1*
X747085Y1446845D1*
X745336Y1445942D1*
X743531Y1445157D1*
X741678Y1444494D1*
X739785Y1443954D1*
X737861Y1443541D1*
X735914Y1443257D1*
X733952Y1443102D1*
X731984Y1443077D1*
X730018Y1443183D1*
X728064Y1443419D1*
X726130Y1443784D1*
X724225Y1444276D1*
X722356Y1444894D1*
X720532Y1445634D1*
X718761Y1446493D1*
X717052Y1447468D1*
X714853Y1448977D1*
X642047Y1448976D1*
X640182Y1449050D1*
X638327Y1449269D1*
X636496Y1449633D1*
X634699Y1450140D1*
X632947Y1450786D1*
X631252Y1451568D1*
X629622Y1452480D1*
X628070Y1453518D1*
X626604Y1454674D1*
X623841Y1457333D1*
X573562Y1507612D1*
X514708Y1507610D1*
X513330Y1505603D1*
X510879Y1502523D1*
X508163Y1499674D1*
X505203Y1497081D1*
X502023Y1494762D1*
X498648Y1492738D1*
X495105Y1491023D1*
X491423Y1489633D1*
X487632Y1488577D1*
X483761Y1487865D1*
X479842Y1487502D1*
X473819Y1487452D1*
X465906Y1487492D1*
X461986Y1487833D1*
X458111Y1488524D1*
X454314Y1489559D1*
X450625Y1490930D1*
X447073Y1492626D1*
X443687Y1494632D1*
X440494Y1496933D1*
X437520Y1499511D1*
X434789Y1502345D1*
X432322Y1505411D1*
X430139Y1508686D1*
X428259Y1512143D1*
X426695Y1515755D1*
X425460Y1519492D1*
X424565Y1523325D1*
X424017Y1527222D1*
X423820Y1531153D1*
X423975Y1535085D1*
X424481Y1538988D1*
X425335Y1542830D1*
X426529Y1546581D1*
X428053Y1550209D1*
X429897Y1553686D1*
X432044Y1556985D1*
X434477Y1560078D1*
X437178Y1562941D1*
X440124Y1565550D1*
X443292Y1567886D1*
X446656Y1569929D1*
X450189Y1571662D1*
X453864Y1573073D1*
X457649Y1574149D1*
X461516Y1574881D1*
X465433Y1575265D1*
X469725Y1575326D1*
X479369Y1575297D1*
X483291Y1574977D1*
X487170Y1574306D1*
X490972Y1573292D1*
X494669Y1571941D1*
X498230Y1570265D1*
X501626Y1568277D1*
X504831Y1565993D1*
X507819Y1563431D1*
X510566Y1560612D1*
X513049Y1557559D1*
X514689Y1555169D1*
X583413D1*
X585279Y1555096D1*
X587133Y1554877D1*
X588965Y1554512D1*
X590762Y1554005D1*
X592513Y1553359D1*
X594209Y1552578D1*
X595838Y1551665D1*
X597391Y1550628D1*
X598857Y1549472D1*
X601620Y1546813D1*
X651899Y1496534D1*
X714828Y1496535D1*
X717472Y1498298D1*
X719198Y1499244D1*
X720983Y1500074D1*
X722818Y1500784D1*
X724697Y1501370D1*
X726611Y1501831D1*
X728550Y1502164D1*
X730508Y1502367D1*
X732475Y1502441D1*
X734442Y1502384D1*
X736401Y1502196D1*
X738344Y1501880D1*
X740261Y1501435D1*
X742145Y1500864D1*
X743986Y1500170D1*
X745778Y1499355D1*
X747511Y1498423D1*
X749179Y1497379D1*
X750345Y1496536D1*
X758027Y1496535D1*
X758032Y1502441D1*
X817402D1*
Y1496543D1*
X822988Y1496535D1*
X822992Y1516220D1*
X888099D1*
X891723Y1519841D1*
X902047Y1462955D2*
Y1445039D1*
X822992D1*
Y1448969D1*
X817406Y1448976D1*
X817402Y1424692D1*
X1076833Y1424685D1*
X1065720Y1435799D1*
X1064715Y1436886D1*
X1063798Y1438049D1*
X1062976Y1439280D1*
X1062252Y1440572D1*
X1061630Y1441923D1*
X1059528Y1443071D1*
X1049370D1*
Y1555277D1*
X994417Y1555276D1*
X902951Y1463810D1*
X1261395Y919764D2*
X1299685Y919762D1*
X1300354Y921575D1*
Y1023776D1*
X1298699Y1023779D1*
X1298701Y964882D1*
X1298643Y963402D1*
X1298469Y961932D1*
X1298180Y960479D1*
X1297778Y959054D1*
X1297265Y957665D1*
X1296645Y956320D1*
X1295922Y955028D1*
X1295099Y953797D1*
X1294183Y952634D1*
X1291785Y950155D1*
X1261397Y919766D1*
X1112756Y1502441D2*
X1177315D1*
X1177323Y1506213D1*
X1128257Y1555279D1*
X1108744Y1555276D1*
X1108740Y1448315D1*
X1112358Y1448307D1*
X1112362Y1502441D1*
X1112756D1*
X1224882D2*
X1230788D1*
Y1469738D1*
X1240313Y1460215D1*
X1240315Y1502441D1*
X1299685Y1502439D1*
X1301338Y1506220D1*
Y1549658D1*
X1262254Y1588745D1*
X1162048Y1588740D1*
X1217917Y1532878D1*
X1219185Y1531507D1*
X1220340Y1530040D1*
X1221378Y1528488D1*
X1222290Y1526859D1*
X1223072Y1525163D1*
X1223718Y1523411D1*
X1224225Y1521614D1*
X1224589Y1519783D1*
X1224809Y1517929D1*
X1224882Y1514094D1*
Y1502445D1*
X1339053Y527480D2*
X1338941Y524727D1*
X1338655Y521987D1*
X1338195Y519270D1*
X1337564Y516588D1*
X1336765Y513951D1*
X1335800Y511370D1*
X1334673Y508855D1*
X1333389Y506417D1*
X1331954Y504065D1*
X1330372Y501809D1*
X1328651Y499657D1*
X1326796Y497619D1*
X1324817Y495703D1*
X1322719Y493915D1*
X1320513Y492265D1*
X1318207Y490757D1*
X1315809Y489399D1*
X1313331Y488195D1*
X1310781Y487150D1*
X1308170Y486270D1*
X1305509Y485556D1*
X1302807Y485013D1*
X1300077Y484642D1*
X1297329Y484444D1*
X1294573Y484421D1*
X1291822Y484573D1*
X1289086Y484899D1*
X1286376Y485397D1*
X1283703Y486067D1*
X1281078Y486904D1*
X1278511Y487906D1*
X1276013Y489068D1*
X1273593Y490387D1*
X1271262Y491856D1*
X1269029Y493470D1*
X1266902Y495222D1*
X1264891Y497105D1*
X1263003Y499113D1*
X1261246Y501235D1*
X1259627Y503465D1*
X1258153Y505793D1*
X1256829Y508209D1*
X1255661Y510705D1*
X1254653Y513269D1*
X1253810Y515893D1*
X1253135Y518564D1*
X1252630Y521273D1*
X1252298Y524008D1*
X1252140Y526759D1*
X1252157Y529515D1*
X1252348Y532263D1*
X1252713Y534995D1*
X1253251Y537697D1*
X1253958Y540360D1*
X1254833Y542973D1*
X1255872Y545525D1*
X1257070Y548007D1*
X1258423Y550407D1*
X1259925Y552717D1*
X1261571Y554927D1*
X1263354Y557028D1*
X1265266Y559012D1*
X1267300Y560871D1*
X1269447Y562597D1*
X1271700Y564184D1*
X1274049Y565625D1*
X1276484Y566914D1*
X1278996Y568046D1*
X1281575Y569017D1*
X1284210Y569822D1*
X1286891Y570459D1*
X1289607Y570925D1*
X1292346Y571217D1*
X1295099Y571336D1*
X1297854Y571280D1*
X1300600Y571049D1*
X1303326Y570645D1*
X1306020Y570069D1*
X1308673Y569323D1*
X1311273Y568411D1*
X1313810Y567336D1*
X1316274Y566102D1*
X1318654Y564715D1*
X1320942Y563179D1*
X1323128Y561502D1*
X1325204Y559689D1*
X1327160Y557749D1*
X1328990Y555689D1*
X1330685Y553516D1*
X1332239Y551241D1*
X1333646Y548872D1*
X1334900Y546419D1*
X1335997Y543890D1*
X1336930Y541298D1*
X1337698Y538652D1*
X1338296Y535962D1*
X1338723Y533240D1*
X1338976Y530496D1*
X1339053Y527480D1*
X1299370Y1443071D2*
X1257456D1*
X1293177Y1407351D1*
X1294182Y1406263D1*
X1295099Y1405100D1*
X1295922Y1403869D1*
X1296645Y1402577D1*
X1297265Y1401233D1*
X1297778Y1399843D1*
X1298180Y1398418D1*
X1298469Y1396966D1*
X1298643Y1395495D1*
X1298701Y1392047D1*
Y1339059D1*
X1300347Y1339055D1*
X1300354Y1443067D1*
X1299370Y1443078D1*
X1746614Y1663858D2*
X1821339D1*
Y1490315D1*
X1746221D1*
Y1663858D1*
X1746614D1*
X1856458Y1572992D2*
X1856457Y1642424D1*
X1838500Y1675352D1*
X1832835Y1675354D1*
Y1931575D1*
X1955197D1*
Y1920740D1*
X2036739Y1746535D1*
X2102835D1*
Y1687165D1*
X2067606D1*
X2131193Y1636295D1*
X2193228Y1636299D1*
X2195409Y1636128D1*
X2200137Y1635330D1*
X2203987Y1634508D1*
X2207775Y1633440D1*
X2211488Y1632131D1*
X2215108Y1630586D1*
X2218621Y1628811D1*
X2222013Y1626813D1*
X2225270Y1624602D1*
X2228378Y1622186D1*
X2231323Y1619575D1*
X2234095Y1616780D1*
X2236682Y1613813D1*
X2239072Y1610685D1*
X2241256Y1607411D1*
X2243225Y1604002D1*
X2244971Y1600474D1*
X2246486Y1596841D1*
X2247765Y1593118D1*
X2248801Y1589321D1*
X2249591Y1585465D1*
X2250132Y1581566D1*
X2250420Y1577640D1*
X2250472Y1575118D1*
X2250346Y1571184D1*
X2249966Y1567266D1*
X2249336Y1563380D1*
X2248457Y1559543D1*
X2247333Y1555771D1*
X2245969Y1552079D1*
X2244370Y1548482D1*
X2242543Y1544995D1*
X2240496Y1541633D1*
X2238236Y1538409D1*
X2235774Y1535338D1*
X2233120Y1532431D1*
X2230284Y1529701D1*
X2227279Y1527159D1*
X2224116Y1524816D1*
X2220809Y1522680D1*
X2217372Y1520762D1*
X2213819Y1519069D1*
X2210164Y1517607D1*
X2206422Y1516384D1*
X2202610Y1515404D1*
X2198742Y1514671D1*
X2196482Y1514322D1*
X2194322Y1513980D1*
X2189291Y1513937D1*
X2141026Y1513974D1*
X2138865Y1514305D1*
X2134059Y1515794D1*
X1954842Y1572991D1*
X1934639Y1572992D1*
X2146081Y1439448D1*
X2194322Y1439406D1*
X2198195Y1438798D1*
X2202069Y1438100D1*
X2205890Y1437154D1*
X2209642Y1435965D1*
X2213310Y1434537D1*
X2216879Y1432876D1*
X2220333Y1430989D1*
X2223659Y1428884D1*
X2226843Y1426569D1*
X2229871Y1424054D1*
X2232732Y1421350D1*
X2235412Y1418467D1*
X2237902Y1415418D1*
X2240190Y1412215D1*
X2242268Y1408872D1*
X2244126Y1405402D1*
X2245758Y1401819D1*
X2247155Y1398140D1*
X2248313Y1394377D1*
X2249227Y1390549D1*
X2249893Y1386669D1*
X2250308Y1382755D1*
X2250470Y1378822D1*
X2250441Y1376300D1*
X2250188Y1372371D1*
X2249682Y1368468D1*
X2248927Y1364604D1*
X2247925Y1360798D1*
X2246680Y1357063D1*
X2245198Y1353417D1*
X2243484Y1349873D1*
X2241546Y1346447D1*
X2239392Y1343153D1*
X2237030Y1340004D1*
X2234471Y1337013D1*
X2231724Y1334193D1*
X2228802Y1331556D1*
X2225716Y1329111D1*
X2222480Y1326871D1*
X2219106Y1324843D1*
X2215609Y1323036D1*
X2212003Y1321458D1*
X2208303Y1320115D1*
X2204524Y1319013D1*
X2200682Y1318156D1*
X2196785Y1317547D1*
X2195409Y1317258D1*
X2193228Y1317086D1*
X2123631D1*
X2065141Y1266220D1*
X2102835D1*
Y1206850D1*
X1984410D1*
Y1209718D1*
X1939308Y1222598D1*
X1832835D1*
Y1478819D1*
X1838886D1*
X1856457Y1508113D1*
Y1573000D1*
X1821339Y781653D2*
Y698976D1*
X1746221D1*
Y872520D1*
X1821339D1*
X1821337Y781653D1*
X661846Y549528D2*
X661706Y545593D1*
X661425Y541667D1*
X661004Y537752D1*
X660445Y533856D1*
X659746Y529981D1*
X658910Y526134D1*
X657937Y522319D1*
X656829Y518542D1*
X655587Y514806D1*
X654212Y511117D1*
X652706Y507480D1*
X651072Y503898D1*
X649311Y500377D1*
X647426Y496921D1*
X645419Y493535D1*
X643292Y490222D1*
X641048Y486987D1*
X638690Y483834D1*
X636222Y480767D1*
X633645Y477791D1*
X630964Y474908D1*
X628182Y472122D1*
X625303Y469438D1*
X622329Y466858D1*
X619266Y464386D1*
X616116Y462024D1*
X612884Y459776D1*
X609574Y457645D1*
X606190Y455634D1*
X602736Y453744D1*
X599217Y451979D1*
X595638Y450340D1*
X592002Y448830D1*
X588315Y447451D1*
X584580Y446204D1*
X580804Y445091D1*
X576991Y444114D1*
X573145Y443273D1*
X569271Y442569D1*
X565375Y442005D1*
X561461Y441579D1*
X557535Y441294D1*
X553601Y441149D1*
X549664Y441144D1*
X545730Y441279D1*
X541802Y441555D1*
X537888Y441971D1*
X533990Y442526D1*
X530115Y443219D1*
X526267Y444051D1*
X522451Y445019D1*
X518672Y446123D1*
X514935Y447360D1*
X511244Y448730D1*
X507605Y450231D1*
X504021Y451861D1*
X500498Y453618D1*
X497040Y455499D1*
X493651Y457502D1*
X490335Y459625D1*
X487098Y461864D1*
X483942Y464218D1*
X480872Y466683D1*
X477892Y469256D1*
X475006Y471933D1*
X472217Y474712D1*
X469529Y477588D1*
X466946Y480558D1*
X464469Y483619D1*
X462104Y486766D1*
X459852Y489995D1*
X457717Y493302D1*
X455701Y496684D1*
X453807Y500135D1*
X452038Y503652D1*
X450395Y507230D1*
X448880Y510863D1*
X447497Y514549D1*
X446245Y518282D1*
X445127Y522056D1*
X444145Y525869D1*
X443299Y529714D1*
X442591Y533586D1*
X442022Y537482D1*
X441592Y541395D1*
X441301Y545321D1*
X441151Y549255D1*
X441142Y553192D1*
X441272Y557126D1*
X441543Y561054D1*
X441954Y564969D1*
X442504Y568867D1*
X443193Y572743D1*
X444020Y576592D1*
X444983Y580409D1*
X446082Y584190D1*
X447315Y587928D1*
X448681Y591621D1*
X450177Y595262D1*
X451803Y598848D1*
X453555Y602373D1*
X455432Y605834D1*
X457431Y609225D1*
X459549Y612543D1*
X461785Y615784D1*
X464135Y618942D1*
X466596Y622015D1*
X469165Y624998D1*
X471839Y627888D1*
X474614Y630680D1*
X477487Y633371D1*
X480454Y635959D1*
X483511Y638439D1*
X486655Y640808D1*
X489882Y643064D1*
X493187Y645203D1*
X496566Y647223D1*
X500015Y649121D1*
X503529Y650895D1*
X507105Y652542D1*
X510737Y654061D1*
X514420Y655450D1*
X518151Y656706D1*
X521925Y657828D1*
X525736Y658815D1*
X529580Y659666D1*
X533452Y660378D1*
X537346Y660953D1*
X541259Y661388D1*
X545185Y661683D1*
X549118Y661838D1*
X553055Y661853D1*
X556990Y661727D1*
X560918Y661461D1*
X564834Y661055D1*
X568732Y660509D1*
X572609Y659825D1*
X576459Y659003D1*
X580278Y658045D1*
X584059Y656950D1*
X587800Y655722D1*
X591494Y654361D1*
X595137Y652869D1*
X598724Y651248D1*
X602252Y649500D1*
X605715Y647628D1*
X609109Y645633D1*
X612430Y643518D1*
X615673Y641287D1*
X618834Y638941D1*
X621910Y636483D1*
X624896Y633918D1*
X627789Y631248D1*
X630585Y628476D1*
X633280Y625607D1*
X635871Y622643D1*
X638355Y619588D1*
X640728Y616447D1*
X642988Y613224D1*
X645131Y609921D1*
X647155Y606545D1*
X649057Y603098D1*
X650836Y599586D1*
X652488Y596012D1*
X654011Y592382D1*
X655404Y588700D1*
X656665Y584971D1*
X657792Y581199D1*
X658783Y577389D1*
X659638Y573546D1*
X660356Y569675D1*
X660935Y565781D1*
X661375Y561869D1*
X661675Y557944D1*
X661835Y554010D1*
X661846Y549528D1*
X2315389Y537717D2*
X2315249Y533782D1*
X2314968Y529856D1*
X2314548Y525941D1*
X2313988Y522044D1*
X2313289Y518170D1*
X2312453Y514323D1*
X2311480Y510508D1*
X2310372Y506731D1*
X2309130Y502995D1*
X2307755Y499306D1*
X2306250Y495669D1*
X2304616Y492087D1*
X2302855Y488566D1*
X2300969Y485110D1*
X2298962Y481724D1*
X2296835Y478411D1*
X2294591Y475176D1*
X2292234Y472023D1*
X2289765Y468956D1*
X2287189Y465980D1*
X2284508Y463097D1*
X2281726Y460311D1*
X2278846Y457627D1*
X2275873Y455047D1*
X2272809Y452574D1*
X2269659Y450213D1*
X2266427Y447965D1*
X2263117Y445834D1*
X2259733Y443823D1*
X2256279Y441933D1*
X2252760Y440168D1*
X2249181Y438529D1*
X2245545Y437019D1*
X2241858Y435640D1*
X2238124Y434393D1*
X2234348Y433280D1*
X2230534Y432303D1*
X2226688Y431462D1*
X2222815Y430758D1*
X2218918Y430194D1*
X2215005Y429768D1*
X2211078Y429483D1*
X2207144Y429338D1*
X2203207Y429333D1*
X2199273Y429468D1*
X2195346Y429744D1*
X2191431Y430160D1*
X2187534Y430715D1*
X2183658Y431408D1*
X2179810Y432240D1*
X2175994Y433208D1*
X2172215Y434312D1*
X2168478Y435549D1*
X2164788Y436919D1*
X2161148Y438420D1*
X2157565Y440050D1*
X2154041Y441807D1*
X2150583Y443688D1*
X2147194Y445691D1*
X2143879Y447814D1*
X2140641Y450053D1*
X2137485Y452407D1*
X2134416Y454872D1*
X2131436Y457445D1*
X2128549Y460122D1*
X2125761Y462901D1*
X2123073Y465777D1*
X2120489Y468747D1*
X2118013Y471808D1*
X2115647Y474955D1*
X2113396Y478184D1*
X2111260Y481491D1*
X2109245Y484873D1*
X2107351Y488324D1*
X2105581Y491841D1*
X2103938Y495419D1*
X2102424Y499052D1*
X2101040Y502738D1*
X2099788Y506471D1*
X2098671Y510245D1*
X2097688Y514058D1*
X2096843Y517903D1*
X2096135Y521775D1*
X2095565Y525671D1*
X2095135Y529584D1*
X2094845Y533510D1*
X2094695Y537444D1*
X2094685Y541381D1*
X2094816Y545315D1*
X2095087Y549243D1*
X2095497Y553158D1*
X2096048Y557056D1*
X2096736Y560932D1*
X2097563Y564781D1*
X2098526Y568598D1*
X2099625Y572379D1*
X2100858Y576117D1*
X2102224Y579810D1*
X2103720Y583451D1*
X2105346Y587037D1*
X2107098Y590562D1*
X2108975Y594023D1*
X2110974Y597414D1*
X2113093Y600732D1*
X2115328Y603973D1*
X2117678Y607131D1*
X2120139Y610204D1*
X2122708Y613187D1*
X2125382Y616077D1*
X2128157Y618869D1*
X2131030Y621560D1*
X2133997Y624148D1*
X2137055Y626628D1*
X2140199Y628997D1*
X2143425Y631253D1*
X2146730Y633392D1*
X2150109Y635412D1*
X2153558Y637310D1*
X2157072Y639084D1*
X2160648Y640731D1*
X2164280Y642250D1*
X2167964Y643639D1*
X2171695Y644895D1*
X2175468Y646017D1*
X2179279Y647004D1*
X2183123Y647855D1*
X2186995Y648567D1*
X2190890Y649142D1*
X2194802Y649577D1*
X2198728Y649872D1*
X2202662Y650027D1*
X2206598Y650041D1*
X2210533Y649916D1*
X2214461Y649650D1*
X2218377Y649244D1*
X2222276Y648698D1*
X2226153Y648014D1*
X2230003Y647192D1*
X2233821Y646234D1*
X2237603Y645139D1*
X2241343Y643911D1*
X2245037Y642550D1*
X2248680Y641058D1*
X2252268Y639437D1*
X2255795Y637689D1*
X2259258Y635817D1*
X2262652Y633822D1*
X2265973Y631707D1*
X2269216Y629476D1*
X2272377Y627130D1*
X2275453Y624672D1*
X2278439Y622107D1*
X2281332Y619437D1*
X2284128Y616665D1*
X2286823Y613796D1*
X2289414Y610832D1*
X2291898Y607777D1*
X2294271Y604636D1*
X2296531Y601413D1*
X2298674Y598110D1*
X2300698Y594734D1*
X2302601Y591287D1*
X2304379Y587775D1*
X2306031Y584201D1*
X2307554Y580571D1*
X2308947Y576889D1*
X2310208Y573160D1*
X2311335Y569388D1*
X2312327Y565578D1*
X2313182Y561735D1*
X2313899Y557864D1*
X2314478Y553970D1*
X2314918Y550058D1*
X2315218Y546133D1*
X2315378Y542199D1*
X2315389Y537717D1*
Y1821181D2*
X2315249Y1817247D1*
X2314968Y1813320D1*
X2314548Y1809406D1*
X2313988Y1805509D1*
X2313289Y1801635D1*
X2312453Y1797788D1*
X2311480Y1793973D1*
X2310372Y1790195D1*
X2309130Y1786460D1*
X2307755Y1782771D1*
X2306250Y1779133D1*
X2304616Y1775552D1*
X2302855Y1772031D1*
X2300969Y1768575D1*
X2298962Y1765188D1*
X2296835Y1761875D1*
X2294591Y1758640D1*
X2292234Y1755488D1*
X2289765Y1752421D1*
X2287189Y1749444D1*
X2284508Y1746561D1*
X2281726Y1743776D1*
X2278846Y1741091D1*
X2275873Y1738511D1*
X2272809Y1736039D1*
X2269659Y1733678D1*
X2266427Y1731430D1*
X2263117Y1729299D1*
X2259733Y1727287D1*
X2256279Y1725398D1*
X2252760Y1723632D1*
X2249181Y1721994D1*
X2245545Y1720484D1*
X2241858Y1719105D1*
X2238124Y1717858D1*
X2234348Y1716745D1*
X2230534Y1715767D1*
X2226688Y1714926D1*
X2222815Y1714223D1*
X2218918Y1713658D1*
X2215005Y1713233D1*
X2211078Y1712947D1*
X2207144Y1712802D1*
X2203207Y1712797D1*
X2199273Y1712933D1*
X2195346Y1713209D1*
X2191431Y1713624D1*
X2187534Y1714179D1*
X2183658Y1714873D1*
X2179810Y1715704D1*
X2175994Y1716673D1*
X2172215Y1717776D1*
X2168478Y1719014D1*
X2164788Y1720384D1*
X2161148Y1721885D1*
X2157565Y1723515D1*
X2154041Y1725271D1*
X2150583Y1727152D1*
X2147194Y1729156D1*
X2143879Y1731278D1*
X2140641Y1733518D1*
X2137485Y1735872D1*
X2134416Y1738337D1*
X2131436Y1740909D1*
X2128549Y1743587D1*
X2125761Y1746365D1*
X2123073Y1749241D1*
X2120489Y1752212D1*
X2118013Y1755272D1*
X2115647Y1758419D1*
X2113396Y1761649D1*
X2111260Y1764956D1*
X2109245Y1768338D1*
X2107351Y1771789D1*
X2105581Y1775306D1*
X2103938Y1778883D1*
X2102424Y1782517D1*
X2101040Y1786203D1*
X2099788Y1789935D1*
X2098671Y1793710D1*
X2097688Y1797522D1*
X2096843Y1801367D1*
X2096135Y1805240D1*
X2095565Y1809135D1*
X2095135Y1813048D1*
X2094845Y1816974D1*
X2094695Y1820908D1*
X2094685Y1824845D1*
X2094816Y1828780D1*
X2095087Y1832707D1*
X2095497Y1836623D1*
X2096048Y1840521D1*
X2096736Y1844397D1*
X2097563Y1848246D1*
X2098526Y1852063D1*
X2099625Y1855843D1*
X2100858Y1859582D1*
X2102224Y1863274D1*
X2103720Y1866916D1*
X2105346Y1870501D1*
X2107098Y1874027D1*
X2108975Y1877487D1*
X2110974Y1880879D1*
X2113093Y1884197D1*
X2115328Y1887437D1*
X2117678Y1890596D1*
X2120139Y1893668D1*
X2122708Y1896652D1*
X2125382Y1899541D1*
X2128157Y1902333D1*
X2131030Y1905025D1*
X2133997Y1907612D1*
X2137055Y1910092D1*
X2140199Y1912462D1*
X2143425Y1914717D1*
X2146730Y1916856D1*
X2150109Y1918876D1*
X2153558Y1920775D1*
X2157072Y1922549D1*
X2160648Y1924196D1*
X2164280Y1925715D1*
X2167964Y1927103D1*
X2171695Y1928359D1*
X2175468Y1929482D1*
X2179279Y1930469D1*
X2183123Y1931319D1*
X2186995Y1932032D1*
X2190890Y1932606D1*
X2194802Y1933041D1*
X2198728Y1933336D1*
X2202662Y1933491D1*
X2206598Y1933506D1*
X2210533Y1933380D1*
X2214461Y1933114D1*
X2218377Y1932708D1*
X2222276Y1932163D1*
X2226153Y1931479D1*
X2230003Y1930657D1*
X2233821Y1929698D1*
X2237603Y1928604D1*
X2241343Y1927375D1*
X2245037Y1926014D1*
X2248680Y1924523D1*
X2252268Y1922902D1*
X2255795Y1921154D1*
X2259258Y1919281D1*
X2262652Y1917286D1*
X2265973Y1915172D1*
X2269216Y1912940D1*
X2272377Y1910594D1*
X2275453Y1908137D1*
X2278439Y1905572D1*
X2281332Y1902902D1*
X2284128Y1900130D1*
X2286823Y1897260D1*
X2289414Y1894296D1*
X2291898Y1891242D1*
X2294271Y1888101D1*
X2296531Y1884877D1*
X2298674Y1881575D1*
X2300698Y1878198D1*
X2302601Y1874752D1*
X2304379Y1871239D1*
X2306031Y1867666D1*
X2307554Y1864036D1*
X2308947Y1860354D1*
X2310208Y1856624D1*
X2311335Y1852852D1*
X2312327Y1849042D1*
X2313182Y1845200D1*
X2313899Y1841329D1*
X2314478Y1837435D1*
X2314918Y1833523D1*
X2315218Y1829597D1*
X2315378Y1825664D1*
X2315389Y1821181D1*
X661846Y1809370D2*
X661706Y1805436D1*
X661425Y1801509D1*
X661004Y1797595D1*
X660445Y1793698D1*
X659746Y1789824D1*
X658910Y1785977D1*
X657937Y1782162D1*
X656829Y1778384D1*
X655587Y1774649D1*
X654212Y1770960D1*
X652706Y1767322D1*
X651072Y1763741D1*
X649311Y1760220D1*
X647426Y1756764D1*
X645419Y1753377D1*
X643292Y1750064D1*
X641048Y1746829D1*
X638690Y1743677D1*
X636222Y1740610D1*
X633645Y1737633D1*
X630964Y1734750D1*
X628182Y1731965D1*
X625303Y1729280D1*
X622329Y1726700D1*
X619266Y1724228D1*
X616116Y1721867D1*
X612884Y1719619D1*
X609574Y1717488D1*
X606190Y1715476D1*
X602736Y1713587D1*
X599217Y1711821D1*
X595638Y1710183D1*
X592002Y1708673D1*
X588315Y1707294D1*
X584580Y1706047D1*
X580804Y1704934D1*
X576991Y1703956D1*
X573145Y1703115D1*
X569271Y1702412D1*
X565375Y1701847D1*
X561461Y1701422D1*
X557535Y1701136D1*
X553601Y1700991D1*
X549664Y1700986D1*
X545730Y1701122D1*
X541802Y1701398D1*
X537888Y1701813D1*
X533990Y1702368D1*
X530115Y1703062D1*
X526267Y1703893D1*
X522451Y1704862D1*
X518672Y1705965D1*
X514935Y1707203D1*
X511244Y1708573D1*
X507605Y1710074D1*
X504021Y1711704D1*
X500498Y1713460D1*
X497040Y1715341D1*
X493651Y1717344D1*
X490335Y1719467D1*
X487098Y1721707D1*
X483942Y1724061D1*
X480872Y1726526D1*
X477892Y1729098D1*
X475006Y1731776D1*
X472217Y1734554D1*
X469529Y1737430D1*
X466946Y1740401D1*
X464469Y1743461D1*
X462104Y1746608D1*
X459852Y1749837D1*
X457717Y1753145D1*
X455701Y1756527D1*
X453807Y1759978D1*
X452038Y1763495D1*
X450395Y1767072D1*
X448880Y1770706D1*
X447497Y1774392D1*
X446245Y1778124D1*
X445127Y1781899D1*
X444145Y1785711D1*
X443299Y1789556D1*
X442591Y1793429D1*
X442022Y1797324D1*
X441592Y1801237D1*
X441301Y1805163D1*
X441151Y1809097D1*
X441142Y1813034D1*
X441272Y1816969D1*
X441543Y1820896D1*
X441954Y1824812D1*
X442504Y1828710D1*
X443193Y1832586D1*
X444020Y1836435D1*
X444983Y1840252D1*
X446082Y1844032D1*
X447315Y1847771D1*
X448681Y1851463D1*
X450177Y1855105D1*
X451803Y1858690D1*
X453555Y1862216D1*
X455432Y1865676D1*
X457431Y1869068D1*
X459549Y1872386D1*
X461785Y1875626D1*
X464135Y1878785D1*
X466596Y1881857D1*
X469165Y1884841D1*
X471839Y1887730D1*
X474614Y1890522D1*
X477487Y1893214D1*
X480454Y1895801D1*
X483511Y1898281D1*
X486655Y1900651D1*
X489882Y1902906D1*
X493187Y1905045D1*
X496566Y1907065D1*
X500015Y1908964D1*
X503529Y1910738D1*
X507105Y1912385D1*
X510737Y1913904D1*
X514420Y1915292D1*
X518151Y1916548D1*
X521925Y1917671D1*
X525736Y1918658D1*
X529580Y1919508D1*
X533452Y1920221D1*
X537346Y1920795D1*
X541259Y1921230D1*
X545185Y1921525D1*
X549118Y1921680D1*
X553055Y1921695D1*
X556990Y1921569D1*
X560918Y1921303D1*
X564834Y1920897D1*
X568732Y1920352D1*
X572609Y1919668D1*
X576459Y1918846D1*
X580278Y1917887D1*
X584059Y1916793D1*
X587800Y1915564D1*
X591494Y1914203D1*
X595137Y1912711D1*
X598724Y1911091D1*
X602252Y1909343D1*
X605715Y1907470D1*
X609109Y1905475D1*
X612430Y1903361D1*
X615673Y1901129D1*
X618834Y1898783D1*
X621910Y1896326D1*
X624896Y1893761D1*
X627789Y1891090D1*
X630585Y1888319D1*
X633280Y1885449D1*
X635871Y1882485D1*
X638355Y1879431D1*
X640728Y1876290D1*
X642988Y1873066D1*
X645131Y1869764D1*
X647155Y1866387D1*
X649057Y1862941D1*
X650836Y1859428D1*
X652488Y1855855D1*
X654011Y1852225D1*
X655404Y1848543D1*
X656665Y1844813D1*
X657792Y1841041D1*
X658783Y1837231D1*
X659638Y1833389D1*
X660356Y1829518D1*
X660935Y1825624D1*
X661375Y1821712D1*
X661675Y1817786D1*
X661835Y1813853D1*
X661846Y1809370D1*
X467756Y1387453D2*
X464727Y1387557D1*
X461986Y1387833D1*
X459267Y1388281D1*
X456581Y1388898D1*
X453940Y1389682D1*
X451352Y1390630D1*
X448830Y1391738D1*
X446381Y1393002D1*
X444017Y1394418D1*
X441746Y1395978D1*
X439578Y1397678D1*
X437520Y1399511D1*
X435581Y1401469D1*
X433769Y1403545D1*
X432090Y1405730D1*
X430552Y1408016D1*
X429160Y1410394D1*
X427920Y1412854D1*
X426836Y1415388D1*
X425914Y1417984D1*
X425156Y1420633D1*
X424565Y1423325D1*
X424145Y1426048D1*
X423896Y1428792D1*
X423819Y1431547D1*
X423915Y1434300D1*
X424184Y1437043D1*
X424624Y1439763D1*
X425234Y1442450D1*
X426011Y1445094D1*
X426952Y1447683D1*
X428053Y1450209D1*
X429311Y1452661D1*
X430720Y1455029D1*
X432275Y1457304D1*
X433969Y1459477D1*
X435796Y1461539D1*
X437748Y1463484D1*
X439819Y1465301D1*
X442000Y1466986D1*
X444282Y1468530D1*
X446656Y1469929D1*
X449113Y1471176D1*
X451644Y1472266D1*
X454238Y1473195D1*
X456885Y1473961D1*
X459575Y1474558D1*
X462297Y1474986D1*
X465040Y1475243D1*
X468150Y1475326D1*
X479762Y1475281D1*
X482509Y1475069D1*
X485238Y1474685D1*
X487937Y1474131D1*
X490596Y1473409D1*
X493205Y1472521D1*
X495753Y1471472D1*
X498230Y1470265D1*
X500626Y1468905D1*
X502933Y1467398D1*
X505140Y1465749D1*
X507240Y1463965D1*
X509224Y1462053D1*
X511084Y1460020D1*
X512813Y1457874D1*
X514405Y1455625D1*
X515852Y1453280D1*
X517149Y1450849D1*
X518291Y1448341D1*
X519274Y1445767D1*
X520094Y1443136D1*
X520747Y1440459D1*
X521231Y1437747D1*
X521544Y1435009D1*
X521684Y1432257D1*
X521649Y1429422D1*
X521439Y1426674D1*
X521058Y1423946D1*
X520506Y1421246D1*
X519786Y1418586D1*
X518901Y1415977D1*
X517854Y1413428D1*
X516649Y1410950D1*
X515291Y1408552D1*
X513786Y1406244D1*
X512139Y1404035D1*
X510357Y1401934D1*
X508446Y1399948D1*
X506415Y1398086D1*
X504271Y1396355D1*
X502023Y1394762D1*
X499679Y1393313D1*
X497249Y1392014D1*
X494743Y1390869D1*
X492169Y1389884D1*
X489539Y1389062D1*
X486863Y1388407D1*
X484151Y1387921D1*
X481413Y1387605D1*
X478662Y1387462D1*
X467756Y1387454D1*
X467759Y687483D2*
X463942Y687646D1*
X460041Y688163D1*
X456201Y689027D1*
X452454Y690231D1*
X448830Y691766D1*
X445357Y693618D1*
X442065Y695774D1*
X438978Y698216D1*
X436123Y700925D1*
X433521Y703878D1*
X431194Y707052D1*
X429160Y710421D1*
X427436Y713959D1*
X426036Y717637D1*
X424970Y721426D1*
X424248Y725295D1*
X423874Y729213D1*
X423853Y733148D1*
X424184Y737070D1*
X424865Y740947D1*
X425890Y744747D1*
X427250Y748439D1*
X428936Y751996D1*
X430933Y755387D1*
X433226Y758586D1*
X435796Y761567D1*
X438622Y764306D1*
X441682Y766781D1*
X444951Y768973D1*
X448403Y770863D1*
X452011Y772436D1*
X455744Y773681D1*
X459575Y774586D1*
X463470Y775145D1*
X467401Y775353D1*
X479369Y775325D1*
X483291Y775004D1*
X487170Y774334D1*
X490972Y773319D1*
X494669Y771969D1*
X498230Y770293D1*
X501626Y768304D1*
X504831Y766020D1*
X507819Y763459D1*
X510566Y760640D1*
X513049Y757587D1*
X515250Y754323D1*
X517149Y750876D1*
X517432Y750270D1*
X643228Y750276D1*
X644708Y750218D1*
X646178Y750044D1*
X647631Y749755D1*
X649056Y749353D1*
X650445Y748840D1*
X651790Y748220D1*
X653082Y747497D1*
X654313Y746674D1*
X655476Y745757D1*
X657955Y743360D1*
X793177Y608138D1*
X794183Y607051D1*
X795099Y605888D1*
X795922Y604657D1*
X796645Y603365D1*
X797265Y602020D1*
X797778Y600631D1*
X798180Y599206D1*
X798469Y597753D1*
X798643Y596283D1*
X798701Y592835D1*
Y518485D1*
X800917Y517509D1*
X804399Y515675D1*
X807703Y513537D1*
X810803Y511112D1*
X813673Y508419D1*
X816291Y505480D1*
X818635Y502318D1*
X820687Y498960D1*
X822430Y495431D1*
X823850Y491761D1*
X824936Y487978D1*
X825679Y484113D1*
X826074Y480197D1*
X826142Y475787D1*
X826098Y465788D1*
X825745Y461868D1*
X825044Y457995D1*
X823999Y454201D1*
X822618Y450516D1*
X820913Y446968D1*
X818898Y443588D1*
X816588Y440401D1*
X814002Y437434D1*
X811161Y434711D1*
X808088Y432252D1*
X804807Y430078D1*
X801344Y428207D1*
X797729Y426653D1*
X793988Y425428D1*
X790153Y424544D1*
X786254Y424006D1*
X782323Y423819D1*
X778391Y423985D1*
X774489Y424502D1*
X770650Y425366D1*
X766903Y426570D1*
X763278Y428104D1*
X759806Y429957D1*
X756514Y432113D1*
X753427Y434555D1*
X750572Y437263D1*
X747970Y440216D1*
X745643Y443390D1*
X743609Y446760D1*
X741885Y450298D1*
X740485Y453976D1*
X739419Y457765D1*
X738696Y461633D1*
X738323Y465551D1*
X738268Y471693D1*
X738302Y479487D1*
X738633Y483409D1*
X739314Y487285D1*
X740338Y491085D1*
X741699Y494778D1*
X743385Y498334D1*
X745382Y501726D1*
X747675Y504925D1*
X750245Y507906D1*
X753071Y510645D1*
X756131Y513120D1*
X759400Y515311D1*
X760978Y516222D1*
X760984Y586992D1*
X635354Y712559D1*
X517436D1*
X516464Y710630D1*
X514449Y707249D1*
X512139Y704063D1*
X509553Y701096D1*
X506712Y698372D1*
X503639Y695913D1*
X500358Y693740D1*
X496896Y691868D1*
X493280Y690314D1*
X489539Y689090D1*
X485704Y688205D1*
X481806Y687667D1*
X477874Y687480D1*
X467756Y687488D1*
X2196830Y848425D2*
X2200137Y847929D1*
X2203987Y847107D1*
X2207775Y846039D1*
X2211488Y844729D1*
X2215108Y843184D1*
X2218621Y841409D1*
X2222013Y839412D1*
X2225270Y837201D1*
X2228378Y834785D1*
X2231323Y832174D1*
X2234095Y829379D1*
X2236682Y826411D1*
X2239072Y823284D1*
X2241256Y820009D1*
X2243225Y816601D1*
X2244971Y813073D1*
X2246486Y809440D1*
X2247765Y805717D1*
X2248801Y801919D1*
X2249591Y798063D1*
X2250132Y794164D1*
X2250420Y790238D1*
X2250472Y787717D1*
X2250346Y783782D1*
X2249966Y779864D1*
X2249336Y775979D1*
X2248457Y772142D1*
X2247333Y768369D1*
X2245969Y764677D1*
X2244370Y761080D1*
X2242543Y757593D1*
X2240496Y754231D1*
X2238236Y751008D1*
X2235774Y747936D1*
X2233120Y745030D1*
X2230284Y742300D1*
X2227279Y739757D1*
X2224116Y737414D1*
X2220809Y735279D1*
X2217372Y733360D1*
X2213819Y731667D1*
X2210164Y730206D1*
X2206422Y728983D1*
X2202610Y728003D1*
X2198742Y727270D1*
X2196482Y726920D1*
X2194322Y726578D1*
X2189291Y726535D1*
X2131182D1*
X2067605Y675669D1*
X2102835D1*
Y616299D1*
X2036744D1*
X1955196Y442094D1*
X1955197Y431260D1*
X1832835D1*
Y687480D1*
X1838502D1*
X1856456Y720403D1*
X1856457Y854715D1*
X1838879Y884018D1*
X1832835Y884016D1*
Y1140236D1*
X1939324Y1140241D1*
X1984403Y1153120D1*
X1984410Y1155984D1*
X2102835D1*
Y1096614D1*
X2065143D1*
X2123633Y1045751D1*
X2193228Y1045748D1*
X2195409Y1045577D1*
X2200137Y1044779D1*
X2203987Y1043957D1*
X2207775Y1042889D1*
X2211488Y1041580D1*
X2215108Y1040034D1*
X2218621Y1038259D1*
X2222013Y1036262D1*
X2225270Y1034051D1*
X2228378Y1031635D1*
X2231323Y1029024D1*
X2234095Y1026229D1*
X2236682Y1023262D1*
X2239072Y1020134D1*
X2241256Y1016859D1*
X2243225Y1013451D1*
X2244971Y1009923D1*
X2246486Y1006290D1*
X2247765Y1002567D1*
X2248801Y998770D1*
X2249591Y994913D1*
X2250132Y991014D1*
X2250420Y987089D1*
X2250472Y984567D1*
X2250346Y980633D1*
X2249966Y976715D1*
X2249336Y972829D1*
X2248457Y968992D1*
X2247333Y965220D1*
X2245969Y961527D1*
X2244370Y957930D1*
X2242543Y954444D1*
X2240496Y951082D1*
X2238236Y947858D1*
X2235774Y944787D1*
X2233120Y941880D1*
X2230284Y939150D1*
X2227279Y936608D1*
X2224116Y934264D1*
X2220809Y932129D1*
X2217372Y930211D1*
X2213819Y928517D1*
X2210164Y927056D1*
X2206422Y925833D1*
X2202610Y924853D1*
X2198742Y924120D1*
X2196482Y923771D1*
X2194322Y923429D1*
X2189291Y923386D1*
X2146084D1*
X1934639Y789844D1*
X1954832Y789843D1*
X2137810Y848238D1*
X2139939Y848737D1*
X2142055Y848898D1*
X2194322Y848855D1*
X2196486Y848511D1*
X762218Y1305435D2*
X762023Y1303476D1*
X761698Y1301535D1*
X761245Y1299620D1*
X760667Y1297738D1*
X759965Y1295900D1*
X759142Y1294112D1*
X758203Y1292382D1*
X757152Y1290718D1*
X756377Y1289656D1*
X756378Y1151897D1*
X882523Y1025752D1*
X884013Y1025502D1*
X885930Y1025057D1*
X887814Y1024486D1*
X889655Y1023792D1*
X891447Y1022977D1*
X893181Y1022045D1*
X894849Y1021001D1*
X896444Y1019848D1*
X897959Y1018592D1*
X899388Y1017238D1*
X900724Y1015793D1*
X901961Y1014262D1*
X903094Y1012653D1*
X904118Y1010972D1*
X905028Y1009227D1*
X905821Y1007425D1*
X906492Y1005575D1*
X907039Y1003685D1*
X907460Y1001762D1*
X907753Y999816D1*
X907953Y996378D1*
X907888Y994411D1*
X907692Y992452D1*
X907367Y990511D1*
X906632Y987677D1*
X1173650Y987722D1*
X1201929Y1016063D1*
Y1023776D1*
X1141890Y1023779D1*
X1063150D1*
Y1110709D1*
X1153699D1*
X1153701Y1252124D1*
X1063150Y1252126D1*
Y1323975D1*
X757228Y1323976D1*
X758448Y1321995D1*
X759359Y1320250D1*
X760151Y1318449D1*
X760823Y1316599D1*
X761370Y1314708D1*
X761791Y1312786D1*
X762084Y1310840D1*
X762283Y1307402D1*
X762218Y1305435D1*
X553159Y423543D2*
X2203384D1*
X2233467Y426934D1*
X2260481Y436385D1*
X2284705Y451607D1*
X2304935Y471839D1*
X2320156Y496065D1*
X2329601Y523059D1*
X2332993Y553149D1*
X2332992Y1809683D1*
X2329603Y1839767D1*
X2320152Y1866780D1*
X2304935Y1890993D1*
X2284696Y1911233D1*
X2260471Y1926454D1*
X2233466Y1935903D1*
X2203387Y1939290D1*
X553152Y1939291D1*
X523068Y1935902D1*
X496055Y1926450D1*
X471830Y1911228D1*
X451600Y1890996D1*
X436380Y1866770D1*
X426932Y1839764D1*
X423545Y1809683D1*
X423543Y553152D1*
X426934Y523068D1*
X436385Y496055D1*
X451608Y471830D1*
X471840Y451600D1*
X496066Y436379D1*
X523060Y426935D1*
X553159Y423543D1*
X1295591Y1878418D2*
D17*
Y1791504D1*
X1252134Y1834961D2*
X1339047D1*
X862520Y1555433D2*
Y1519850D1*
X823000Y1555433D2*
X902040D1*
X1270000Y919756D2*
Y860401D1*
X1240323Y890079D2*
X1270000D1*
X1142047Y1502433D2*
Y1472756D1*
X1112370D2*
X1142047D1*
X1145984Y890079D2*
Y860401D1*
X1116307Y890079D2*
X1145984D1*
X1049378Y1531811D2*
X1108733D1*
X1295591Y571331D2*
Y484417D1*
X1252134Y527874D2*
X1339047D1*
X1270000Y1502433D2*
Y1443078D1*
X1240323Y1472756D2*
X1270000D1*
X1783780Y1663851D2*
Y1618425D1*
X1746228D2*
X1821331D1*
X1783780Y1535748D2*
Y1490323D1*
X1746228Y1535748D2*
X1821331D1*
X1783780Y744409D2*
Y698984D1*
X1746228Y744409D2*
X1821331D1*
X1783780Y872512D2*
Y827087D1*
X1746228D2*
X1821331D1*
X2073150Y1746528D2*
Y1687173D1*
Y1716850D2*
X2102827D1*
X2073150Y1266213D2*
Y1206858D1*
Y1236535D2*
X2102827D1*
X2073150Y675661D2*
Y616307D1*
Y645984D2*
X2102827D1*
X2073150Y1155976D2*
Y1096622D1*
Y1126299D2*
X2102827D1*
X472756Y1475319D2*
Y1387460D1*
X423827Y1431390D2*
X521685D1*
X1397953Y1295591D2*
Y1252134D1*
X1299528Y1339047D2*
Y1295591D1*
X1142047D2*
Y1252133D1*
X1102677Y1295591D2*
Y1252134D1*
X1082992Y1295591D2*
Y1252134D1*
X1063157Y1295591D2*
X1082992D1*
Y1110701D2*
Y1023787D1*
X1063157Y1067244D2*
X1082992D1*
X1102677Y1110701D2*
Y1023787D1*
X1122362Y1110701D2*
Y1023787D1*
X1142047Y1110701D2*
Y1023787D1*
X1161732Y1067244D2*
Y1023787D1*
X1181417Y1067244D2*
Y1023787D1*
X1299528Y1067244D2*
Y1023787D1*
X1397953Y1110701D2*
Y1067244D1*
X1153708Y1181417D2*
X1366606D1*
X837327Y927612D2*
D16*
X875902D1*
X837327Y923806D2*
X875902D1*
X837327Y920000D2*
X875902D1*
X837327Y916194D2*
X875902D1*
X837327Y912388D2*
X875902D1*
X837327Y908583D2*
X875902D1*
X837327Y904777D2*
X875902D1*
X837327Y900971D2*
X875902D1*
X837327Y897165D2*
X875902D1*
X837327Y893360D2*
X875902D1*
X837327Y889554D2*
X875902D1*
X837327Y885748D2*
X875902D1*
X837327Y881942D2*
X875902D1*
X876299Y880244D2*
Y931409D1*
X836937Y931417D1*
X836929Y880244D1*
X876291Y880236D1*
X813705Y1569344D2*
X840469D1*
X813705Y1565538D2*
X840469D1*
X813705Y1561732D2*
X840469D1*
X813705Y1557927D2*
X840469D1*
X813705Y1554121D2*
X840469D1*
X813705Y1550315D2*
X840469D1*
X813705Y1546509D2*
X840469D1*
X813705Y1542703D2*
X840469D1*
X840858Y1573150D2*
X813315D1*
X813307Y1541661D1*
X840858Y1541654D1*
X840866Y1573142D1*
X1270398Y1671706D2*
X1340469D1*
X1270398Y1667900D2*
X1340469D1*
X1270398Y1664094D2*
X1340469D1*
X1270398Y1660289D2*
X1340469D1*
X1270398Y1656483D2*
X1340469D1*
X1270398Y1652677D2*
X1340469D1*
X1270398Y1648871D2*
X1340469D1*
X1270398Y1645066D2*
X1340469D1*
X1270398Y1641260D2*
X1340469D1*
X1270398Y1637454D2*
X1340469D1*
X1270398Y1633648D2*
X1340469D1*
X1270398Y1629843D2*
X1340469D1*
X1270398Y1626037D2*
X1340469D1*
X1270398Y1622231D2*
X1340469D1*
X1270398Y1618425D2*
X1340469D1*
X1270398Y1614619D2*
X1340469D1*
X1270398Y1610814D2*
X1340469D1*
X1270398Y1607008D2*
X1340469D1*
X1270682Y1603202D2*
X1340469D1*
X1274488Y1599396D2*
X1340469D1*
X1278295Y1595591D2*
X1340469D1*
X1282101Y1591785D2*
X1340469D1*
X1285907Y1587979D2*
X1340469D1*
X1289714Y1584173D2*
X1340469D1*
X1293520Y1580367D2*
X1340469D1*
X1297325Y1576562D2*
X1340469D1*
X1301133Y1572756D2*
X1340469D1*
X1304938Y1568950D2*
X1340469D1*
X1308745Y1565144D2*
X1340469D1*
X1312551Y1561339D2*
X1340469D1*
X1316350Y1557533D2*
X1340469D1*
X1317642Y1553727D2*
X1340469D1*
X1317642Y1549921D2*
X1340469D1*
X1317642Y1546115D2*
X1340469D1*
X1317642Y1542310D2*
X1340469D1*
X1317642Y1538504D2*
X1340469D1*
X1317642Y1534698D2*
X1340469D1*
X1317642Y1530892D2*
X1340469D1*
X1317642Y1527087D2*
X1340469D1*
X1317642Y1523281D2*
X1340469D1*
X1317642Y1519475D2*
X1340469D1*
X1317642Y1515669D2*
X1340469D1*
X1317642Y1511864D2*
X1340469D1*
X1317642Y1508058D2*
X1340469D1*
X1317642Y1504252D2*
X1340469D1*
X1317642Y1500446D2*
X1340469D1*
X1317642Y1496640D2*
X1340469D1*
X1317642Y1492835D2*
X1340469D1*
X1317642Y1489029D2*
X1340469D1*
X1317642Y1485223D2*
X1340469D1*
X1317642Y1481417D2*
X1340469D1*
X1317642Y1477612D2*
X1340469D1*
X1317642Y1473806D2*
X1340469D1*
X1317642Y1470000D2*
X1340469D1*
X1317642Y1466194D2*
X1340469D1*
X1317642Y1462388D2*
X1340469D1*
X1317642Y1458583D2*
X1340469D1*
X1317642Y1454777D2*
X1340469D1*
X1317642Y1450971D2*
X1340469D1*
X1317642Y1447165D2*
X1340469D1*
X1317642Y1443360D2*
X1340469D1*
X1317642Y1439554D2*
X1340469D1*
X1317642Y1435748D2*
X1340469D1*
X1317642Y1431942D2*
X1340469D1*
X1317642Y1428136D2*
X1340469D1*
X1317642Y1424331D2*
X1340469D1*
X1317642Y1420525D2*
X1340469D1*
X1317642Y1416719D2*
X1340469D1*
X1317642Y1412913D2*
X1340469D1*
X1317642Y1409108D2*
X1340469D1*
X1317642Y1405302D2*
X1340469D1*
X1317642Y1401496D2*
X1340469D1*
X1317642Y1397690D2*
X1340469D1*
X1317642Y1393885D2*
X1340469D1*
X1317642Y1390079D2*
X1340469D1*
X1317642Y1386273D2*
X1340469D1*
X1317642Y1382467D2*
X1340469D1*
X1317642Y1378661D2*
X1340469D1*
X1317642Y1374856D2*
X1340469D1*
X1317642Y1371050D2*
X1340469D1*
X1317642Y1367244D2*
X1340469D1*
X1317642Y1363438D2*
X1340469D1*
X1317642Y1359633D2*
X1340469D1*
X1317642Y1355827D2*
X1340469D1*
X1317642Y1352021D2*
X1340469D1*
X1317642Y1348215D2*
X1340469D1*
X1317642Y1344409D2*
X1340469D1*
X1317642Y1340604D2*
X1340469D1*
X1317642Y1336798D2*
X1340469D1*
X1317642Y1332992D2*
X1340469D1*
X1317642Y1329186D2*
X1340469D1*
X1317642Y1325381D2*
X1340469D1*
X1317252Y1325118D2*
X1340858D1*
X1340866Y1675504D1*
X1270008Y1675512D1*
X1270000Y1603500D1*
X1316869Y1556591D1*
X1317148Y1556042D1*
X1317244Y1555433D1*
Y1325126D1*
X1317642Y1033911D2*
X1340469D1*
X1317642Y1030105D2*
X1340469D1*
X1317642Y1026299D2*
X1340469D1*
X1317642Y1022493D2*
X1340469D1*
X1317642Y1018688D2*
X1340469D1*
X1317642Y1014882D2*
X1340469D1*
X1317642Y1011076D2*
X1340469D1*
X1317642Y1007270D2*
X1340469D1*
X1317642Y1003465D2*
X1340469D1*
X1317642Y999659D2*
X1340469D1*
X1317642Y995853D2*
X1340469D1*
X1317642Y992047D2*
X1340469D1*
X1317642Y988241D2*
X1340469D1*
X1317642Y984436D2*
X1340469D1*
X1317642Y980630D2*
X1340469D1*
X1317642Y976824D2*
X1340469D1*
X1317642Y973018D2*
X1340469D1*
X1317642Y969213D2*
X1340469D1*
X1317642Y965407D2*
X1340469D1*
X1317642Y961601D2*
X1340469D1*
X1317642Y957795D2*
X1340469D1*
X1317642Y953990D2*
X1340469D1*
X1317642Y950184D2*
X1340469D1*
X1317642Y946378D2*
X1340469D1*
X1317642Y942572D2*
X1340469D1*
X1317642Y938766D2*
X1340469D1*
X1317642Y934961D2*
X1340469D1*
X1317642Y931155D2*
X1340469D1*
X1317642Y927349D2*
X1340469D1*
X1317642Y923543D2*
X1340469D1*
X1317642Y919738D2*
X1340469D1*
X1317642Y915932D2*
X1340469D1*
X1317642Y912126D2*
X1340469D1*
X1317642Y908320D2*
X1340469D1*
X1317642Y904514D2*
X1340469D1*
X1317642Y900709D2*
X1340469D1*
X1317642Y896903D2*
X1340469D1*
X1317642Y893097D2*
X1340469D1*
X1317642Y889291D2*
X1340469D1*
X1317642Y885486D2*
X1340469D1*
X1317642Y881680D2*
X1340469D1*
X1317642Y877874D2*
X1340469D1*
X1317642Y874068D2*
X1340469D1*
X1317642Y870262D2*
X1340469D1*
X1317642Y866457D2*
X1340469D1*
X1317642Y862651D2*
X1340469D1*
X1317642Y858845D2*
X1340469D1*
X1317642Y855039D2*
X1340469D1*
X1317642Y851234D2*
X1340469D1*
X1317642Y847428D2*
X1340469D1*
X1317642Y843622D2*
X1340469D1*
X1317642Y839816D2*
X1340469D1*
X1317642Y836010D2*
X1340469D1*
X1317642Y832205D2*
X1340469D1*
X1317642Y828399D2*
X1340469D1*
X1317642Y824593D2*
X1340469D1*
X1317642Y820787D2*
X1340469D1*
X1317642Y816982D2*
X1340469D1*
X1317642Y813176D2*
X1340469D1*
X1317642Y809370D2*
X1340469D1*
X1317642Y805564D2*
X1340469D1*
X1317642Y801759D2*
X1340469D1*
X1316881Y797953D2*
X1340469D1*
X1313073Y794147D2*
X1340469D1*
X1309268Y790341D2*
X1340469D1*
X1305462Y786535D2*
X1340469D1*
X1301655Y782730D2*
X1340469D1*
X1297849Y778924D2*
X1340469D1*
X1294043Y775118D2*
X1340469D1*
X1290236Y771312D2*
X1340469D1*
X1286430Y767507D2*
X1340469D1*
X1282623Y763701D2*
X1340469D1*
X1278818Y759895D2*
X1340469D1*
X1275012Y756089D2*
X1340469D1*
X1271213Y752283D2*
X1340469D1*
X1270398Y748478D2*
X1340469D1*
X1270398Y744672D2*
X1340469D1*
X1270398Y740866D2*
X1340469D1*
X1270398Y737060D2*
X1340469D1*
X1270398Y733255D2*
X1340469D1*
X1270398Y729449D2*
X1340469D1*
X1270398Y725643D2*
X1340469D1*
X1270398Y721837D2*
X1340469D1*
X1270398Y718031D2*
X1340469D1*
X1270398Y714226D2*
X1340469D1*
X1270398Y710420D2*
X1340469D1*
X1270398Y706614D2*
X1340469D1*
X1270398Y702808D2*
X1340469D1*
X1340858Y1037717D2*
X1317252D1*
X1317238Y799373D1*
X1317094Y798774D1*
X1316773Y798249D1*
X1270001Y751470D1*
X1270000Y699142D1*
X1340858Y699134D1*
X1340866Y1037709D1*
X1070748Y1248478D2*
X1472358D1*
X1078837Y1244672D2*
X1472358D1*
X1086927Y1240866D2*
X1472358D1*
X1089249Y1237060D2*
X1472358D1*
X1089134Y1233255D2*
X1472358D1*
X1089018Y1229449D2*
X1472358D1*
X1088903Y1225643D2*
X1472358D1*
X1088787Y1221837D2*
X1472358D1*
X1088672Y1218031D2*
X1472358D1*
X1088556Y1214226D2*
X1472358D1*
X1088442Y1210420D2*
X1472358D1*
X1088327Y1206614D2*
X1472358D1*
X1088211Y1202808D2*
X1472358D1*
X1088096Y1199003D2*
X1472358D1*
X1087980Y1195197D2*
X1472358D1*
X1087865Y1191391D2*
X1472358D1*
X1087749Y1187585D2*
X1472358D1*
X1087634Y1183780D2*
X1472358D1*
X1087518Y1179974D2*
X1472358D1*
X1087404Y1176168D2*
X1472358D1*
X1087289Y1172362D2*
X1472358D1*
X1087173Y1168556D2*
X1472358D1*
X1087058Y1164751D2*
X1472358D1*
X1086942Y1160945D2*
X1472358D1*
X1086827Y1157139D2*
X1472358D1*
X1086711Y1153333D2*
X1472358D1*
X1086596Y1149528D2*
X1472358D1*
X1086480Y1145722D2*
X1472358D1*
X1086366Y1141916D2*
X1472358D1*
X1086251Y1138110D2*
X1472358D1*
X1086135Y1134304D2*
X1472358D1*
X1086020Y1130499D2*
X1472358D1*
X1085904Y1126693D2*
X1472358D1*
X1085789Y1122887D2*
X1472358D1*
X1085673Y1119081D2*
X1472358D1*
X1085558Y1115276D2*
X1472358D1*
X1085442Y1111470D2*
X1472358D1*
X1472748Y1252283D2*
X1062269D1*
X1088035Y1240133D1*
X1088484Y1239710D1*
X1088781Y1239171D1*
X1088896Y1238566D1*
X1085021Y1110558D1*
X1472748Y1110551D1*
X1472756Y1252276D1*
X1414098Y1033911D2*
X1421177D1*
X1414098Y1030105D2*
X1424038D1*
X1414513Y1026299D2*
X1427844D1*
X1418320Y1022493D2*
X1431651D1*
X1422126Y1018688D2*
X1435457D1*
X1425933Y1014882D2*
X1580626D1*
X1429739Y1011076D2*
X1580626D1*
X1433545Y1007270D2*
X1580626D1*
X1437352Y1003465D2*
X1580626D1*
X1441157Y999659D2*
X1580626D1*
X1421567Y1037717D2*
X1413709D1*
X1413701Y1026728D1*
X1442077Y998344D1*
X1581016Y998346D1*
X1581024Y1018024D1*
X1437168Y1018038D1*
X1436570Y1018181D1*
X1436045Y1018503D1*
X1421950Y1032622D1*
X1421671Y1033171D1*
X1421575Y1033780D1*
Y1037709D1*
X1388508Y919738D2*
X1415272D1*
X1388508Y915932D2*
X1415272D1*
X1388508Y912126D2*
X1415272D1*
X1388508Y908320D2*
X1415903D1*
X1388508Y904514D2*
X1420155D1*
X1388508Y900709D2*
X1424407D1*
X1388508Y896903D2*
X1428651D1*
X1388508Y893097D2*
X1432904D1*
X1388508Y889291D2*
X1437156D1*
X1388508Y885486D2*
X1441400D1*
X1388508Y881680D2*
X1445652D1*
X1388508Y877874D2*
X1449906D1*
X1388508Y874068D2*
X1454150D1*
X1388508Y870262D2*
X1458402D1*
X1388508Y866457D2*
X1462655D1*
X1388508Y862651D2*
X1466899D1*
X1388508Y858845D2*
X1471151D1*
X1388508Y855039D2*
X1475403D1*
X1388508Y851234D2*
X1479656D1*
X1388508Y847428D2*
X1483900D1*
X1388508Y843622D2*
X1488152D1*
X1388508Y839816D2*
X1492404D1*
X1388508Y836010D2*
X1496650D1*
X1388508Y832205D2*
X1500902D1*
X1388508Y828399D2*
X1505154D1*
X1388508Y824593D2*
X1509399D1*
X1388508Y820787D2*
X1513651D1*
X1390592Y816982D2*
X1517903D1*
X1393352Y813176D2*
X1522148D1*
X1396121Y809370D2*
X1526400D1*
X1398881Y805564D2*
X1530652D1*
X1401650Y801759D2*
X1534896D1*
X1404409Y797953D2*
X1539150D1*
X1407171Y794147D2*
X1543402D1*
X1409938Y790341D2*
X1547646D1*
X1412699Y786535D2*
X1551898D1*
X1415467Y782730D2*
X1556151D1*
X1418227Y778924D2*
X1560395D1*
X1420996Y775118D2*
X1564647D1*
X1423756Y771312D2*
X1568900D1*
X1426525Y767507D2*
X1573144D1*
X1429285Y763701D2*
X1577396D1*
X1432054Y759895D2*
X1581648D1*
X1434814Y756089D2*
X1585894D1*
X1437581Y752283D2*
X1590146D1*
X1440343Y748478D2*
X1594398D1*
X1443110Y744672D2*
X1598643D1*
X1445871Y740866D2*
X1602895D1*
X1448639Y737060D2*
X1607147D1*
X1451400Y733255D2*
X1611391D1*
X1454168Y729449D2*
X1615644D1*
X1456929Y725643D2*
X1619896D1*
X1459697Y721837D2*
X1624140D1*
X1462458Y718031D2*
X1628394D1*
X1465226Y714226D2*
X1632646D1*
X1467986Y710420D2*
X1636898D1*
X1470747Y706614D2*
X1641142D1*
X1473514Y702808D2*
X1645395D1*
X1476276Y699003D2*
X1649647D1*
X1479043Y695197D2*
X1653891D1*
X1481804Y691391D2*
X1658143D1*
X1484572Y687585D2*
X1662396D1*
X1487333Y683780D2*
X1666640D1*
X1490101Y679974D2*
X1670892D1*
X1492862Y676168D2*
X1675146D1*
X1495630Y672362D2*
X1654999D1*
X1498390Y668556D2*
X1654999D1*
X1501159Y664751D2*
X1654999D1*
X1503919Y660945D2*
X1654999D1*
X1506688Y657139D2*
X1654999D1*
X1509448Y653333D2*
X1654999D1*
X1512217Y649528D2*
X1654999D1*
X1514976Y645722D2*
X1654999D1*
X1517744Y641916D2*
X1654999D1*
X1520505Y638110D2*
X1654999D1*
X1523273Y634304D2*
X1654999D1*
X1526034Y630499D2*
X1654999D1*
X1528802Y626693D2*
X1654999D1*
X1531563Y622887D2*
X1654999D1*
X1534323Y619081D2*
X1654999D1*
X1537092Y615276D2*
X1654999D1*
X1539852Y611470D2*
X1654999D1*
X1542621Y607664D2*
X1654999D1*
X1545381Y603858D2*
X1654999D1*
X1548148Y600052D2*
X1654999D1*
X1550909Y596247D2*
X1654999D1*
X1553677Y592441D2*
X1654999D1*
X1556438Y588635D2*
X1654999D1*
X1559206Y584829D2*
X1654999D1*
X1561967Y581024D2*
X1654999D1*
X1564735Y577218D2*
X1654999D1*
X1567496Y573412D2*
X1654999D1*
X1570264Y569606D2*
X1654999D1*
X1573024Y565801D2*
X1654999D1*
X1575793Y561995D2*
X1654999D1*
X1578552Y558189D2*
X1654999D1*
X1581322Y554383D2*
X1654999D1*
X1584081Y550577D2*
X1654999D1*
X1586850Y546772D2*
X1654999D1*
X1589610Y542966D2*
X1654999D1*
X1592379Y539160D2*
X1654999D1*
X1595139Y535354D2*
X1654999D1*
X1597900Y531549D2*
X1654999D1*
X1600668Y527743D2*
X1654999D1*
X1603428Y523937D2*
X1654999D1*
X1606197Y520131D2*
X1654999D1*
X1608957Y516325D2*
X1654999D1*
X1611726Y512520D2*
X1654999D1*
X1614486Y508714D2*
X1654999D1*
X1617255Y504908D2*
X1654999D1*
X1620014Y501102D2*
X1654999D1*
X1622783Y497297D2*
X1654999D1*
X1625543Y493491D2*
X1654999D1*
X1628311Y489685D2*
X1654999D1*
X1631072Y485879D2*
X1654999D1*
X1633840Y482073D2*
X1654999D1*
X1636601Y478268D2*
X1654999D1*
X1639369Y474462D2*
X1654999D1*
X1642130Y470656D2*
X1654999D1*
X1644898Y466850D2*
X1654999D1*
X1647659Y463045D2*
X1654999D1*
X1650427Y459239D2*
X1654999D1*
X1657362Y675945D2*
X1675778D1*
X1416140Y908486D1*
X1415819Y909010D1*
X1415676Y909609D1*
X1415669Y923535D1*
X1388118Y923543D1*
X1388110Y819850D1*
X1655390Y451860D1*
X1655394Y675945D1*
X1657362D1*
X1656409Y1120525D2*
X1675114D1*
X1653625Y1116719D2*
X1675114D1*
X1650841Y1112913D2*
X1675114D1*
X1648066Y1109108D2*
X1675114D1*
X1645282Y1105302D2*
X1675114D1*
X1642499Y1101496D2*
X1675114D1*
X1639723Y1097690D2*
X1675114D1*
X1636940Y1093885D2*
X1675114D1*
X1634156Y1090079D2*
X1675114D1*
X1631379Y1086273D2*
X1675114D1*
X1628596Y1082467D2*
X1675114D1*
X1625812Y1078661D2*
X1675114D1*
X1623037Y1074856D2*
X1675114D1*
X1620253Y1071050D2*
X1675114D1*
X1617470Y1067244D2*
X1675114D1*
X1614693Y1063438D2*
X1675114D1*
X1611909Y1059633D2*
X1675114D1*
X1609126Y1055827D2*
X1675114D1*
X1606350Y1052021D2*
X1675114D1*
X1603567Y1048215D2*
X1675114D1*
X1600783Y1044409D2*
X1675114D1*
X1598000Y1040604D2*
X1675114D1*
X1595224Y1036798D2*
X1675114D1*
X1592440Y1032992D2*
X1675114D1*
X1589656Y1029186D2*
X1675114D1*
X1586881Y1025381D2*
X1675114D1*
X1561736Y1021575D2*
X1675114D1*
X1561736Y1017769D2*
X1675114D1*
X1561736Y1013963D2*
X1675114D1*
X1561736Y1010157D2*
X1675114D1*
X1561736Y1006352D2*
X1675114D1*
X1561736Y1002546D2*
X1675114D1*
X1561736Y998740D2*
X1675114D1*
X1561736Y994934D2*
X1675114D1*
X1563974Y991129D2*
X1675114D1*
X1567941Y987323D2*
X1675114D1*
X1571902Y983517D2*
X1675114D1*
X1575869Y979711D2*
X1675114D1*
X1579829Y975906D2*
X1675114D1*
X1583797Y972100D2*
X1675114D1*
X1587757Y968294D2*
X1675114D1*
X1591724Y964488D2*
X1675114D1*
X1595685Y960682D2*
X1675114D1*
X1599654Y956877D2*
X1675114D1*
X1603621Y953071D2*
X1675114D1*
X1607581Y949265D2*
X1675114D1*
X1611549Y945459D2*
X1675114D1*
X1615509Y941654D2*
X1675114D1*
X1619476Y937848D2*
X1675114D1*
X1623437Y934042D2*
X1675114D1*
X1627404Y930236D2*
X1675114D1*
X1631365Y926430D2*
X1675114D1*
X1635332Y922625D2*
X1675114D1*
X1639299Y918819D2*
X1675114D1*
X1643260Y915013D2*
X1675114D1*
X1647227Y911207D2*
X1675114D1*
X1651188Y907402D2*
X1675114D1*
X1655155Y903596D2*
X1675114D1*
X1658799Y1124337D2*
X1584385Y1022545D1*
X1583886Y1022182D1*
X1583301Y1021992D1*
X1577087Y1021969D1*
X1561346D1*
X1561339Y993280D1*
X1658589Y899919D1*
X1675504Y899921D1*
X1675512Y1124323D1*
X1658787Y1124331D1*
X1849138Y1911864D2*
X1941392D1*
X1849138Y1908058D2*
X1943177D1*
X1849138Y1904252D2*
X1944961D1*
X1849138Y1900446D2*
X1946738D1*
X1849138Y1896640D2*
X1948521D1*
X1849138Y1892835D2*
X1950304D1*
X1849138Y1889029D2*
X1952081D1*
X1849138Y1885223D2*
X1953865D1*
X1849138Y1881417D2*
X1955650D1*
X1849138Y1877612D2*
X1957425D1*
X1849138Y1873806D2*
X1959210D1*
X1849138Y1870000D2*
X1960993D1*
X1849138Y1866194D2*
X1962769D1*
X1849138Y1862388D2*
X1964554D1*
X1849138Y1858583D2*
X1966337D1*
X1849138Y1854777D2*
X1968114D1*
X1849138Y1850971D2*
X1969898D1*
X1849138Y1847165D2*
X1971681D1*
X1849138Y1843360D2*
X1973458D1*
X1849138Y1839554D2*
X1975241D1*
X1849138Y1835748D2*
X1977026D1*
X1849138Y1831942D2*
X1978802D1*
X1849138Y1828136D2*
X1980587D1*
X1849138Y1824331D2*
X1982370D1*
X1849138Y1820525D2*
X1984146D1*
X1849138Y1816719D2*
X1985930D1*
X1849138Y1812913D2*
X1987714D1*
X1849138Y1809108D2*
X1989491D1*
X1849138Y1805302D2*
X1991274D1*
X1849138Y1801496D2*
X1993059D1*
X1849138Y1797690D2*
X1994835D1*
X1849138Y1793885D2*
X1996618D1*
X1849138Y1790079D2*
X1998403D1*
X1849138Y1786273D2*
X2000178D1*
X1849138Y1782467D2*
X2001963D1*
X1849138Y1778661D2*
X2003747D1*
X1849138Y1774856D2*
X2005524D1*
X1849138Y1771050D2*
X2007307D1*
X1849138Y1767244D2*
X2009091D1*
X1849138Y1763438D2*
X2010875D1*
X1849138Y1759633D2*
X2012651D1*
X1849138Y1755827D2*
X2014436D1*
X1849138Y1752021D2*
X2016219D1*
X1849138Y1748215D2*
X2017995D1*
X1849138Y1744409D2*
X2019780D1*
X1849138Y1740604D2*
X2021563D1*
X1849138Y1736798D2*
X2023340D1*
X1849138Y1732992D2*
X2025123D1*
X1849138Y1729186D2*
X2025508D1*
X1849138Y1725381D2*
X2025508D1*
X1849138Y1721575D2*
X2025508D1*
X1849138Y1717769D2*
X2025508D1*
X1849138Y1713963D2*
X2025508D1*
X1849138Y1710157D2*
X2025508D1*
X1849138Y1706352D2*
X2025508D1*
X1849138Y1702546D2*
X2025508D1*
X1849138Y1698740D2*
X2027285D1*
X1849138Y1694934D2*
X2032037D1*
X1849138Y1691129D2*
X2036797D1*
X1850483Y1687323D2*
X2041556D1*
X1852559Y1683517D2*
X2046308D1*
X1854635Y1679711D2*
X2051068D1*
X1856711Y1675906D2*
X2055828D1*
X1858787Y1672100D2*
X2060580D1*
X1860864Y1668294D2*
X2065340D1*
X1862941Y1664488D2*
X2070100D1*
X1865017Y1660682D2*
X2074852D1*
X1867085Y1656877D2*
X2079612D1*
X1869161Y1653071D2*
X2084371D1*
X1871238Y1649265D2*
X2089123D1*
X1872760Y1645459D2*
X2093883D1*
X1872760Y1641654D2*
X2098643D1*
X1872760Y1637848D2*
X2103395D1*
X1872760Y1634042D2*
X2108155D1*
X1872760Y1630236D2*
X2112915D1*
X1872760Y1626430D2*
X2117667D1*
X1872760Y1622625D2*
X2122427D1*
X1872760Y1618819D2*
X2190862D1*
X1872760Y1615013D2*
X2190862D1*
X1872760Y1611207D2*
X2190862D1*
X1872760Y1607402D2*
X2190862D1*
X1872760Y1603596D2*
X2190862D1*
X1872760Y1599790D2*
X2190862D1*
X1872760Y1595984D2*
X2190862D1*
X1872760Y1592178D2*
X2190862D1*
X1959350Y1588373D2*
X2190862D1*
X1971277Y1584567D2*
X2190862D1*
X1983203Y1580761D2*
X2190862D1*
X1995130Y1576955D2*
X2190862D1*
X2007049Y1573150D2*
X2190862D1*
X2018975Y1569344D2*
X2190862D1*
X2030902Y1565538D2*
X2190862D1*
X2042828Y1561732D2*
X2190862D1*
X2054755Y1557927D2*
X2190862D1*
X2066673Y1554121D2*
X2190862D1*
X2078600Y1550315D2*
X2190862D1*
X2090525Y1546509D2*
X2190862D1*
X2102451Y1542703D2*
X2190862D1*
X2114378Y1538898D2*
X2190862D1*
X2126297Y1535092D2*
X2190862D1*
X2138223Y1531286D2*
X2190862D1*
X2025906Y1732161D2*
X1940009Y1915667D1*
X1848748Y1915669D1*
X1848740Y1689791D1*
X1872248Y1646644D1*
X1872361Y1646039D1*
X1872362Y1588906D1*
X1957163Y1588891D1*
X1959482Y1588206D1*
X2142356Y1529843D1*
X2191252D1*
X2191260Y1620386D1*
X2125991Y1620417D1*
X2125406Y1620608D1*
X2123533Y1622055D1*
X2026419Y1699777D1*
X2026080Y1700291D1*
X2025917Y1700885D1*
X2025906Y1732160D1*
X1872760Y1561470D2*
X1922699D1*
X1872760Y1557664D2*
X1928728D1*
X1872760Y1553858D2*
X1934749D1*
X1872760Y1550052D2*
X1940778D1*
X1872760Y1546247D2*
X1946806D1*
X1872760Y1542441D2*
X1952827D1*
X1872760Y1538635D2*
X1958856D1*
X1872760Y1534829D2*
X1964885D1*
X1872760Y1531024D2*
X1970906D1*
X1872760Y1527218D2*
X1976933D1*
X1872760Y1523412D2*
X1982962D1*
X1872760Y1519606D2*
X1988983D1*
X1872760Y1515801D2*
X1995012D1*
X1872760Y1511995D2*
X2001033D1*
X1872760Y1508189D2*
X2007060D1*
X1872760Y1504383D2*
X2013089D1*
X1870875Y1500577D2*
X2019110D1*
X1868592Y1496772D2*
X2025139D1*
X1866308Y1492966D2*
X2031168D1*
X1864025Y1489160D2*
X2037188D1*
X1861748Y1485354D2*
X2043217D1*
X1859465Y1481549D2*
X2049245D1*
X1857181Y1477743D2*
X2055266D1*
X1854898Y1473937D2*
X2061295D1*
X1852613Y1470131D2*
X2067323D1*
X1850329Y1466325D2*
X2073344D1*
X1849138Y1462520D2*
X2079373D1*
X1849138Y1458714D2*
X2085394D1*
X1849138Y1454908D2*
X2091423D1*
X1849138Y1451102D2*
X2097450D1*
X1849138Y1447297D2*
X2103471D1*
X1849138Y1443491D2*
X2109500D1*
X1849138Y1439685D2*
X2115529D1*
X1849138Y1435879D2*
X2121550D1*
X1849138Y1432073D2*
X2127577D1*
X1849138Y1428268D2*
X2133606D1*
X1849138Y1424462D2*
X2139627D1*
X1849138Y1420656D2*
X2190862D1*
X1849138Y1416850D2*
X2190862D1*
X1849138Y1413045D2*
X2190862D1*
X1849138Y1409239D2*
X2190862D1*
X1849138Y1405433D2*
X2190862D1*
X1849138Y1401627D2*
X2190862D1*
X1849138Y1397822D2*
X2190862D1*
X1849138Y1394016D2*
X2190862D1*
X1849138Y1390210D2*
X2190862D1*
X1849138Y1386404D2*
X2190862D1*
X1849138Y1382598D2*
X2190862D1*
X1849138Y1378793D2*
X2190862D1*
X1849138Y1374987D2*
X2190862D1*
X1849138Y1371181D2*
X2190862D1*
X1849138Y1367375D2*
X2190862D1*
X1849138Y1363570D2*
X2190862D1*
X1849138Y1359764D2*
X2190862D1*
X1849138Y1355958D2*
X2190862D1*
X1849138Y1352152D2*
X2190862D1*
X1849138Y1348346D2*
X2190862D1*
X1849138Y1344541D2*
X2190862D1*
X1849138Y1340735D2*
X2190862D1*
X1849138Y1336929D2*
X2190862D1*
X1849138Y1333123D2*
X2190862D1*
X1849138Y1329318D2*
X2113068D1*
X1849138Y1325512D2*
X2108693D1*
X1849138Y1321706D2*
X2104318D1*
X1849138Y1317900D2*
X2099942D1*
X1849138Y1314094D2*
X2095567D1*
X1849138Y1310289D2*
X2091184D1*
X1849138Y1306483D2*
X2086808D1*
X1849138Y1302677D2*
X2082433D1*
X1849138Y1298871D2*
X2078058D1*
X1849138Y1295066D2*
X2073682D1*
X1849138Y1291260D2*
X2069299D1*
X1849138Y1287454D2*
X2064924D1*
X1849138Y1283648D2*
X2060549D1*
X1849138Y1279843D2*
X2056173D1*
X1849138Y1276037D2*
X2051798D1*
X1849138Y1272231D2*
X2047423D1*
X1849138Y1268425D2*
X2043039D1*
X1849138Y1264619D2*
X2038664D1*
X1849138Y1260814D2*
X2034289D1*
X1849138Y1257008D2*
X2029913D1*
X1849138Y1253202D2*
X2025539D1*
X1849138Y1249396D2*
X2025508D1*
X1849138Y1245591D2*
X2025508D1*
X1849138Y1241785D2*
X2025508D1*
X1943764Y1237979D2*
X2025508D1*
X1957091Y1234173D2*
X2025508D1*
X1970408Y1230367D2*
X2025508D1*
X1983727Y1226562D2*
X2025508D1*
X1917062Y1565276D2*
X1872370D1*
X1872339Y1503944D1*
X1872147Y1503358D1*
X1848740Y1464337D1*
Y1238512D1*
X1941415Y1238497D1*
X1943693Y1237887D1*
X1996654Y1222756D1*
X2025898D1*
X2025929Y1252592D1*
X2026119Y1253177D1*
X2026483Y1253676D1*
X2117382Y1332693D1*
X2117949Y1332933D1*
X2118408Y1332992D1*
X2191252D1*
X2191260Y1423535D1*
X2141739Y1423567D1*
X2141154Y1423757D1*
X1917068Y1565276D1*
X2130825Y829186D2*
X2190862D1*
X2118900Y825381D2*
X2190862D1*
X2106974Y821575D2*
X2190862D1*
X2095047Y817769D2*
X2190862D1*
X2083121Y813963D2*
X2190862D1*
X2071202Y810157D2*
X2190862D1*
X2059276Y806352D2*
X2190862D1*
X2047349Y802546D2*
X2190862D1*
X2035423Y798740D2*
X2190862D1*
X2023496Y794934D2*
X2190862D1*
X2011577Y791129D2*
X2190862D1*
X1999651Y787323D2*
X2190862D1*
X1987724Y783517D2*
X2190862D1*
X1975799Y779711D2*
X2190862D1*
X1963881Y775906D2*
X2190862D1*
X1872760Y772100D2*
X2190862D1*
X1872760Y768294D2*
X2190862D1*
X1872760Y764488D2*
X2190862D1*
X1872760Y760682D2*
X2190862D1*
X1872760Y756877D2*
X2190862D1*
X1872760Y753071D2*
X2190862D1*
X1872760Y749265D2*
X2190862D1*
X1872760Y745459D2*
X2190862D1*
X1872760Y741654D2*
X2124234D1*
X1872760Y737848D2*
X2119474D1*
X1872760Y734042D2*
X2114714D1*
X1872760Y730236D2*
X2109962D1*
X1872760Y726430D2*
X2105202D1*
X1872760Y722625D2*
X2100442D1*
X1872760Y718819D2*
X2095690D1*
X1872029Y715013D2*
X2090930D1*
X1869953Y711207D2*
X2086171D1*
X1867877Y707402D2*
X2081419D1*
X1865801Y703596D2*
X2076659D1*
X1863724Y699790D2*
X2071899D1*
X1861648Y695984D2*
X2067147D1*
X1859572Y692178D2*
X2062387D1*
X1857496Y688373D2*
X2057627D1*
X1855420Y684567D2*
X2052875D1*
X1853344Y680761D2*
X2048115D1*
X1851268Y676955D2*
X2043356D1*
X1849192Y673150D2*
X2038604D1*
X1849138Y669344D2*
X2033844D1*
X1849138Y665538D2*
X2029084D1*
X1849138Y661732D2*
X2025508D1*
X1849138Y657927D2*
X2025508D1*
X1849138Y654121D2*
X2025508D1*
X1849138Y650315D2*
X2025508D1*
X1849138Y646509D2*
X2025508D1*
X1849138Y642703D2*
X2025508D1*
X1849138Y638898D2*
X2025508D1*
X1849138Y635092D2*
X2025508D1*
X1849138Y631286D2*
X2025508D1*
X1849138Y627480D2*
X2024016D1*
X1849138Y623675D2*
X2022232D1*
X1849138Y619869D2*
X2020455D1*
X1849138Y616063D2*
X2018672D1*
X1849138Y612257D2*
X2016888D1*
X1849138Y608451D2*
X2015112D1*
X1849138Y604646D2*
X2013328D1*
X1849138Y600840D2*
X2011543D1*
X1849138Y597034D2*
X2009768D1*
X1849138Y593228D2*
X2007984D1*
X1849138Y589423D2*
X2006199D1*
X1849138Y585617D2*
X2004424D1*
X1849138Y581811D2*
X2002639D1*
X1849138Y578005D2*
X2000856D1*
X1849138Y574199D2*
X1999079D1*
X1849138Y570394D2*
X1997295D1*
X1849138Y566588D2*
X1995512D1*
X1849138Y562782D2*
X1993735D1*
X1849138Y558976D2*
X1991951D1*
X1849138Y555171D2*
X1990167D1*
X1849138Y551365D2*
X1988391D1*
X1849138Y547559D2*
X1986606D1*
X1849138Y543753D2*
X1984823D1*
X1849138Y539948D2*
X1983047D1*
X1849138Y536142D2*
X1981262D1*
X1849138Y532336D2*
X1979479D1*
X1849138Y528530D2*
X1977702D1*
X1849138Y524724D2*
X1975919D1*
X1849138Y520919D2*
X1974135D1*
X1849138Y517113D2*
X1972358D1*
X1849138Y513307D2*
X1970575D1*
X1849138Y509501D2*
X1968790D1*
X1849138Y505696D2*
X1967014D1*
X1849138Y501890D2*
X1965230D1*
X1849138Y498084D2*
X1963446D1*
X1849138Y494278D2*
X1961671D1*
X1849138Y490472D2*
X1959886D1*
X1849138Y486667D2*
X1958102D1*
X1849138Y482861D2*
X1956325D1*
X1849138Y479055D2*
X1954542D1*
X1849138Y475249D2*
X1952759D1*
X1849138Y471444D2*
X1950982D1*
X1849138Y467638D2*
X1949198D1*
X1849138Y463832D2*
X1947413D1*
X1849138Y460026D2*
X1945638D1*
X1849138Y456220D2*
X1943853D1*
X1849138Y452415D2*
X1942070D1*
X1849138Y448609D2*
X1940293D1*
X1940008Y447167D2*
X2025904Y630671D1*
X2025941Y662102D1*
X2026150Y662682D1*
X2026528Y663168D1*
X2125270Y742151D1*
X2125840Y742387D1*
X2126299Y742441D1*
X2191252D1*
X2191260Y832984D1*
X2142348Y832992D1*
X1957316Y773961D1*
X1951102Y773937D1*
X1872370D1*
X1872352Y716640D1*
X1872190Y716046D1*
X1848736Y673035D1*
X1848740Y447173D1*
X1940007Y447165D1*
X1983727Y1136273D2*
X2025508D1*
X1970408Y1132467D2*
X2025508D1*
X1957091Y1128661D2*
X2025508D1*
X1943764Y1124856D2*
X2025508D1*
X1849138Y1121050D2*
X2025508D1*
X1849138Y1117244D2*
X2025508D1*
X1849138Y1113438D2*
X2025508D1*
X1849138Y1109633D2*
X2025539D1*
X1849138Y1105827D2*
X2029913D1*
X1849138Y1102021D2*
X2034289D1*
X1849138Y1098215D2*
X2038664D1*
X1849138Y1094409D2*
X2043039D1*
X1849138Y1090604D2*
X2047423D1*
X1849138Y1086798D2*
X2051798D1*
X1849138Y1082992D2*
X2056173D1*
X1849138Y1079186D2*
X2060549D1*
X1849138Y1075381D2*
X2064924D1*
X1849138Y1071575D2*
X2069299D1*
X1849138Y1067769D2*
X2073682D1*
X1849138Y1063963D2*
X2078058D1*
X1849138Y1060157D2*
X2082433D1*
X1849138Y1056352D2*
X2086808D1*
X1849138Y1052546D2*
X2091184D1*
X1849138Y1048740D2*
X2095567D1*
X1849138Y1044934D2*
X2099942D1*
X1849138Y1041129D2*
X2104318D1*
X1849138Y1037323D2*
X2108693D1*
X1849138Y1033517D2*
X2113068D1*
X1849138Y1029711D2*
X2190862D1*
X1849138Y1025906D2*
X2190862D1*
X1849138Y1022100D2*
X2190862D1*
X1849138Y1018294D2*
X2190862D1*
X1849138Y1014488D2*
X2190862D1*
X1849138Y1010682D2*
X2190862D1*
X1849138Y1006877D2*
X2190862D1*
X1849138Y1003071D2*
X2190862D1*
X1849138Y999265D2*
X2190862D1*
X1849138Y995459D2*
X2190862D1*
X1849138Y991654D2*
X2190862D1*
X1849138Y987848D2*
X2190862D1*
X1849138Y984042D2*
X2190862D1*
X1849138Y980236D2*
X2190862D1*
X1849138Y976430D2*
X2190862D1*
X1849138Y972625D2*
X2190862D1*
X1849138Y968819D2*
X2190862D1*
X1849138Y965013D2*
X2190862D1*
X1849138Y961207D2*
X2190862D1*
X1849138Y957402D2*
X2190862D1*
X1849138Y953596D2*
X2190862D1*
X1849138Y949790D2*
X2190862D1*
X1849138Y945984D2*
X2190862D1*
X1849138Y942178D2*
X2190862D1*
X1849138Y938373D2*
X2139627D1*
X1849138Y934567D2*
X2133606D1*
X1849138Y930761D2*
X2127577D1*
X1849138Y926955D2*
X2121550D1*
X1849138Y923150D2*
X2115529D1*
X1849138Y919344D2*
X2109500D1*
X1849138Y915538D2*
X2103471D1*
X1849138Y911732D2*
X2097450D1*
X1849138Y907927D2*
X2091423D1*
X1849138Y904121D2*
X2085394D1*
X1849138Y900315D2*
X2079373D1*
X1850329Y896509D2*
X2073344D1*
X1852613Y892703D2*
X2067323D1*
X1854898Y888898D2*
X2061295D1*
X1857181Y885092D2*
X2055266D1*
X1859465Y881286D2*
X2049245D1*
X1861748Y877480D2*
X2043217D1*
X1864025Y873675D2*
X2037188D1*
X1866308Y869869D2*
X2031168D1*
X1868592Y866063D2*
X2025139D1*
X1870875Y862257D2*
X2019110D1*
X1872760Y858451D2*
X2013089D1*
X1872760Y854646D2*
X2007060D1*
X1872760Y850840D2*
X2001033D1*
X1872760Y847034D2*
X1995012D1*
X1872760Y843228D2*
X1988983D1*
X1872760Y839423D2*
X1982962D1*
X1872760Y835617D2*
X1976933D1*
X1872760Y831811D2*
X1970906D1*
X1872760Y828005D2*
X1964885D1*
X1872760Y824199D2*
X1958856D1*
X1872760Y820394D2*
X1952827D1*
X1872760Y816588D2*
X1946806D1*
X1872760Y812782D2*
X1940778D1*
X1872760Y808976D2*
X1934749D1*
X1872760Y805171D2*
X1928728D1*
X1872760Y801365D2*
X1922699D1*
X1872370Y797559D2*
X1917062D1*
X2141294Y939142D1*
X2141892Y939285D1*
X2191252Y939291D1*
X2191260Y1029835D1*
X2118253Y1029850D1*
X2117656Y1029999D1*
X2117134Y1030325D1*
X2026377Y1109273D1*
X2026055Y1109798D1*
X2025912Y1110396D1*
X2025906Y1140071D1*
X1996647Y1140079D1*
X1941415Y1124337D1*
X1848748Y1124331D1*
X1848740Y898499D1*
X1872213Y859336D1*
X1872356Y858738D1*
X1872362Y797567D1*
X1357012Y1006352D2*
X1365113D1*
X1357012Y1002546D2*
X1368920D1*
X1357012Y998740D2*
X1372726D1*
X1357012Y994934D2*
X1376533D1*
X1357012Y991129D2*
X1380339D1*
X1357012Y987323D2*
X1384144D1*
X1357012Y983517D2*
X1387951D1*
X1357012Y979711D2*
X1391757D1*
X1357012Y975906D2*
X1395563D1*
X1357012Y972100D2*
X1399370D1*
X1357012Y968294D2*
X1403176D1*
X1357012Y964488D2*
X1406983D1*
X1357012Y960682D2*
X1410789D1*
X1357012Y956877D2*
X1414594D1*
X1357012Y953071D2*
X1415272D1*
X1357012Y949265D2*
X1415272D1*
X1357012Y945459D2*
X1415272D1*
X1357427Y941654D2*
X1415272D1*
X1361234Y937848D2*
X1415272D1*
X1365039Y934042D2*
X1415272D1*
X1368846Y930236D2*
X1415272D1*
X1372652Y926430D2*
X1415272D1*
X1376458Y922625D2*
X1415272D1*
X1380265Y918819D2*
X1415272D1*
X1384071Y915013D2*
X1415272D1*
X1415664Y956198D2*
X1361703Y1010159D1*
X1356622Y1010157D1*
X1356614Y942083D1*
X1386957Y911732D1*
X1415661D1*
X1415669Y956185D1*
X1734965Y1644147D2*
X1769602D1*
X1734965Y1640341D2*
X1769602D1*
X1734965Y1636535D2*
X1769602D1*
X1734965Y1632730D2*
X1769602D1*
X1734965Y1628924D2*
X1769602D1*
X1734965Y1625118D2*
X1769602D1*
X1734965Y1621312D2*
X1769602D1*
X1734965Y1617507D2*
X1769602D1*
X1734965Y1613701D2*
X1769602D1*
X1734965Y1609895D2*
X1769602D1*
X1734965Y1606089D2*
X1769602D1*
X1734965Y1602283D2*
X1769602D1*
X1734965Y1598478D2*
X1769602D1*
X1734965Y1594672D2*
X1769602D1*
X1734965Y1590866D2*
X1769602D1*
X1734965Y1587060D2*
X1769602D1*
X1734965Y1583255D2*
X1769602D1*
X1734965Y1579449D2*
X1769602D1*
X1734965Y1575643D2*
X1769602D1*
X1734965Y1571837D2*
X1769602D1*
X1734965Y1568031D2*
X1769602D1*
X1734965Y1564226D2*
X1769602D1*
X1734965Y1560420D2*
X1769602D1*
X1734965Y1556614D2*
X1769602D1*
X1734965Y1552808D2*
X1769602D1*
X1734965Y1549003D2*
X1769602D1*
X1734965Y1545197D2*
X1769602D1*
X1734965Y1541391D2*
X1769602D1*
X1734965Y1537585D2*
X1769602D1*
X1734965Y1533780D2*
X1769602D1*
X1734965Y1529974D2*
X1769602D1*
X1734965Y1526168D2*
X1769602D1*
X1734965Y1522362D2*
X1769602D1*
X1734965Y1518556D2*
X1769602D1*
X1734965Y1514751D2*
X1769602D1*
X1734965Y1510945D2*
X1769602D1*
X1734965Y1507139D2*
X1769602D1*
X1769992Y1647953D2*
X1734575D1*
X1734567Y1506228D1*
X1769992Y1506220D1*
X1770000Y1647945D1*
X1731028Y852808D2*
X1765665D1*
X1731028Y849003D2*
X1765665D1*
X1731028Y845197D2*
X1765665D1*
X1731028Y841391D2*
X1765665D1*
X1731028Y837585D2*
X1765665D1*
X1731028Y833780D2*
X1765665D1*
X1731028Y829974D2*
X1765665D1*
X1731028Y826168D2*
X1765665D1*
X1731028Y822362D2*
X1765665D1*
X1731028Y818556D2*
X1765665D1*
X1731028Y814751D2*
X1765665D1*
X1731028Y810945D2*
X1765665D1*
X1731028Y807139D2*
X1765665D1*
X1731028Y803333D2*
X1765665D1*
X1731028Y799528D2*
X1765665D1*
X1731028Y795722D2*
X1765665D1*
X1731028Y791916D2*
X1765665D1*
X1731028Y788110D2*
X1765665D1*
X1731028Y784304D2*
X1765665D1*
X1731028Y780499D2*
X1765665D1*
X1731028Y776693D2*
X1765665D1*
X1731028Y772887D2*
X1765665D1*
X1731028Y769081D2*
X1765665D1*
X1731028Y765276D2*
X1765665D1*
X1731028Y761470D2*
X1765665D1*
X1731028Y757664D2*
X1765665D1*
X1731028Y753858D2*
X1765665D1*
X1731028Y750052D2*
X1765665D1*
X1731028Y746247D2*
X1765665D1*
X1731028Y742441D2*
X1765665D1*
X1731028Y738635D2*
X1765665D1*
X1731028Y734829D2*
X1765665D1*
X1731028Y731024D2*
X1765665D1*
X1731028Y727218D2*
X1765665D1*
X1731028Y723412D2*
X1765665D1*
X1731028Y719606D2*
X1765665D1*
X1731028Y715801D2*
X1765665D1*
X1766063Y714890D2*
Y856606D1*
X1730638Y856614D1*
X1730630Y714890D1*
X1766055Y714882D1*
D19*
X1295591Y1638110D3*
D20*
Y1834961D3*
D21*
X862520Y1555433D3*
Y1480630D3*
D22*
X1270000Y890079D3*
X1329055D3*
X1142047Y1472756D3*
X1201102D3*
X1145984Y890079D3*
X1205039D3*
X1079055Y1531811D3*
Y1472756D3*
D19*
X1295591Y724724D3*
D20*
Y527874D3*
D22*
X1270000Y1472756D3*
X1329055D3*
X1401890Y1437323D3*
X1460945D3*
X1567244Y1354646D3*
Y1295591D3*
X1401890Y925512D3*
X1460945D3*
X1567244Y1008189D3*
Y1067244D3*
D23*
X1783780Y1618425D3*
X1894016D3*
X1783780Y1535748D3*
X1894016D3*
X1783780Y744409D3*
X1894016D3*
X1783780Y827087D3*
X1894016D3*
D22*
X2073150Y1716850D3*
X2014094D3*
X2073150Y1236535D3*
X2014094D3*
X2073150Y645984D3*
X2014094D3*
X2073150Y1126299D3*
X2014094D3*
D24*
X472756Y1531390D3*
Y1431390D3*
Y1631390D3*
Y1131417D3*
Y1031417D3*
Y1231417D3*
Y831417D3*
Y931417D3*
Y1331417D3*
Y731417D3*
D25*
X1705039Y1803465D3*
X1894016D3*
X1705039Y1350709D3*
X1894016D3*
X1705039Y559370D3*
X1894016D3*
X1705039Y1012126D3*
X1894016D3*
D26*
X2189291Y1378268D3*
Y1575118D3*
D22*
X779843Y933386D3*
X838898D3*
X779843Y870394D3*
X838898D3*
X787717Y1413701D3*
Y1472756D3*
X779843Y807402D3*
X838898D3*
D26*
X2189291Y787717D3*
Y984567D3*
D27*
X882205Y472756D3*
X982205D3*
X782205D3*
D29*
X1437323Y1295591D3*
X1417638D3*
X1397953D3*
X1378268D3*
X1358583D3*
X1338898D3*
X1319213D3*
X1299528D3*
X1279843D3*
X1260157D3*
X1240472D3*
X1220787D3*
X1201102D3*
X1181417D3*
X1161732D3*
X1142047D3*
X1122362D3*
X1102677D3*
X1082992D3*
Y1067244D3*
X1102677D3*
X1122362D3*
X1142047D3*
X1161732D3*
X1181417D3*
X1201102D3*
X1220787D3*
X1240472D3*
X1260157D3*
X1279843D3*
X1299528D3*
X1319213D3*
X1338898D3*
X1358583D3*
X1378268D3*
X1397953D3*
X1417638D3*
X1437323D3*
D30*
X1260157Y1181417D3*
M02*
