M48
INCH
T01C0.0118
T02C0.0157
T03C0.034
T04C0.0354
T05C0.0551
T06C0.1299
%
T01
X+012483Y+013704
X+011578Y+014058
X+010436Y+013113
X+010436Y+012680
X+010436Y+012247
X+010436Y+011814
X+010436Y+011381
X+010869Y+011381
X+011302Y+011381
X+011735Y+011381
X+011735Y+011814
X+011302Y+011814
X+011302Y+012247
X+011735Y+012247
X+012169Y+012247
X+012169Y+011814
X+012169Y+011381
X+012602Y+011381
X+013035Y+011381
X+013035Y+011814
X+013468Y+011814
X+013901Y+011814
X+013901Y+012247
X+013468Y+012247
X+013035Y+012247
X+012602Y+012247
X+012602Y+011814
X+013468Y+011381
X+013901Y+011381
X+014334Y+011381
X+014767Y+011381
X+014767Y+011814
X+014334Y+011814
X+014334Y+012247
X+014767Y+012247
X+010869Y+012247
X+010869Y+011814
X+010436Y+010948
X+010436Y+010515
X+010436Y+010082
X+010869Y+010082
X+011302Y+010082
X+009216Y+005554
X+008743Y+005554
T02
X+007326Y+014728
X+008113Y+015357
X+008113Y+015751
X+009176Y+016224
X+009570Y+016224
X+009964Y+016224
X+009964Y+016617
X+009570Y+016617
X+009176Y+016617
X+009255Y+017523
X+008665Y+017523
X+008074Y+017523
X+007483Y+017523
X+006893Y+017523
X+006893Y+018901
X+007483Y+018901
X+008074Y+018901
X+008665Y+018901
X+009255Y+018901
X+009846Y+018901
X+010436Y+018901
X+011027Y+018901
X+011617Y+018901
X+012208Y+018901
X+012798Y+018901
X+013389Y+018901
X+013980Y+018901
X+014570Y+018901
X+015161Y+018901
X+015751Y+018901
X+014570Y+017523
X+013980Y+017523
X+013389Y+017523
X+012798Y+017523
X+012208Y+017523
X+011617Y+017523
X+011027Y+017523
X+010436Y+017523
X+009846Y+017523
X+011184Y+015436
X+011381Y+015121
X+012680Y+015121
X+015357Y+014570
X+015948Y+014964
X+016539Y+015357
X+017365Y+015200
X+017365Y+015594
X+017365Y+015987
X+017365Y+016381
X+017995Y+017523
X+017995Y+018507
X+020751Y+017562
X+021145Y+017169
X+022838Y+016735
X+022838Y+015751
X+022838Y+014767
X+022838Y+013783
X+022838Y+012798
X+022838Y+011814
X+022838Y+010830
X+022838Y+009846
X+022838Y+008861
X+022838Y+007877
X+022838Y+006893
X+021145Y+006460
X+020712Y+006066
X+017995Y+005987
X+017995Y+005003
X+017365Y+007247
X+017365Y+007641
X+017365Y+008035
X+017365Y+008428
X+016539Y+008271
X+015948Y+008665
X+015357Y+009058
X+017995Y+009570
X+017995Y+010554
X+017720Y+011814
X+018310Y+011814
X+018901Y+011814
X+019491Y+011814
X+020751Y+011814
X+021145Y+012365
X+021145Y+011263
X+017995Y+012956
X+017995Y+013940
X+017129Y+011814
X+016539Y+011814
X+015948Y+011814
X+015357Y+011814
X+012720Y+008507
X+011066Y+008901
X+010436Y+007956
X+010043Y+007956
X+009649Y+007956
X+009649Y+007562
X+010043Y+007562
X+010436Y+007562
X+010633Y+006302
X+010043Y+006302
X+009452Y+006302
X+007877Y+006696
X+007287Y+007287
X+006696Y+007877
X+005712Y+007877
X+006066Y+006735
X+006657Y+006145
X+007247Y+005554
X+008389Y+007680
X+008783Y+008743
X+008783Y+009373
X+008783Y+009964
X+008980Y+010712
X+008980Y+011302
X+008980Y+011893
X+008980Y+012483
X+008980Y+013074
X+008389Y+013074
X+008389Y+012483
X+007798Y+012483
X+007798Y+011893
X+008389Y+011893
X+008389Y+011302
X+007129Y+010791
X+006539Y+010791
X+005948Y+010791
X+005948Y+009728
X+006539Y+009728
X+007129Y+009728
X+007326Y+013074
X+005672Y+014334
X+011224Y+006302
X+011814Y+006302
X+012405Y+006302
X+012995Y+006302
X+013586Y+006302
X+014176Y+006302
X+014767Y+006302
T03
X+004728Y+015314
X+004728Y+014314
X+004728Y+013314
X+004728Y+012314
X+004728Y+011314
X+004728Y+010314
X+004728Y+009314
X+004728Y+008314
X+004728Y+007314
X+007822Y+004728
X+008822Y+004728
X+009822Y+004728
X+004728Y+016314
T04
X+012956Y+016381
X+012956Y+018350
X+012956Y+007247
X+012956Y+005279
T05
X+021893Y+013783
X+021893Y+015751
X+021893Y+009846
X+021893Y+007877
T06
X+005515Y+005515
X+005515Y+018113
X+022050Y+018231
X+022050Y+005397
T00
M30
